<?xml version="1.0" encoding="utf-8" standalone="no"?>
<!DOCTYPE svg PUBLIC "-//W3C//DTD SVG 1.1//EN"
  "http://www.w3.org/Graphics/SVG/1.1/DTD/svg11.dtd">
<svg xmlns:xlink="http://www.w3.org/1999/xlink" width="982.08pt" height="588.358125pt" viewBox="0 0 982.08 588.358125" xmlns="http://www.w3.org/2000/svg" version="1.1">
 <metadata>
  <rdf:RDF xmlns:dc="http://purl.org/dc/elements/1.1/" xmlns:cc="http://creativecommons.org/ns#" xmlns:rdf="http://www.w3.org/1999/02/22-rdf-syntax-ns#">
   <cc:Work>
    <dc:type rdf:resource="http://purl.org/dc/dcmitype/StillImage"/>
    <dc:date>2026-05-05T22:55:07.528402</dc:date>
    <dc:format>image/svg+xml</dc:format>
    <dc:creator>
     <cc:Agent>
      <dc:title>Matplotlib v3.10.0, https://matplotlib.org/</dc:title>
     </cc:Agent>
    </dc:creator>
   </cc:Work>
  </rdf:RDF>
 </metadata>
 <defs>
  <style type="text/css">*{stroke-linejoin: round; stroke-linecap: butt}</style>
 </defs>
 <g id="figure_1">
  <g id="patch_1">
   <path d="M 0 588.358125 
L 982.08 588.358125 
L 982.08 0 
L 0 0 
z
" style="fill: #ffffff"/>
  </g>
  <g id="axes_1">
   <g id="patch_2">
    <path d="M 82.08 158.971165 
L 251.81384 158.971165 
L 251.81384 65.52 
L 82.08 65.52 
z
" style="fill: #f7f9fb"/>
   </g>
   <g id="matplotlib.axis_1"/>
   <g id="matplotlib.axis_2"/>
   <g id="text_1">
    <!-- 主线提交 -->
    <g style="fill: #63707a" transform="translate(92.26403 91.686326) scale(0.14 -0.14)">
     <defs>
      <path id="DroidSansFallback-4e3b" d="M 3075 5150 
Q 3325 4675 3475 4125 
L 5850 4125 
L 5850 3650 
L 3425 3650 
L 3425 2300 
L 5525 2300 
L 5525 1825 
L 3425 1825 
L 3425 125 
L 6025 125 
L 6025 -350 
L 375 -350 
L 375 125 
L 2925 125 
L 2925 1825 
L 850 1825 
L 850 2300 
L 2925 2300 
L 2925 3650 
L 550 3650 
L 550 4125 
L 2900 4125 
L 2550 4975 
L 3075 5150 
z
" transform="scale(0.015625)"/>
      <path id="DroidSansFallback-7ebf" d="M 2125 4175 
L 2575 4000 
Q 1950 2675 1150 1775 
L 2300 2100 
L 2425 1700 
Q 1575 1375 525 1200 
L 375 1625 
Q 925 2150 1425 2950 
L 525 2800 
L 425 3275 
Q 1000 3975 1375 5175 
L 1850 5025 
Q 1500 3975 975 3300 
L 1700 3375 
L 2125 4175 
z
M 2425 975 
L 2525 525 
L 525 -50 
L 325 475 
L 2425 975 
z
M 5625 4075 
L 5675 3600 
L 4225 3350 
L 4275 2550 
L 5950 2900 
L 6000 2425 
L 4350 2075 
L 4600 1125 
Q 5025 1525 5375 2050 
L 5825 1825 
Q 5375 1100 4825 600 
Q 5225 -25 5450 -25 
Q 5575 -25 5625 825 
L 6125 600 
Q 5925 -600 5450 -600 
Q 5000 -600 4450 300 
Q 3775 -150 2925 -450 
L 2650 50 
Q 3600 375 4200 800 
Q 3975 1275 3850 1975 
L 2575 1700 
L 2500 2175 
L 3800 2450 
L 3725 3275 
L 2775 3125 
L 2700 3600 
L 3700 3750 
L 3675 5175 
L 4175 5175 
L 4200 3850 
L 5625 4075 
z
M 4875 5150 
L 5400 4500 
L 5025 4200 
L 4475 4875 
L 4875 5150 
z
" transform="scale(0.015625)"/>
      <path id="DroidSansFallback-63d0" d="M 2175 2525 
L 2250 2075 
L 1600 1750 
L 1600 -25 
Q 1575 -575 1075 -575 
L 525 -500 
L 425 25 
Q 700 -75 1000 -75 
Q 1100 -75 1100 225 
L 1100 1525 
L 500 1300 
L 300 1825 
L 1100 2100 
L 1100 3650 
L 400 3650 
L 400 4125 
L 1100 4125 
L 1100 5175 
L 1600 5175 
L 1600 4125 
L 2275 4125 
L 2275 3650 
L 1600 3650 
L 1600 2275 
L 2175 2525 
z
M 2600 5050 
L 5500 5050 
L 5500 2750 
L 2600 2750 
L 2600 5050 
z
M 3075 4125 
L 5025 4125 
L 5025 4600 
L 3075 4600 
L 3075 4125 
z
M 3075 3200 
L 5025 3200 
L 5025 3675 
L 3075 3675 
L 3075 3200 
z
M 2700 1725 
L 3150 1625 
Q 3100 1200 2950 825 
Q 3275 375 3850 175 
L 3850 1875 
L 2175 1875 
L 2175 2325 
L 5825 2325 
L 5825 1875 
L 4325 1875 
L 4325 1200 
L 5500 1200 
L 5500 750 
L 4325 750 
L 4325 75 
Q 4775 0 6025 0 
L 5875 -500 
L 5400 -500 
Q 3500 -500 2750 350 
Q 2500 -175 2125 -575 
L 1750 -225 
Q 2575 650 2700 1725 
z
" transform="scale(0.015625)"/>
      <path id="DroidSansFallback-4ea4" d="M 450 4350 
L 2900 4350 
L 2575 5025 
L 3100 5200 
L 3475 4350 
L 5925 4350 
L 5925 3875 
L 450 3875 
L 450 4350 
z
M 2025 3700 
L 2425 3375 
Q 1775 2575 750 2075 
L 450 2550 
Q 1325 2950 2025 3700 
z
M 4350 3650 
Q 5175 3150 5850 2500 
L 5475 2050 
Q 4775 2775 4000 3300 
L 4350 3650 
z
M 4275 2425 
L 4750 2225 
Q 4350 1450 3700 875 
Q 4875 200 6125 -75 
L 5825 -600 
Q 4225 -125 3275 525 
Q 2075 -250 550 -625 
L 300 -125 
Q 1850 200 2800 850 
Q 2075 1400 1525 2075 
L 1950 2400 
Q 2475 1700 3225 1175 
Q 3850 1700 4275 2425 
z
" transform="scale(0.015625)"/>
     </defs>
     <use xlink:href="#DroidSansFallback-4e3b"/>
     <use xlink:href="#DroidSansFallback-7ebf" transform="translate(100 0)"/>
     <use xlink:href="#DroidSansFallback-63d0" transform="translate(200 0)"/>
     <use xlink:href="#DroidSansFallback-4ea4" transform="translate(300 0)"/>
    </g>
   </g>
   <g id="text_2">
    <!-- 76 -->
    <g style="fill: #172026" transform="translate(92.26403 132.804839) scale(0.31 -0.31)">
     <defs>
      <path id="DejaVuSans-Bold-37" d="M 428 4666 
L 3944 4666 
L 3944 3988 
L 2125 0 
L 953 0 
L 2675 3781 
L 428 3781 
L 428 4666 
z
" transform="scale(0.015625)"/>
      <path id="DejaVuSans-Bold-36" d="M 2316 2303 
Q 2000 2303 1842 2098 
Q 1684 1894 1684 1484 
Q 1684 1075 1842 870 
Q 2000 666 2316 666 
Q 2634 666 2792 870 
Q 2950 1075 2950 1484 
Q 2950 1894 2792 2098 
Q 2634 2303 2316 2303 
z
M 3803 4544 
L 3803 3681 
Q 3506 3822 3243 3889 
Q 2981 3956 2731 3956 
Q 2194 3956 1894 3657 
Q 1594 3359 1544 2772 
Q 1750 2925 1990 3001 
Q 2231 3078 2516 3078 
Q 3231 3078 3670 2659 
Q 4109 2241 4109 1563 
Q 4109 813 3618 361 
Q 3128 -91 2303 -91 
Q 1394 -91 895 523 
Q 397 1138 397 2266 
Q 397 3422 980 4083 
Q 1563 4744 2578 4744 
Q 2900 4744 3203 4694 
Q 3506 4644 3803 4544 
z
" transform="scale(0.015625)"/>
     </defs>
     <use xlink:href="#DejaVuSans-Bold-37"/>
     <use xlink:href="#DejaVuSans-Bold-36" transform="translate(69.580078 0)"/>
    </g>
   </g>
   <g id="text_3">
    <!-- merged commits -->
    <g style="fill: #63707a" transform="translate(92.26403 151.495072) scale(0.11 -0.11)">
     <defs>
      <path id="DejaVuSans-6d" d="M 3328 2828 
Q 3544 3216 3844 3400 
Q 4144 3584 4550 3584 
Q 5097 3584 5394 3201 
Q 5691 2819 5691 2113 
L 5691 0 
L 5113 0 
L 5113 2094 
Q 5113 2597 4934 2840 
Q 4756 3084 4391 3084 
Q 3944 3084 3684 2787 
Q 3425 2491 3425 1978 
L 3425 0 
L 2847 0 
L 2847 2094 
Q 2847 2600 2669 2842 
Q 2491 3084 2119 3084 
Q 1678 3084 1418 2786 
Q 1159 2488 1159 1978 
L 1159 0 
L 581 0 
L 581 3500 
L 1159 3500 
L 1159 2956 
Q 1356 3278 1631 3431 
Q 1906 3584 2284 3584 
Q 2666 3584 2933 3390 
Q 3200 3197 3328 2828 
z
" transform="scale(0.015625)"/>
      <path id="DejaVuSans-65" d="M 3597 1894 
L 3597 1613 
L 953 1613 
Q 991 1019 1311 708 
Q 1631 397 2203 397 
Q 2534 397 2845 478 
Q 3156 559 3463 722 
L 3463 178 
Q 3153 47 2828 -22 
Q 2503 -91 2169 -91 
Q 1331 -91 842 396 
Q 353 884 353 1716 
Q 353 2575 817 3079 
Q 1281 3584 2069 3584 
Q 2775 3584 3186 3129 
Q 3597 2675 3597 1894 
z
M 3022 2063 
Q 3016 2534 2758 2815 
Q 2500 3097 2075 3097 
Q 1594 3097 1305 2825 
Q 1016 2553 972 2059 
L 3022 2063 
z
" transform="scale(0.015625)"/>
      <path id="DejaVuSans-72" d="M 2631 2963 
Q 2534 3019 2420 3045 
Q 2306 3072 2169 3072 
Q 1681 3072 1420 2755 
Q 1159 2438 1159 1844 
L 1159 0 
L 581 0 
L 581 3500 
L 1159 3500 
L 1159 2956 
Q 1341 3275 1631 3429 
Q 1922 3584 2338 3584 
Q 2397 3584 2469 3576 
Q 2541 3569 2628 3553 
L 2631 2963 
z
" transform="scale(0.015625)"/>
      <path id="DejaVuSans-67" d="M 2906 1791 
Q 2906 2416 2648 2759 
Q 2391 3103 1925 3103 
Q 1463 3103 1205 2759 
Q 947 2416 947 1791 
Q 947 1169 1205 825 
Q 1463 481 1925 481 
Q 2391 481 2648 825 
Q 2906 1169 2906 1791 
z
M 3481 434 
Q 3481 -459 3084 -895 
Q 2688 -1331 1869 -1331 
Q 1566 -1331 1297 -1286 
Q 1028 -1241 775 -1147 
L 775 -588 
Q 1028 -725 1275 -790 
Q 1522 -856 1778 -856 
Q 2344 -856 2625 -561 
Q 2906 -266 2906 331 
L 2906 616 
Q 2728 306 2450 153 
Q 2172 0 1784 0 
Q 1141 0 747 490 
Q 353 981 353 1791 
Q 353 2603 747 3093 
Q 1141 3584 1784 3584 
Q 2172 3584 2450 3431 
Q 2728 3278 2906 2969 
L 2906 3500 
L 3481 3500 
L 3481 434 
z
" transform="scale(0.015625)"/>
      <path id="DejaVuSans-64" d="M 2906 2969 
L 2906 4863 
L 3481 4863 
L 3481 0 
L 2906 0 
L 2906 525 
Q 2725 213 2448 61 
Q 2172 -91 1784 -91 
Q 1150 -91 751 415 
Q 353 922 353 1747 
Q 353 2572 751 3078 
Q 1150 3584 1784 3584 
Q 2172 3584 2448 3432 
Q 2725 3281 2906 2969 
z
M 947 1747 
Q 947 1113 1208 752 
Q 1469 391 1925 391 
Q 2381 391 2643 752 
Q 2906 1113 2906 1747 
Q 2906 2381 2643 2742 
Q 2381 3103 1925 3103 
Q 1469 3103 1208 2742 
Q 947 2381 947 1747 
z
" transform="scale(0.015625)"/>
      <path id="DejaVuSans-20" transform="scale(0.015625)"/>
      <path id="DejaVuSans-63" d="M 3122 3366 
L 3122 2828 
Q 2878 2963 2633 3030 
Q 2388 3097 2138 3097 
Q 1578 3097 1268 2742 
Q 959 2388 959 1747 
Q 959 1106 1268 751 
Q 1578 397 2138 397 
Q 2388 397 2633 464 
Q 2878 531 3122 666 
L 3122 134 
Q 2881 22 2623 -34 
Q 2366 -91 2075 -91 
Q 1284 -91 818 406 
Q 353 903 353 1747 
Q 353 2603 823 3093 
Q 1294 3584 2113 3584 
Q 2378 3584 2631 3529 
Q 2884 3475 3122 3366 
z
" transform="scale(0.015625)"/>
      <path id="DejaVuSans-6f" d="M 1959 3097 
Q 1497 3097 1228 2736 
Q 959 2375 959 1747 
Q 959 1119 1226 758 
Q 1494 397 1959 397 
Q 2419 397 2687 759 
Q 2956 1122 2956 1747 
Q 2956 2369 2687 2733 
Q 2419 3097 1959 3097 
z
M 1959 3584 
Q 2709 3584 3137 3096 
Q 3566 2609 3566 1747 
Q 3566 888 3137 398 
Q 2709 -91 1959 -91 
Q 1206 -91 779 398 
Q 353 888 353 1747 
Q 353 2609 779 3096 
Q 1206 3584 1959 3584 
z
" transform="scale(0.015625)"/>
      <path id="DejaVuSans-69" d="M 603 3500 
L 1178 3500 
L 1178 0 
L 603 0 
L 603 3500 
z
M 603 4863 
L 1178 4863 
L 1178 4134 
L 603 4134 
L 603 4863 
z
" transform="scale(0.015625)"/>
      <path id="DejaVuSans-74" d="M 1172 4494 
L 1172 3500 
L 2356 3500 
L 2356 3053 
L 1172 3053 
L 1172 1153 
Q 1172 725 1289 603 
Q 1406 481 1766 481 
L 2356 481 
L 2356 0 
L 1766 0 
Q 1100 0 847 248 
Q 594 497 594 1153 
L 594 3053 
L 172 3053 
L 172 3500 
L 594 3500 
L 594 4494 
L 1172 4494 
z
" transform="scale(0.015625)"/>
      <path id="DejaVuSans-73" d="M 2834 3397 
L 2834 2853 
Q 2591 2978 2328 3040 
Q 2066 3103 1784 3103 
Q 1356 3103 1142 2972 
Q 928 2841 928 2578 
Q 928 2378 1081 2264 
Q 1234 2150 1697 2047 
L 1894 2003 
Q 2506 1872 2764 1633 
Q 3022 1394 3022 966 
Q 3022 478 2636 193 
Q 2250 -91 1575 -91 
Q 1294 -91 989 -36 
Q 684 19 347 128 
L 347 722 
Q 666 556 975 473 
Q 1284 391 1588 391 
Q 1994 391 2212 530 
Q 2431 669 2431 922 
Q 2431 1156 2273 1281 
Q 2116 1406 1581 1522 
L 1381 1569 
Q 847 1681 609 1914 
Q 372 2147 372 2553 
Q 372 3047 722 3315 
Q 1072 3584 1716 3584 
Q 2034 3584 2315 3537 
Q 2597 3491 2834 3397 
z
" transform="scale(0.015625)"/>
     </defs>
     <use xlink:href="#DejaVuSans-6d"/>
     <use xlink:href="#DejaVuSans-65" transform="translate(97.412109 0)"/>
     <use xlink:href="#DejaVuSans-72" transform="translate(158.935547 0)"/>
     <use xlink:href="#DejaVuSans-67" transform="translate(198.298828 0)"/>
     <use xlink:href="#DejaVuSans-65" transform="translate(261.775391 0)"/>
     <use xlink:href="#DejaVuSans-64" transform="translate(323.298828 0)"/>
     <use xlink:href="#DejaVuSans-20" transform="translate(386.775391 0)"/>
     <use xlink:href="#DejaVuSans-63" transform="translate(418.5625 0)"/>
     <use xlink:href="#DejaVuSans-6f" transform="translate(473.542969 0)"/>
     <use xlink:href="#DejaVuSans-6d" transform="translate(534.724609 0)"/>
     <use xlink:href="#DejaVuSans-6d" transform="translate(632.136719 0)"/>
     <use xlink:href="#DejaVuSans-69" transform="translate(729.548828 0)"/>
     <use xlink:href="#DejaVuSans-74" transform="translate(757.332031 0)"/>
     <use xlink:href="#DejaVuSans-73" transform="translate(796.541016 0)"/>
    </g>
   </g>
  </g>
  <g id="axes_2">
   <g id="patch_3">
    <path d="M 323.102053 158.971165 
L 492.835894 158.971165 
L 492.835894 65.52 
L 323.102053 65.52 
z
" style="fill: #f7f9fb"/>
   </g>
   <g id="matplotlib.axis_3"/>
   <g id="matplotlib.axis_4"/>
   <g id="text_4">
    <!-- 作者排名 -->
    <g style="fill: #63707a" transform="translate(333.286084 91.686326) scale(0.14 -0.14)">
     <defs>
      <path id="DroidSansFallback-4f5c" d="M 1575 5175 
L 2075 5025 
L 1625 3875 
L 1625 -575 
L 1125 -575 
L 1125 2925 
L 500 2050 
L 250 2550 
Q 1175 3800 1575 5175 
z
M 2900 5175 
L 3425 5050 
L 3175 4300 
L 6075 4300 
L 6075 3825 
L 3875 3825 
L 3875 2850 
L 5675 2850 
L 5675 2400 
L 3875 2400 
L 3875 1425 
L 5750 1425 
L 5750 950 
L 3875 950 
L 3875 -575 
L 3375 -575 
L 3375 3825 
L 2975 3825 
Q 2650 3050 2100 2425 
L 1750 2825 
Q 2500 3775 2900 5175 
z
" transform="scale(0.015625)"/>
      <path id="DroidSansFallback-8005" d="M 875 4525 
L 2650 4525 
L 2650 5200 
L 3150 5200 
L 3150 4525 
L 4450 4525 
L 4450 4075 
L 3150 4075 
L 3150 3400 
L 3625 3400 
Q 4675 4050 5500 4825 
L 5825 4450 
L 4550 3400 
L 6075 3400 
L 6075 2950 
L 3825 2950 
L 2625 2300 
L 5350 2300 
L 5350 -575 
L 4850 -575 
L 4850 -275 
L 2025 -275 
L 2025 -600 
L 1525 -600 
L 1525 1825 
L 525 1450 
L 300 1925 
Q 1675 2375 2800 2950 
L 325 2950 
L 325 3400 
L 2650 3400 
L 2650 4075 
L 875 4075 
L 875 4525 
z
M 2025 1225 
L 4850 1225 
L 4850 1850 
L 2025 1850 
L 2025 1225 
z
M 2025 175 
L 4850 175 
L 4850 800 
L 2025 800 
L 2025 175 
z
" transform="scale(0.015625)"/>
      <path id="DroidSansFallback-6392" d="M 2275 4175 
L 3225 4175 
L 3225 5200 
L 3700 5200 
L 3700 -575 
L 3225 -575 
L 3225 650 
L 2200 650 
L 2200 1100 
L 3225 1100 
L 3225 2200 
L 2325 2200 
L 2325 2650 
L 3225 2650 
L 3225 3725 
L 2275 3725 
L 2275 4175 
z
M 4925 3725 
L 4925 2650 
L 5825 2650 
L 5825 2200 
L 4925 2200 
L 4925 1100 
L 6075 1100 
L 6075 650 
L 4925 650 
L 4925 -575 
L 4450 -575 
L 4450 5200 
L 4925 5200 
L 4925 4175 
L 5925 4175 
L 5925 3725 
L 4925 3725 
z
M 375 4125 
L 975 4125 
L 975 5175 
L 1450 5175 
L 1450 4125 
L 2050 4125 
L 2050 3650 
L 1450 3650 
L 1450 2400 
L 1925 2675 
L 2025 2225 
L 1450 1850 
L 1450 -100 
Q 1425 -575 975 -575 
L 500 -525 
L 375 -50 
L 900 -100 
Q 975 -100 975 175 
L 975 1600 
L 450 1325 
L 275 1850 
L 975 2175 
L 975 3650 
L 375 3650 
L 375 4125 
z
" transform="scale(0.015625)"/>
      <path id="DroidSansFallback-540d" d="M 2525 5175 
L 3050 5000 
L 2775 4650 
L 5625 4650 
L 5625 4225 
Q 4700 2775 2575 2025 
L 5675 2025 
L 5675 -575 
L 5175 -575 
L 5175 -200 
L 2150 -200 
L 2150 -575 
L 1650 -575 
L 1650 1750 
L 650 1525 
L 300 2075 
Q 3725 2550 4975 4175 
L 2375 4175 
L 2000 3825 
L 2825 3175 
L 2475 2800 
Q 2075 3200 1600 3500 
L 950 3075 
L 500 3425 
Q 1950 4250 2525 5175 
z
M 2150 275 
L 5175 275 
L 5175 1550 
L 2150 1550 
L 2150 275 
z
" transform="scale(0.015625)"/>
     </defs>
     <use xlink:href="#DroidSansFallback-4f5c"/>
     <use xlink:href="#DroidSansFallback-8005" transform="translate(100 0)"/>
     <use xlink:href="#DroidSansFallback-6392" transform="translate(200 0)"/>
     <use xlink:href="#DroidSansFallback-540d" transform="translate(300 0)"/>
    </g>
   </g>
   <g id="text_5">
    <!-- #2 -->
    <g style="fill: #172026" transform="translate(333.286084 132.804839) scale(0.31 -0.31)">
     <defs>
      <path id="DejaVuSans-Bold-23" d="M 2847 4594 
L 2547 3391 
L 3372 3391 
L 3675 4594 
L 4366 4594 
L 4063 3391 
L 4928 3391 
L 4928 2725 
L 3897 2725 
L 3681 1869 
L 4569 1869 
L 4569 1197 
L 3519 1197 
L 3219 0 
L 2528 0 
L 2828 1197 
L 2003 1197 
L 1703 0 
L 1006 0 
L 1306 1197 
L 434 1197 
L 434 1869 
L 1459 1869 
L 1678 2725 
L 794 2725 
L 794 3391 
L 1850 3391 
L 2150 4594 
L 2847 4594 
z
M 3200 2725 
L 2375 2725 
L 2156 1869 
L 2981 1869 
L 3200 2725 
z
" transform="scale(0.015625)"/>
      <path id="DejaVuSans-Bold-32" d="M 1844 884 
L 3897 884 
L 3897 0 
L 506 0 
L 506 884 
L 2209 2388 
Q 2438 2594 2547 2791 
Q 2656 2988 2656 3200 
Q 2656 3528 2436 3728 
Q 2216 3928 1850 3928 
Q 1569 3928 1234 3808 
Q 900 3688 519 3450 
L 519 4475 
Q 925 4609 1322 4679 
Q 1719 4750 2100 4750 
Q 2938 4750 3402 4381 
Q 3866 4013 3866 3353 
Q 3866 2972 3669 2642 
Q 3472 2313 2841 1759 
L 1844 884 
z
" transform="scale(0.015625)"/>
     </defs>
     <use xlink:href="#DejaVuSans-Bold-23"/>
     <use xlink:href="#DejaVuSans-Bold-32" transform="translate(83.789062 0)"/>
    </g>
   </g>
   <g id="text_6">
    <!-- 14.2% of commits -->
    <g style="fill: #63707a" transform="translate(333.286084 151.495072) scale(0.11 -0.11)">
     <defs>
      <path id="DejaVuSans-31" d="M 794 531 
L 1825 531 
L 1825 4091 
L 703 3866 
L 703 4441 
L 1819 4666 
L 2450 4666 
L 2450 531 
L 3481 531 
L 3481 0 
L 794 0 
L 794 531 
z
" transform="scale(0.015625)"/>
      <path id="DejaVuSans-34" d="M 2419 4116 
L 825 1625 
L 2419 1625 
L 2419 4116 
z
M 2253 4666 
L 3047 4666 
L 3047 1625 
L 3713 1625 
L 3713 1100 
L 3047 1100 
L 3047 0 
L 2419 0 
L 2419 1100 
L 313 1100 
L 313 1709 
L 2253 4666 
z
" transform="scale(0.015625)"/>
      <path id="DejaVuSans-2e" d="M 684 794 
L 1344 794 
L 1344 0 
L 684 0 
L 684 794 
z
" transform="scale(0.015625)"/>
      <path id="DejaVuSans-32" d="M 1228 531 
L 3431 531 
L 3431 0 
L 469 0 
L 469 531 
Q 828 903 1448 1529 
Q 2069 2156 2228 2338 
Q 2531 2678 2651 2914 
Q 2772 3150 2772 3378 
Q 2772 3750 2511 3984 
Q 2250 4219 1831 4219 
Q 1534 4219 1204 4116 
Q 875 4013 500 3803 
L 500 4441 
Q 881 4594 1212 4672 
Q 1544 4750 1819 4750 
Q 2544 4750 2975 4387 
Q 3406 4025 3406 3419 
Q 3406 3131 3298 2873 
Q 3191 2616 2906 2266 
Q 2828 2175 2409 1742 
Q 1991 1309 1228 531 
z
" transform="scale(0.015625)"/>
      <path id="DejaVuSans-25" d="M 4653 2053 
Q 4381 2053 4226 1822 
Q 4072 1591 4072 1178 
Q 4072 772 4226 539 
Q 4381 306 4653 306 
Q 4919 306 5073 539 
Q 5228 772 5228 1178 
Q 5228 1588 5073 1820 
Q 4919 2053 4653 2053 
z
M 4653 2450 
Q 5147 2450 5437 2106 
Q 5728 1763 5728 1178 
Q 5728 594 5436 251 
Q 5144 -91 4653 -91 
Q 4153 -91 3862 251 
Q 3572 594 3572 1178 
Q 3572 1766 3864 2108 
Q 4156 2450 4653 2450 
z
M 1428 4353 
Q 1159 4353 1004 4120 
Q 850 3888 850 3481 
Q 850 3069 1003 2837 
Q 1156 2606 1428 2606 
Q 1700 2606 1854 2837 
Q 2009 3069 2009 3481 
Q 2009 3884 1853 4118 
Q 1697 4353 1428 4353 
z
M 4250 4750 
L 4750 4750 
L 1831 -91 
L 1331 -91 
L 4250 4750 
z
M 1428 4750 
Q 1922 4750 2215 4408 
Q 2509 4066 2509 3481 
Q 2509 2891 2217 2550 
Q 1925 2209 1428 2209 
Q 931 2209 642 2551 
Q 353 2894 353 3481 
Q 353 4063 643 4406 
Q 934 4750 1428 4750 
z
" transform="scale(0.015625)"/>
      <path id="DejaVuSans-66" d="M 2375 4863 
L 2375 4384 
L 1825 4384 
Q 1516 4384 1395 4259 
Q 1275 4134 1275 3809 
L 1275 3500 
L 2222 3500 
L 2222 3053 
L 1275 3053 
L 1275 0 
L 697 0 
L 697 3053 
L 147 3053 
L 147 3500 
L 697 3500 
L 697 3744 
Q 697 4328 969 4595 
Q 1241 4863 1831 4863 
L 2375 4863 
z
" transform="scale(0.015625)"/>
     </defs>
     <use xlink:href="#DejaVuSans-31"/>
     <use xlink:href="#DejaVuSans-34" transform="translate(63.623047 0)"/>
     <use xlink:href="#DejaVuSans-2e" transform="translate(127.246094 0)"/>
     <use xlink:href="#DejaVuSans-32" transform="translate(159.033203 0)"/>
     <use xlink:href="#DejaVuSans-25" transform="translate(222.65625 0)"/>
     <use xlink:href="#DejaVuSans-20" transform="translate(317.675781 0)"/>
     <use xlink:href="#DejaVuSans-6f" transform="translate(349.462891 0)"/>
     <use xlink:href="#DejaVuSans-66" transform="translate(410.644531 0)"/>
     <use xlink:href="#DejaVuSans-20" transform="translate(445.849609 0)"/>
     <use xlink:href="#DejaVuSans-63" transform="translate(477.636719 0)"/>
     <use xlink:href="#DejaVuSans-6f" transform="translate(532.617188 0)"/>
     <use xlink:href="#DejaVuSans-6d" transform="translate(593.798828 0)"/>
     <use xlink:href="#DejaVuSans-6d" transform="translate(691.210938 0)"/>
     <use xlink:href="#DejaVuSans-69" transform="translate(788.623047 0)"/>
     <use xlink:href="#DejaVuSans-74" transform="translate(816.40625 0)"/>
     <use xlink:href="#DejaVuSans-73" transform="translate(855.615234 0)"/>
    </g>
   </g>
  </g>
  <g id="axes_3">
   <g id="patch_4">
    <path d="M 564.124106 158.971165 
L 733.857947 158.971165 
L 733.857947 65.52 
L 564.124106 65.52 
z
" style="fill: #f7f9fb"/>
   </g>
   <g id="matplotlib.axis_5"/>
   <g id="matplotlib.axis_6"/>
   <g id="text_7">
    <!-- Merged PR -->
    <g style="fill: #63707a" transform="translate(574.308137 91.686326) scale(0.14 -0.14)">
     <defs>
      <path id="DejaVuSans-4d" d="M 628 4666 
L 1569 4666 
L 2759 1491 
L 3956 4666 
L 4897 4666 
L 4897 0 
L 4281 0 
L 4281 4097 
L 3078 897 
L 2444 897 
L 1241 4097 
L 1241 0 
L 628 0 
L 628 4666 
z
" transform="scale(0.015625)"/>
      <path id="DejaVuSans-50" d="M 1259 4147 
L 1259 2394 
L 2053 2394 
Q 2494 2394 2734 2622 
Q 2975 2850 2975 3272 
Q 2975 3691 2734 3919 
Q 2494 4147 2053 4147 
L 1259 4147 
z
M 628 4666 
L 2053 4666 
Q 2838 4666 3239 4311 
Q 3641 3956 3641 3272 
Q 3641 2581 3239 2228 
Q 2838 1875 2053 1875 
L 1259 1875 
L 1259 0 
L 628 0 
L 628 4666 
z
" transform="scale(0.015625)"/>
      <path id="DejaVuSans-52" d="M 2841 2188 
Q 3044 2119 3236 1894 
Q 3428 1669 3622 1275 
L 4263 0 
L 3584 0 
L 2988 1197 
Q 2756 1666 2539 1819 
Q 2322 1972 1947 1972 
L 1259 1972 
L 1259 0 
L 628 0 
L 628 4666 
L 2053 4666 
Q 2853 4666 3247 4331 
Q 3641 3997 3641 3322 
Q 3641 2881 3436 2590 
Q 3231 2300 2841 2188 
z
M 1259 4147 
L 1259 2491 
L 2053 2491 
Q 2509 2491 2742 2702 
Q 2975 2913 2975 3322 
Q 2975 3731 2742 3939 
Q 2509 4147 2053 4147 
L 1259 4147 
z
" transform="scale(0.015625)"/>
     </defs>
     <use xlink:href="#DejaVuSans-4d"/>
     <use xlink:href="#DejaVuSans-65" transform="translate(86.279297 0)"/>
     <use xlink:href="#DejaVuSans-72" transform="translate(147.802734 0)"/>
     <use xlink:href="#DejaVuSans-67" transform="translate(187.166016 0)"/>
     <use xlink:href="#DejaVuSans-65" transform="translate(250.642578 0)"/>
     <use xlink:href="#DejaVuSans-64" transform="translate(312.166016 0)"/>
     <use xlink:href="#DejaVuSans-20" transform="translate(375.642578 0)"/>
     <use xlink:href="#DejaVuSans-50" transform="translate(407.429688 0)"/>
     <use xlink:href="#DejaVuSans-52" transform="translate(467.732422 0)"/>
    </g>
   </g>
   <g id="text_8">
    <!-- 76 -->
    <g style="fill: #172026" transform="translate(574.308137 132.804839) scale(0.31 -0.31)">
     <use xlink:href="#DejaVuSans-Bold-37"/>
     <use xlink:href="#DejaVuSans-Bold-36" transform="translate(69.580078 0)"/>
    </g>
   </g>
   <g id="text_9">
    <!-- 91 total PRs -->
    <g style="fill: #63707a" transform="translate(574.308137 151.495072) scale(0.11 -0.11)">
     <defs>
      <path id="DejaVuSans-39" d="M 703 97 
L 703 672 
Q 941 559 1184 500 
Q 1428 441 1663 441 
Q 2288 441 2617 861 
Q 2947 1281 2994 2138 
Q 2813 1869 2534 1725 
Q 2256 1581 1919 1581 
Q 1219 1581 811 2004 
Q 403 2428 403 3163 
Q 403 3881 828 4315 
Q 1253 4750 1959 4750 
Q 2769 4750 3195 4129 
Q 3622 3509 3622 2328 
Q 3622 1225 3098 567 
Q 2575 -91 1691 -91 
Q 1453 -91 1209 -44 
Q 966 3 703 97 
z
M 1959 2075 
Q 2384 2075 2632 2365 
Q 2881 2656 2881 3163 
Q 2881 3666 2632 3958 
Q 2384 4250 1959 4250 
Q 1534 4250 1286 3958 
Q 1038 3666 1038 3163 
Q 1038 2656 1286 2365 
Q 1534 2075 1959 2075 
z
" transform="scale(0.015625)"/>
      <path id="DejaVuSans-61" d="M 2194 1759 
Q 1497 1759 1228 1600 
Q 959 1441 959 1056 
Q 959 750 1161 570 
Q 1363 391 1709 391 
Q 2188 391 2477 730 
Q 2766 1069 2766 1631 
L 2766 1759 
L 2194 1759 
z
M 3341 1997 
L 3341 0 
L 2766 0 
L 2766 531 
Q 2569 213 2275 61 
Q 1981 -91 1556 -91 
Q 1019 -91 701 211 
Q 384 513 384 1019 
Q 384 1609 779 1909 
Q 1175 2209 1959 2209 
L 2766 2209 
L 2766 2266 
Q 2766 2663 2505 2880 
Q 2244 3097 1772 3097 
Q 1472 3097 1187 3025 
Q 903 2953 641 2809 
L 641 3341 
Q 956 3463 1253 3523 
Q 1550 3584 1831 3584 
Q 2591 3584 2966 3190 
Q 3341 2797 3341 1997 
z
" transform="scale(0.015625)"/>
      <path id="DejaVuSans-6c" d="M 603 4863 
L 1178 4863 
L 1178 0 
L 603 0 
L 603 4863 
z
" transform="scale(0.015625)"/>
     </defs>
     <use xlink:href="#DejaVuSans-39"/>
     <use xlink:href="#DejaVuSans-31" transform="translate(63.623047 0)"/>
     <use xlink:href="#DejaVuSans-20" transform="translate(127.246094 0)"/>
     <use xlink:href="#DejaVuSans-74" transform="translate(159.033203 0)"/>
     <use xlink:href="#DejaVuSans-6f" transform="translate(198.242188 0)"/>
     <use xlink:href="#DejaVuSans-74" transform="translate(259.423828 0)"/>
     <use xlink:href="#DejaVuSans-61" transform="translate(298.632812 0)"/>
     <use xlink:href="#DejaVuSans-6c" transform="translate(359.912109 0)"/>
     <use xlink:href="#DejaVuSans-20" transform="translate(387.695312 0)"/>
     <use xlink:href="#DejaVuSans-50" transform="translate(419.482422 0)"/>
     <use xlink:href="#DejaVuSans-52" transform="translate(479.785156 0)"/>
     <use xlink:href="#DejaVuSans-73" transform="translate(549.267578 0)"/>
    </g>
   </g>
  </g>
  <g id="axes_4">
   <g id="patch_5">
    <path d="M 805.14616 158.971165 
L 974.88 158.971165 
L 974.88 65.52 
L 805.14616 65.52 
z
" style="fill: #f7f9fb"/>
   </g>
   <g id="matplotlib.axis_7"/>
   <g id="matplotlib.axis_8"/>
   <g id="text_10">
    <!-- 代码变更 -->
    <g style="fill: #63707a" transform="translate(815.33019 91.686326) scale(0.14 -0.14)">
     <defs>
      <path id="DroidSansFallback-4ee3" d="M 1775 5175 
L 2275 5025 
L 1625 3600 
L 1625 -575 
L 1125 -575 
L 1125 2800 
L 500 2050 
L 250 2550 
Q 1325 3800 1775 5175 
z
M 5925 3675 
L 5975 3200 
L 3775 2925 
Q 4000 1450 4500 750 
Q 5000 50 5200 50 
Q 5575 50 5650 925 
L 6100 775 
Q 6025 -25 5837 -275 
Q 5650 -525 5275 -525 
Q 4775 -525 4175 250 
Q 3575 1025 3275 2850 
L 2150 2725 
L 2075 3200 
L 3200 3350 
L 3000 5175 
L 3500 5175 
L 3700 3400 
L 5925 3675 
z
M 4525 5075 
Q 4975 4625 5275 4125 
L 4850 3875 
Q 4575 4375 4100 4800 
L 4525 5075 
z
" transform="scale(0.015625)"/>
      <path id="DroidSansFallback-7801" d="M 400 4775 
L 2700 4775 
L 2700 4300 
L 1675 4300 
L 1200 2800 
L 2450 2800 
L 2450 -50 
L 1975 -50 
L 1975 200 
L 1400 200 
L 1400 -375 
L 950 -375 
L 950 2200 
L 550 1525 
L 250 1925 
Q 850 2850 1175 4300 
L 400 4300 
L 400 4775 
z
M 1400 650 
L 1975 650 
L 1975 2350 
L 1400 2350 
L 1400 650 
z
M 2900 4950 
L 5550 4950 
L 5175 2325 
L 5975 2325 
Q 5875 250 5662 -175 
Q 5450 -600 4950 -600 
L 4250 -600 
L 4125 -100 
L 5125 -75 
Q 5225 0 5300 275 
L 5425 1850 
L 2925 1850 
L 3275 4050 
L 3800 4000 
L 3500 2325 
L 4675 2325 
L 5025 4475 
L 2900 4475 
L 2900 4950 
z
M 2725 1175 
L 5025 1175 
L 5025 700 
L 2725 700 
L 2725 1175 
z
" transform="scale(0.015625)"/>
      <path id="DroidSansFallback-53d8" d="M 1300 1575 
L 975 1575 
L 975 2050 
L 5325 2050 
L 5325 1625 
Q 4850 775 3925 275 
Q 4800 25 6000 -125 
L 5825 -600 
Q 4375 -450 3325 0 
Q 2175 -475 650 -600 
L 525 -150 
L 2050 75 
L 2750 275 
Q 1900 750 1300 1575 
z
M 3300 500 
Q 4250 950 4700 1575 
L 1850 1575 
Q 2500 825 3300 500 
z
M 3550 4075 
L 2825 4075 
L 2825 2375 
L 2325 2375 
L 2325 4075 
L 525 4075 
L 525 4550 
L 2975 4550 
L 2750 5025 
L 3250 5175 
L 3525 4550 
L 5925 4550 
L 5925 4075 
L 4050 4075 
L 4050 2375 
L 3550 2375 
L 3550 4075 
z
M 1425 3750 
L 1875 3525 
Q 1425 2675 900 2225 
L 500 2575 
Q 1075 3100 1425 3750 
z
M 4800 3750 
Q 5500 3175 5950 2500 
L 5475 2225 
Q 5075 2875 4375 3475 
L 4800 3750 
z
" transform="scale(0.015625)"/>
      <path id="DroidSansFallback-66f4" d="M 525 4975 
L 5875 4975 
L 5875 4500 
L 3425 4500 
L 3425 3975 
L 5450 3975 
L 5450 1575 
L 3400 1575 
Q 3325 925 3050 525 
Q 4175 0 6025 -75 
L 5875 -600 
Q 3950 -550 2675 125 
Q 1975 -425 525 -625 
L 325 -150 
Q 1600 0 2200 400 
Q 1700 725 1350 1150 
L 1750 1400 
Q 2125 1025 2575 750 
Q 2825 1075 2900 1575 
L 925 1575 
L 925 3975 
L 2925 3975 
L 2925 4500 
L 525 4500 
L 525 4975 
z
M 1425 2975 
L 2925 2975 
L 2925 3525 
L 1425 3525 
L 1425 2975 
z
M 3425 3525 
L 3425 2975 
L 4950 2975 
L 4950 3525 
L 3425 3525 
z
M 1425 2025 
L 2925 2025 
L 2925 2575 
L 1425 2575 
L 1425 2025 
z
M 3425 2575 
L 3425 2025 
L 4950 2025 
L 4950 2575 
L 3425 2575 
z
" transform="scale(0.015625)"/>
     </defs>
     <use xlink:href="#DroidSansFallback-4ee3"/>
     <use xlink:href="#DroidSansFallback-7801" transform="translate(100 0)"/>
     <use xlink:href="#DroidSansFallback-53d8" transform="translate(200 0)"/>
     <use xlink:href="#DroidSansFallback-66f4" transform="translate(300 0)"/>
    </g>
   </g>
   <g id="text_11">
    <!-- 34,992 -->
    <g style="fill: #172026" transform="translate(815.33019 132.804839) scale(0.31 -0.31)">
     <defs>
      <path id="DejaVuSans-Bold-33" d="M 2981 2516 
Q 3453 2394 3698 2092 
Q 3944 1791 3944 1325 
Q 3944 631 3412 270 
Q 2881 -91 1863 -91 
Q 1503 -91 1142 -33 
Q 781 25 428 141 
L 428 1069 
Q 766 900 1098 814 
Q 1431 728 1753 728 
Q 2231 728 2486 893 
Q 2741 1059 2741 1369 
Q 2741 1688 2480 1852 
Q 2219 2016 1709 2016 
L 1228 2016 
L 1228 2791 
L 1734 2791 
Q 2188 2791 2409 2933 
Q 2631 3075 2631 3366 
Q 2631 3634 2415 3781 
Q 2200 3928 1806 3928 
Q 1516 3928 1219 3862 
Q 922 3797 628 3669 
L 628 4550 
Q 984 4650 1334 4700 
Q 1684 4750 2022 4750 
Q 2931 4750 3382 4451 
Q 3834 4153 3834 3553 
Q 3834 3144 3618 2883 
Q 3403 2622 2981 2516 
z
" transform="scale(0.015625)"/>
      <path id="DejaVuSans-Bold-34" d="M 2356 3675 
L 1038 1722 
L 2356 1722 
L 2356 3675 
z
M 2156 4666 
L 3494 4666 
L 3494 1722 
L 4159 1722 
L 4159 850 
L 3494 850 
L 3494 0 
L 2356 0 
L 2356 850 
L 288 850 
L 288 1881 
L 2156 4666 
z
" transform="scale(0.015625)"/>
      <path id="DejaVuSans-Bold-2c" d="M 653 1209 
L 1778 1209 
L 1778 256 
L 1006 -909 
L 341 -909 
L 653 256 
L 653 1209 
z
" transform="scale(0.015625)"/>
      <path id="DejaVuSans-Bold-39" d="M 641 103 
L 641 966 
Q 928 831 1190 764 
Q 1453 697 1709 697 
Q 2247 697 2547 995 
Q 2847 1294 2900 1881 
Q 2688 1725 2447 1647 
Q 2206 1569 1925 1569 
Q 1209 1569 770 1986 
Q 331 2403 331 3084 
Q 331 3838 820 4291 
Q 1309 4744 2131 4744 
Q 3044 4744 3544 4128 
Q 4044 3513 4044 2388 
Q 4044 1231 3459 570 
Q 2875 -91 1856 -91 
Q 1528 -91 1228 -42 
Q 928 6 641 103 
z
M 2125 2350 
Q 2441 2350 2600 2554 
Q 2759 2759 2759 3169 
Q 2759 3575 2600 3781 
Q 2441 3988 2125 3988 
Q 1809 3988 1650 3781 
Q 1491 3575 1491 3169 
Q 1491 2759 1650 2554 
Q 1809 2350 2125 2350 
z
" transform="scale(0.015625)"/>
     </defs>
     <use xlink:href="#DejaVuSans-Bold-33"/>
     <use xlink:href="#DejaVuSans-Bold-34" transform="translate(69.580078 0)"/>
     <use xlink:href="#DejaVuSans-Bold-2c" transform="translate(139.160156 0)"/>
     <use xlink:href="#DejaVuSans-Bold-39" transform="translate(177.148438 0)"/>
     <use xlink:href="#DejaVuSans-Bold-39" transform="translate(246.728516 0)"/>
     <use xlink:href="#DejaVuSans-Bold-32" transform="translate(316.308594 0)"/>
    </g>
   </g>
   <g id="text_12">
    <!-- additions + deletions -->
    <g style="fill: #63707a" transform="translate(815.33019 151.495072) scale(0.11 -0.11)">
     <defs>
      <path id="DejaVuSans-6e" d="M 3513 2113 
L 3513 0 
L 2938 0 
L 2938 2094 
Q 2938 2591 2744 2837 
Q 2550 3084 2163 3084 
Q 1697 3084 1428 2787 
Q 1159 2491 1159 1978 
L 1159 0 
L 581 0 
L 581 3500 
L 1159 3500 
L 1159 2956 
Q 1366 3272 1645 3428 
Q 1925 3584 2291 3584 
Q 2894 3584 3203 3211 
Q 3513 2838 3513 2113 
z
" transform="scale(0.015625)"/>
      <path id="DejaVuSans-2b" d="M 2944 4013 
L 2944 2272 
L 4684 2272 
L 4684 1741 
L 2944 1741 
L 2944 0 
L 2419 0 
L 2419 1741 
L 678 1741 
L 678 2272 
L 2419 2272 
L 2419 4013 
L 2944 4013 
z
" transform="scale(0.015625)"/>
     </defs>
     <use xlink:href="#DejaVuSans-61"/>
     <use xlink:href="#DejaVuSans-64" transform="translate(61.279297 0)"/>
     <use xlink:href="#DejaVuSans-64" transform="translate(124.755859 0)"/>
     <use xlink:href="#DejaVuSans-69" transform="translate(188.232422 0)"/>
     <use xlink:href="#DejaVuSans-74" transform="translate(216.015625 0)"/>
     <use xlink:href="#DejaVuSans-69" transform="translate(255.224609 0)"/>
     <use xlink:href="#DejaVuSans-6f" transform="translate(283.007812 0)"/>
     <use xlink:href="#DejaVuSans-6e" transform="translate(344.189453 0)"/>
     <use xlink:href="#DejaVuSans-73" transform="translate(407.568359 0)"/>
     <use xlink:href="#DejaVuSans-20" transform="translate(459.667969 0)"/>
     <use xlink:href="#DejaVuSans-2b" transform="translate(491.455078 0)"/>
     <use xlink:href="#DejaVuSans-20" transform="translate(575.244141 0)"/>
     <use xlink:href="#DejaVuSans-64" transform="translate(607.03125 0)"/>
     <use xlink:href="#DejaVuSans-65" transform="translate(670.507812 0)"/>
     <use xlink:href="#DejaVuSans-6c" transform="translate(732.03125 0)"/>
     <use xlink:href="#DejaVuSans-65" transform="translate(759.814453 0)"/>
     <use xlink:href="#DejaVuSans-74" transform="translate(821.337891 0)"/>
     <use xlink:href="#DejaVuSans-69" transform="translate(860.546875 0)"/>
     <use xlink:href="#DejaVuSans-6f" transform="translate(888.330078 0)"/>
     <use xlink:href="#DejaVuSans-6e" transform="translate(949.511719 0)"/>
     <use xlink:href="#DejaVuSans-73" transform="translate(1012.890625 0)"/>
    </g>
   </g>
  </g>
  <g id="axes_5">
   <g id="patch_6">
    <path d="M 82.08 564.48 
L 492.835894 564.48 
L 492.835894 231.932297 
L 82.08 231.932297 
z
" style="fill: #ffffff"/>
   </g>
   <g id="matplotlib.axis_9">
    <g id="xtick_1">
     <g id="line2d_1">
      <defs>
       <path id="m0e53f27d53" d="M 0 0 
L 0 3.5 
" style="stroke: #63707a; stroke-width: 0.8"/>
      </defs>
      <g>
       <use xlink:href="#m0e53f27d53" x="100.750722" y="564.48" style="fill: #63707a; stroke: #63707a; stroke-width: 0.8"/>
      </g>
     </g>
     <g id="text_13">
      <!-- 2026-01 -->
      <g style="fill: #63707a" transform="translate(79.859316 579.078437) scale(0.1 -0.1)">
       <defs>
        <path id="DejaVuSans-30" d="M 2034 4250 
Q 1547 4250 1301 3770 
Q 1056 3291 1056 2328 
Q 1056 1369 1301 889 
Q 1547 409 2034 409 
Q 2525 409 2770 889 
Q 3016 1369 3016 2328 
Q 3016 3291 2770 3770 
Q 2525 4250 2034 4250 
z
M 2034 4750 
Q 2819 4750 3233 4129 
Q 3647 3509 3647 2328 
Q 3647 1150 3233 529 
Q 2819 -91 2034 -91 
Q 1250 -91 836 529 
Q 422 1150 422 2328 
Q 422 3509 836 4129 
Q 1250 4750 2034 4750 
z
" transform="scale(0.015625)"/>
        <path id="DejaVuSans-36" d="M 2113 2584 
Q 1688 2584 1439 2293 
Q 1191 2003 1191 1497 
Q 1191 994 1439 701 
Q 1688 409 2113 409 
Q 2538 409 2786 701 
Q 3034 994 3034 1497 
Q 3034 2003 2786 2293 
Q 2538 2584 2113 2584 
z
M 3366 4563 
L 3366 3988 
Q 3128 4100 2886 4159 
Q 2644 4219 2406 4219 
Q 1781 4219 1451 3797 
Q 1122 3375 1075 2522 
Q 1259 2794 1537 2939 
Q 1816 3084 2150 3084 
Q 2853 3084 3261 2657 
Q 3669 2231 3669 1497 
Q 3669 778 3244 343 
Q 2819 -91 2113 -91 
Q 1303 -91 875 529 
Q 447 1150 447 2328 
Q 447 3434 972 4092 
Q 1497 4750 2381 4750 
Q 2619 4750 2861 4703 
Q 3103 4656 3366 4563 
z
" transform="scale(0.015625)"/>
        <path id="DejaVuSans-2d" d="M 313 2009 
L 1997 2009 
L 1997 1497 
L 313 1497 
L 313 2009 
z
" transform="scale(0.015625)"/>
       </defs>
       <use xlink:href="#DejaVuSans-32"/>
       <use xlink:href="#DejaVuSans-30" transform="translate(63.623047 0)"/>
       <use xlink:href="#DejaVuSans-32" transform="translate(127.246094 0)"/>
       <use xlink:href="#DejaVuSans-36" transform="translate(190.869141 0)"/>
       <use xlink:href="#DejaVuSans-2d" transform="translate(254.492188 0)"/>
       <use xlink:href="#DejaVuSans-30" transform="translate(290.576172 0)"/>
       <use xlink:href="#DejaVuSans-31" transform="translate(354.199219 0)"/>
      </g>
     </g>
    </g>
    <g id="xtick_2">
     <g id="line2d_2">
      <g>
       <use xlink:href="#m0e53f27d53" x="194.104335" y="564.48" style="fill: #63707a; stroke: #63707a; stroke-width: 0.8"/>
      </g>
     </g>
     <g id="text_14">
      <!-- 2026-02 -->
      <g style="fill: #63707a" transform="translate(173.212928 579.078437) scale(0.1 -0.1)">
       <use xlink:href="#DejaVuSans-32"/>
       <use xlink:href="#DejaVuSans-30" transform="translate(63.623047 0)"/>
       <use xlink:href="#DejaVuSans-32" transform="translate(127.246094 0)"/>
       <use xlink:href="#DejaVuSans-36" transform="translate(190.869141 0)"/>
       <use xlink:href="#DejaVuSans-2d" transform="translate(254.492188 0)"/>
       <use xlink:href="#DejaVuSans-30" transform="translate(290.576172 0)"/>
       <use xlink:href="#DejaVuSans-32" transform="translate(354.199219 0)"/>
      </g>
     </g>
    </g>
    <g id="xtick_3">
     <g id="line2d_3">
      <g>
       <use xlink:href="#m0e53f27d53" x="287.457947" y="564.48" style="fill: #63707a; stroke: #63707a; stroke-width: 0.8"/>
      </g>
     </g>
     <g id="text_15">
      <!-- 2026-03 -->
      <g style="fill: #63707a" transform="translate(266.566541 579.078437) scale(0.1 -0.1)">
       <defs>
        <path id="DejaVuSans-33" d="M 2597 2516 
Q 3050 2419 3304 2112 
Q 3559 1806 3559 1356 
Q 3559 666 3084 287 
Q 2609 -91 1734 -91 
Q 1441 -91 1130 -33 
Q 819 25 488 141 
L 488 750 
Q 750 597 1062 519 
Q 1375 441 1716 441 
Q 2309 441 2620 675 
Q 2931 909 2931 1356 
Q 2931 1769 2642 2001 
Q 2353 2234 1838 2234 
L 1294 2234 
L 1294 2753 
L 1863 2753 
Q 2328 2753 2575 2939 
Q 2822 3125 2822 3475 
Q 2822 3834 2567 4026 
Q 2313 4219 1838 4219 
Q 1578 4219 1281 4162 
Q 984 4106 628 3988 
L 628 4550 
Q 988 4650 1302 4700 
Q 1616 4750 1894 4750 
Q 2613 4750 3031 4423 
Q 3450 4097 3450 3541 
Q 3450 3153 3228 2886 
Q 3006 2619 2597 2516 
z
" transform="scale(0.015625)"/>
       </defs>
       <use xlink:href="#DejaVuSans-32"/>
       <use xlink:href="#DejaVuSans-30" transform="translate(63.623047 0)"/>
       <use xlink:href="#DejaVuSans-32" transform="translate(127.246094 0)"/>
       <use xlink:href="#DejaVuSans-36" transform="translate(190.869141 0)"/>
       <use xlink:href="#DejaVuSans-2d" transform="translate(254.492188 0)"/>
       <use xlink:href="#DejaVuSans-30" transform="translate(290.576172 0)"/>
       <use xlink:href="#DejaVuSans-33" transform="translate(354.199219 0)"/>
      </g>
     </g>
    </g>
    <g id="xtick_4">
     <g id="line2d_4">
      <g>
       <use xlink:href="#m0e53f27d53" x="380.811559" y="564.48" style="fill: #63707a; stroke: #63707a; stroke-width: 0.8"/>
      </g>
     </g>
     <g id="text_16">
      <!-- 2026-04 -->
      <g style="fill: #63707a" transform="translate(359.920153 579.078437) scale(0.1 -0.1)">
       <use xlink:href="#DejaVuSans-32"/>
       <use xlink:href="#DejaVuSans-30" transform="translate(63.623047 0)"/>
       <use xlink:href="#DejaVuSans-32" transform="translate(127.246094 0)"/>
       <use xlink:href="#DejaVuSans-36" transform="translate(190.869141 0)"/>
       <use xlink:href="#DejaVuSans-2d" transform="translate(254.492188 0)"/>
       <use xlink:href="#DejaVuSans-30" transform="translate(290.576172 0)"/>
       <use xlink:href="#DejaVuSans-34" transform="translate(354.199219 0)"/>
      </g>
     </g>
    </g>
    <g id="xtick_5">
     <g id="line2d_5">
      <g>
       <use xlink:href="#m0e53f27d53" x="474.165171" y="564.48" style="fill: #63707a; stroke: #63707a; stroke-width: 0.8"/>
      </g>
     </g>
     <g id="text_17">
      <!-- 2026-05 -->
      <g style="fill: #63707a" transform="translate(453.273765 579.078437) scale(0.1 -0.1)">
       <defs>
        <path id="DejaVuSans-35" d="M 691 4666 
L 3169 4666 
L 3169 4134 
L 1269 4134 
L 1269 2991 
Q 1406 3038 1543 3061 
Q 1681 3084 1819 3084 
Q 2600 3084 3056 2656 
Q 3513 2228 3513 1497 
Q 3513 744 3044 326 
Q 2575 -91 1722 -91 
Q 1428 -91 1123 -41 
Q 819 9 494 109 
L 494 744 
Q 775 591 1075 516 
Q 1375 441 1709 441 
Q 2250 441 2565 725 
Q 2881 1009 2881 1497 
Q 2881 1984 2565 2268 
Q 2250 2553 1709 2553 
Q 1456 2553 1204 2497 
Q 953 2441 691 2322 
L 691 4666 
z
" transform="scale(0.015625)"/>
       </defs>
       <use xlink:href="#DejaVuSans-32"/>
       <use xlink:href="#DejaVuSans-30" transform="translate(63.623047 0)"/>
       <use xlink:href="#DejaVuSans-32" transform="translate(127.246094 0)"/>
       <use xlink:href="#DejaVuSans-36" transform="translate(190.869141 0)"/>
       <use xlink:href="#DejaVuSans-2d" transform="translate(254.492188 0)"/>
       <use xlink:href="#DejaVuSans-30" transform="translate(290.576172 0)"/>
       <use xlink:href="#DejaVuSans-35" transform="translate(354.199219 0)"/>
      </g>
     </g>
    </g>
   </g>
   <g id="matplotlib.axis_10">
    <g id="ytick_1">
     <g id="line2d_6">
      <path d="M 82.08 549.364195 
L 492.835894 549.364195 
" clip-path="url(#p36181633cf)" style="fill: none; stroke: #dce4ea; stroke-opacity: 0.8; stroke-width: 0.8; stroke-linecap: square"/>
     </g>
     <g id="line2d_7">
      <defs>
       <path id="m15e9991017" d="M 0 0 
L -3.5 0 
" style="stroke: #63707a; stroke-width: 0.8"/>
      </defs>
      <g>
       <use xlink:href="#m15e9991017" x="82.08" y="549.364195" style="fill: #63707a; stroke: #63707a; stroke-width: 0.8"/>
      </g>
     </g>
     <g id="text_18">
      <!-- 0 -->
      <g style="fill: #63707a" transform="translate(68.7175 553.163414) scale(0.1 -0.1)">
       <use xlink:href="#DejaVuSans-30"/>
      </g>
     </g>
    </g>
    <g id="ytick_2">
     <g id="line2d_8">
      <path d="M 82.08 509.585762 
L 492.835894 509.585762 
" clip-path="url(#p36181633cf)" style="fill: none; stroke: #dce4ea; stroke-opacity: 0.8; stroke-width: 0.8; stroke-linecap: square"/>
     </g>
     <g id="line2d_9">
      <g>
       <use xlink:href="#m15e9991017" x="82.08" y="509.585762" style="fill: #63707a; stroke: #63707a; stroke-width: 0.8"/>
      </g>
     </g>
     <g id="text_19">
      <!-- 10 -->
      <g style="fill: #63707a" transform="translate(62.355 513.384981) scale(0.1 -0.1)">
       <use xlink:href="#DejaVuSans-31"/>
       <use xlink:href="#DejaVuSans-30" transform="translate(63.623047 0)"/>
      </g>
     </g>
    </g>
    <g id="ytick_3">
     <g id="line2d_10">
      <path d="M 82.08 469.807329 
L 492.835894 469.807329 
" clip-path="url(#p36181633cf)" style="fill: none; stroke: #dce4ea; stroke-opacity: 0.8; stroke-width: 0.8; stroke-linecap: square"/>
     </g>
     <g id="line2d_11">
      <g>
       <use xlink:href="#m15e9991017" x="82.08" y="469.807329" style="fill: #63707a; stroke: #63707a; stroke-width: 0.8"/>
      </g>
     </g>
     <g id="text_20">
      <!-- 20 -->
      <g style="fill: #63707a" transform="translate(62.355 473.606547) scale(0.1 -0.1)">
       <use xlink:href="#DejaVuSans-32"/>
       <use xlink:href="#DejaVuSans-30" transform="translate(63.623047 0)"/>
      </g>
     </g>
    </g>
    <g id="ytick_4">
     <g id="line2d_12">
      <path d="M 82.08 430.028895 
L 492.835894 430.028895 
" clip-path="url(#p36181633cf)" style="fill: none; stroke: #dce4ea; stroke-opacity: 0.8; stroke-width: 0.8; stroke-linecap: square"/>
     </g>
     <g id="line2d_13">
      <g>
       <use xlink:href="#m15e9991017" x="82.08" y="430.028895" style="fill: #63707a; stroke: #63707a; stroke-width: 0.8"/>
      </g>
     </g>
     <g id="text_21">
      <!-- 30 -->
      <g style="fill: #63707a" transform="translate(62.355 433.828114) scale(0.1 -0.1)">
       <use xlink:href="#DejaVuSans-33"/>
       <use xlink:href="#DejaVuSans-30" transform="translate(63.623047 0)"/>
      </g>
     </g>
    </g>
    <g id="ytick_5">
     <g id="line2d_14">
      <path d="M 82.08 390.250462 
L 492.835894 390.250462 
" clip-path="url(#p36181633cf)" style="fill: none; stroke: #dce4ea; stroke-opacity: 0.8; stroke-width: 0.8; stroke-linecap: square"/>
     </g>
     <g id="line2d_15">
      <g>
       <use xlink:href="#m15e9991017" x="82.08" y="390.250462" style="fill: #63707a; stroke: #63707a; stroke-width: 0.8"/>
      </g>
     </g>
     <g id="text_22">
      <!-- 40 -->
      <g style="fill: #63707a" transform="translate(62.355 394.049681) scale(0.1 -0.1)">
       <use xlink:href="#DejaVuSans-34"/>
       <use xlink:href="#DejaVuSans-30" transform="translate(63.623047 0)"/>
      </g>
     </g>
    </g>
    <g id="ytick_6">
     <g id="line2d_16">
      <path d="M 82.08 350.472029 
L 492.835894 350.472029 
" clip-path="url(#p36181633cf)" style="fill: none; stroke: #dce4ea; stroke-opacity: 0.8; stroke-width: 0.8; stroke-linecap: square"/>
     </g>
     <g id="line2d_17">
      <g>
       <use xlink:href="#m15e9991017" x="82.08" y="350.472029" style="fill: #63707a; stroke: #63707a; stroke-width: 0.8"/>
      </g>
     </g>
     <g id="text_23">
      <!-- 50 -->
      <g style="fill: #63707a" transform="translate(62.355 354.271247) scale(0.1 -0.1)">
       <use xlink:href="#DejaVuSans-35"/>
       <use xlink:href="#DejaVuSans-30" transform="translate(63.623047 0)"/>
      </g>
     </g>
    </g>
    <g id="ytick_7">
     <g id="line2d_18">
      <path d="M 82.08 310.693595 
L 492.835894 310.693595 
" clip-path="url(#p36181633cf)" style="fill: none; stroke: #dce4ea; stroke-opacity: 0.8; stroke-width: 0.8; stroke-linecap: square"/>
     </g>
     <g id="line2d_19">
      <g>
       <use xlink:href="#m15e9991017" x="82.08" y="310.693595" style="fill: #63707a; stroke: #63707a; stroke-width: 0.8"/>
      </g>
     </g>
     <g id="text_24">
      <!-- 60 -->
      <g style="fill: #63707a" transform="translate(62.355 314.492814) scale(0.1 -0.1)">
       <use xlink:href="#DejaVuSans-36"/>
       <use xlink:href="#DejaVuSans-30" transform="translate(63.623047 0)"/>
      </g>
     </g>
    </g>
    <g id="ytick_8">
     <g id="line2d_20">
      <path d="M 82.08 270.915162 
L 492.835894 270.915162 
" clip-path="url(#p36181633cf)" style="fill: none; stroke: #dce4ea; stroke-opacity: 0.8; stroke-width: 0.8; stroke-linecap: square"/>
     </g>
     <g id="line2d_21">
      <g>
       <use xlink:href="#m15e9991017" x="82.08" y="270.915162" style="fill: #63707a; stroke: #63707a; stroke-width: 0.8"/>
      </g>
     </g>
     <g id="text_25">
      <!-- 70 -->
      <g style="fill: #63707a" transform="translate(62.355 274.714381) scale(0.1 -0.1)">
       <defs>
        <path id="DejaVuSans-37" d="M 525 4666 
L 3525 4666 
L 3525 4397 
L 1831 0 
L 1172 0 
L 2766 4134 
L 525 4134 
L 525 4666 
z
" transform="scale(0.015625)"/>
       </defs>
       <use xlink:href="#DejaVuSans-37"/>
       <use xlink:href="#DejaVuSans-30" transform="translate(63.623047 0)"/>
      </g>
     </g>
    </g>
    <g id="text_26">
     <!-- Commits -->
     <g style="fill: #63707a" transform="translate(56.275312 420.451461) rotate(-90) scale(0.1 -0.1)">
      <defs>
       <path id="DejaVuSans-43" d="M 4122 4306 
L 4122 3641 
Q 3803 3938 3442 4084 
Q 3081 4231 2675 4231 
Q 1875 4231 1450 3742 
Q 1025 3253 1025 2328 
Q 1025 1406 1450 917 
Q 1875 428 2675 428 
Q 3081 428 3442 575 
Q 3803 722 4122 1019 
L 4122 359 
Q 3791 134 3420 21 
Q 3050 -91 2638 -91 
Q 1578 -91 968 557 
Q 359 1206 359 2328 
Q 359 3453 968 4101 
Q 1578 4750 2638 4750 
Q 3056 4750 3426 4639 
Q 3797 4528 4122 4306 
z
" transform="scale(0.015625)"/>
      </defs>
      <use xlink:href="#DejaVuSans-43"/>
      <use xlink:href="#DejaVuSans-6f" transform="translate(69.824219 0)"/>
      <use xlink:href="#DejaVuSans-6d" transform="translate(131.005859 0)"/>
      <use xlink:href="#DejaVuSans-6d" transform="translate(228.417969 0)"/>
      <use xlink:href="#DejaVuSans-69" transform="translate(325.830078 0)"/>
      <use xlink:href="#DejaVuSans-74" transform="translate(353.613281 0)"/>
      <use xlink:href="#DejaVuSans-73" transform="translate(392.822266 0)"/>
     </g>
    </g>
   </g>
   <g id="FillBetweenPolyCollection_1">
    <defs>
     <path id="m4352608a84" d="M 100.750722 -38.99393 
L 100.750722 -46.949616 
L 194.104335 -62.86099 
L 287.457947 -257.775313 
L 380.811559 -329.376493 
L 474.165171 -341.310023 
L 474.165171 -38.99393 
L 474.165171 -38.99393 
L 380.811559 -38.99393 
L 287.457947 -38.99393 
L 194.104335 -38.99393 
L 100.750722 -38.99393 
z
" style="stroke: #2f6fed; stroke-opacity: 0.16"/>
    </defs>
    <g clip-path="url(#p36181633cf)">
     <use xlink:href="#m4352608a84" x="0" y="588.358125" style="fill: #2f6fed; fill-opacity: 0.16; stroke: #2f6fed; stroke-opacity: 0.16"/>
    </g>
   </g>
   <g id="line2d_22">
    <path d="M 100.750722 541.408509 
L 194.104335 525.497135 
L 287.457947 330.582812 
L 380.811559 258.981632 
L 474.165171 247.048102 
" clip-path="url(#p36181633cf)" style="fill: none; stroke: #2f6fed; stroke-width: 3; stroke-linecap: square"/>
    <defs>
     <path id="mc14634bf6e" d="M 0 4 
C 1.060812 4 2.078319 3.578535 2.828427 2.828427 
C 3.578535 2.078319 4 1.060812 4 0 
C 4 -1.060812 3.578535 -2.078319 2.828427 -2.828427 
C 2.078319 -3.578535 1.060812 -4 0 -4 
C -1.060812 -4 -2.078319 -3.578535 -2.828427 -2.828427 
C -3.578535 -2.078319 -4 -1.060812 -4 0 
C -4 1.060812 -3.578535 2.078319 -2.828427 2.828427 
C -2.078319 3.578535 -1.060812 4 0 4 
z
" style="stroke: #2f6fed"/>
    </defs>
    <g clip-path="url(#p36181633cf)">
     <use xlink:href="#mc14634bf6e" x="100.750722" y="541.408509" style="fill: #2f6fed; stroke: #2f6fed"/>
     <use xlink:href="#mc14634bf6e" x="194.104335" y="525.497135" style="fill: #2f6fed; stroke: #2f6fed"/>
     <use xlink:href="#mc14634bf6e" x="287.457947" y="330.582812" style="fill: #2f6fed; stroke: #2f6fed"/>
     <use xlink:href="#mc14634bf6e" x="380.811559" y="258.981632" style="fill: #2f6fed; stroke: #2f6fed"/>
     <use xlink:href="#mc14634bf6e" x="474.165171" y="247.048102" style="fill: #2f6fed; stroke: #2f6fed"/>
    </g>
   </g>
   <g id="patch_7">
    <path d="M 82.08 564.48 
L 492.835894 564.48 
" style="fill: none; stroke: #dce4ea; stroke-width: 0.8; stroke-linejoin: miter; stroke-linecap: square"/>
   </g>
   <g id="text_27">
    <!-- 2 -->
    <g style="fill: #172026" transform="translate(97.251347 533.408509) scale(0.11 -0.11)">
     <use xlink:href="#DejaVuSans-32"/>
    </g>
   </g>
   <g id="text_28">
    <!-- 6 -->
    <g style="fill: #172026" transform="translate(190.60496 517.497135) scale(0.11 -0.11)">
     <use xlink:href="#DejaVuSans-36"/>
    </g>
   </g>
   <g id="text_29">
    <!-- 55 -->
    <g style="fill: #172026" transform="translate(280.459197 322.582812) scale(0.11 -0.11)">
     <use xlink:href="#DejaVuSans-35"/>
     <use xlink:href="#DejaVuSans-35" transform="translate(63.623047 0)"/>
    </g>
   </g>
   <g id="text_30">
    <!-- 73 -->
    <g style="fill: #172026" transform="translate(373.812809 250.981632) scale(0.11 -0.11)">
     <use xlink:href="#DejaVuSans-37"/>
     <use xlink:href="#DejaVuSans-33" transform="translate(63.623047 0)"/>
    </g>
   </g>
   <g id="text_31">
    <!-- 76 -->
    <g style="fill: #172026" transform="translate(467.166421 239.048102) scale(0.11 -0.11)">
     <use xlink:href="#DejaVuSans-37"/>
     <use xlink:href="#DejaVuSans-36" transform="translate(63.623047 0)"/>
    </g>
   </g>
   <g id="text_32">
    <!-- 主线提交累计趋势 -->
    <g style="fill: #172026" transform="translate(82.08 225.932297) scale(0.16 -0.16)">
     <defs>
      <path id="DroidSansFallback-7d2f" d="M 950 5025 
L 5525 5025 
L 5525 2825 
L 950 2825 
L 950 5025 
z
M 1450 4150 
L 2975 4150 
L 2975 4575 
L 1450 4575 
L 1450 4150 
z
M 3475 4575 
L 3475 4150 
L 5050 4150 
L 5050 4575 
L 3475 4575 
z
M 1450 3300 
L 2975 3300 
L 2975 3700 
L 1450 3700 
L 1450 3300 
z
M 3475 3700 
L 3475 3300 
L 5050 3300 
L 5050 3700 
L 3475 3700 
z
M 2400 2175 
L 3400 2225 
L 4125 2675 
L 4525 2400 
Q 3225 1525 1850 1175 
Q 3750 1225 4775 1375 
L 4300 1775 
L 4700 2050 
L 5875 1000 
L 5450 675 
L 5150 1000 
L 3525 875 
L 3525 0 
Q 3525 -350 3400 -487 
Q 3275 -625 2825 -625 
L 2425 -600 
L 2350 -100 
L 2825 -150 
Q 3000 -150 3000 75 
L 3000 850 
L 850 775 
L 775 1250 
Q 1725 1475 2650 1875 
L 1200 1800 
L 1125 2150 
Q 1800 2350 2225 2725 
L 2700 2575 
L 2075 2175 
L 2400 2175 
z
M 4250 675 
Q 5075 425 5875 -125 
L 5600 -550 
Q 4800 25 3975 300 
L 4250 675 
z
M 1925 575 
L 2225 250 
Q 1650 -200 550 -550 
L 350 -100 
Q 1325 150 1925 575 
z
" transform="scale(0.015625)"/>
      <path id="DroidSansFallback-8ba1" d="M 1275 5175 
Q 1700 4675 1975 4125 
L 1500 3850 
Q 1250 4400 825 4900 
L 1275 5175 
z
M 325 3325 
L 1675 3325 
L 1675 425 
L 2200 1000 
L 2525 700 
Q 2175 225 1575 -250 
L 1200 75 
L 1200 2875 
L 325 2875 
L 325 3325 
z
M 2050 3225 
L 3825 3225 
L 3825 5175 
L 4325 5175 
L 4325 3225 
L 6075 3225 
L 6075 2750 
L 4325 2750 
L 4325 -625 
L 3825 -625 
L 3825 2750 
L 2050 2750 
L 2050 3225 
z
" transform="scale(0.015625)"/>
      <path id="DroidSansFallback-8d8b" d="M 650 4400 
L 1475 4400 
L 1475 5175 
L 1975 5175 
L 1975 4400 
L 2800 4400 
L 2800 3950 
L 1975 3950 
L 1975 3150 
L 2975 3150 
L 2975 2700 
L 2125 2700 
L 2125 1825 
L 2825 1825 
L 2825 1375 
L 2125 1375 
L 2125 250 
Q 2600 0 6100 0 
L 5950 -500 
L 4750 -500 
Q 2850 -500 2162 -275 
Q 1475 -50 1025 500 
Q 875 -175 650 -625 
L 225 -225 
Q 675 675 875 2300 
L 1325 2225 
L 1150 1075 
L 1650 550 
L 1650 2700 
L 475 2700 
L 475 3150 
L 1475 3150 
L 1475 3950 
L 650 3950 
L 650 4400 
z
M 3950 5200 
L 4400 5075 
L 4150 4600 
L 5475 4600 
L 5475 4175 
L 5050 3500 
L 5700 3500 
L 5700 700 
L 3275 700 
L 3275 1150 
L 5225 1150 
L 5225 1900 
L 3450 1900 
L 3450 2350 
L 5225 2350 
L 5225 3050 
L 3375 3050 
L 3375 3500 
L 4450 3500 
L 4925 4150 
L 3850 4150 
Q 3525 3725 3100 3400 
L 2725 3700 
Q 3550 4350 3950 5200 
z
" transform="scale(0.015625)"/>
      <path id="DroidSansFallback-52bf" d="M 3700 5175 
L 4200 5175 
L 4200 4475 
L 5325 4475 
L 5325 3075 
Q 5325 2325 5450 2325 
Q 5600 2325 5700 2850 
L 6125 2750 
Q 6000 1800 5450 1800 
Q 5150 1800 5000 2100 
Q 4850 2400 4825 3325 
L 4825 4000 
L 4175 4000 
Q 4125 3425 3925 3000 
L 4500 2475 
L 4150 2100 
L 3650 2600 
Q 3325 2200 2725 1925 
L 2375 2275 
Q 2950 2525 3275 2925 
L 2825 3250 
L 3100 3600 
L 3500 3325 
L 3675 4000 
L 2950 4000 
L 2950 4475 
L 3700 4475 
L 3700 5175 
z
M 625 1475 
L 2550 1475 
L 2575 1875 
L 3075 1875 
L 3050 1475 
L 5450 1475 
Q 5450 75 5262 -237 
Q 5075 -550 4250 -550 
L 3475 -500 
L 3350 0 
L 4250 -50 
Q 4700 -50 4775 75 
Q 4850 200 4887 412 
Q 4925 625 4925 1000 
L 2975 1000 
Q 2825 400 2400 100 
Q 1825 -325 675 -625 
L 400 -175 
Q 2200 225 2425 1000 
L 625 1000 
L 625 1475 
z
M 450 4475 
L 1375 4475 
L 1375 5150 
L 1875 5150 
L 1875 4475 
L 2700 4475 
L 2700 4000 
L 1875 4000 
L 1875 3400 
L 2625 3575 
L 2700 3175 
L 1875 2975 
Q 1875 2075 1750 1925 
Q 1625 1775 1250 1775 
Q 950 1775 675 1900 
L 575 2350 
Q 875 2225 1175 2225 
Q 1375 2225 1375 2500 
L 1375 2850 
L 575 2700 
L 425 3150 
L 1375 3325 
L 1375 4000 
L 450 4000 
L 450 4475 
z
" transform="scale(0.015625)"/>
     </defs>
     <use xlink:href="#DroidSansFallback-4e3b"/>
     <use xlink:href="#DroidSansFallback-7ebf" transform="translate(100 0)"/>
     <use xlink:href="#DroidSansFallback-63d0" transform="translate(200 0)"/>
     <use xlink:href="#DroidSansFallback-4ea4" transform="translate(300 0)"/>
     <use xlink:href="#DroidSansFallback-7d2f" transform="translate(400 0)"/>
     <use xlink:href="#DroidSansFallback-8ba1" transform="translate(500 0)"/>
     <use xlink:href="#DroidSansFallback-8d8b" transform="translate(600 0)"/>
     <use xlink:href="#DroidSansFallback-52bf" transform="translate(700 0)"/>
    </g>
   </g>
  </g>
  <g id="axes_6">
   <g id="patch_8">
    <path d="M 873.081807 314.747704 
C 860.615177 299.275446 844.838747 286.79131 826.915067 278.215222 
C 808.991387 269.639134 789.371811 265.187068 769.502047 265.187068 
L 769.502053 398.206149 
z
" style="fill: #00a896; stroke: #ffffff; stroke-width: 2; stroke-linejoin: miter"/>
   </g>
   <g id="patch_9">
    <path d="M 769.502055 265.187068 
C 754.528162 265.187068 739.661222 267.715468 725.529169 272.665471 
C 711.397114 277.615474 698.201771 284.916413 686.500587 294.25985 
C 674.799403 303.603288 664.759474 314.855778 656.80485 327.542045 
C 648.850226 340.228312 643.094523 354.167192 639.780894 368.76984 
C 636.467258 383.372487 635.643021 398.430355 637.342959 413.30744 
C 639.042904 428.184523 643.242771 442.668336 649.765149 456.147062 
C 656.287528 469.625788 665.039281 481.906929 675.650708 492.471729 
C 686.262136 503.036529 698.581715 511.734114 712.089031 518.197068 
C 725.596351 524.660021 740.098515 528.796063 754.982943 530.430471 
C 769.86737 532.06488 784.921492 531.17432 799.509404 527.796407 
C 814.097317 524.418494 828.010691 518.601472 840.661802 510.591054 
C 853.312914 502.580637 864.521076 492.491241 873.812891 480.749019 
C 883.104705 469.006798 890.347456 455.779435 895.235173 441.625719 
C 900.122889 427.472003 902.585784 412.594073 902.519842 397.620326 
C 902.453892 382.646578 899.860034 367.790856 894.847831 353.680743 
C 889.835628 339.570631 882.476685 326.407628 873.081807 314.747704 
L 769.502053 398.206149 
z
" style="fill: #e6edf3; stroke: #ffffff; stroke-width: 2; stroke-linejoin: miter"/>
   </g>
   <g id="matplotlib.axis_11"/>
   <g id="matplotlib.axis_12"/>
   <g id="text_33">
    <!-- superAngGao -->
    <g style="fill: #172026" transform="translate(832.656384 269.803328) scale(0.13 -0.13)">
     <defs>
      <path id="DejaVuSans-75" d="M 544 1381 
L 544 3500 
L 1119 3500 
L 1119 1403 
Q 1119 906 1312 657 
Q 1506 409 1894 409 
Q 2359 409 2629 706 
Q 2900 1003 2900 1516 
L 2900 3500 
L 3475 3500 
L 3475 0 
L 2900 0 
L 2900 538 
Q 2691 219 2414 64 
Q 2138 -91 1772 -91 
Q 1169 -91 856 284 
Q 544 659 544 1381 
z
M 1991 3584 
L 1991 3584 
z
" transform="scale(0.015625)"/>
      <path id="DejaVuSans-70" d="M 1159 525 
L 1159 -1331 
L 581 -1331 
L 581 3500 
L 1159 3500 
L 1159 2969 
Q 1341 3281 1617 3432 
Q 1894 3584 2278 3584 
Q 2916 3584 3314 3078 
Q 3713 2572 3713 1747 
Q 3713 922 3314 415 
Q 2916 -91 2278 -91 
Q 1894 -91 1617 61 
Q 1341 213 1159 525 
z
M 3116 1747 
Q 3116 2381 2855 2742 
Q 2594 3103 2138 3103 
Q 1681 3103 1420 2742 
Q 1159 2381 1159 1747 
Q 1159 1113 1420 752 
Q 1681 391 2138 391 
Q 2594 391 2855 752 
Q 3116 1113 3116 1747 
z
" transform="scale(0.015625)"/>
      <path id="DejaVuSans-41" d="M 2188 4044 
L 1331 1722 
L 3047 1722 
L 2188 4044 
z
M 1831 4666 
L 2547 4666 
L 4325 0 
L 3669 0 
L 3244 1197 
L 1141 1197 
L 716 0 
L 50 0 
L 1831 4666 
z
" transform="scale(0.015625)"/>
      <path id="DejaVuSans-47" d="M 3809 666 
L 3809 1919 
L 2778 1919 
L 2778 2438 
L 4434 2438 
L 4434 434 
Q 4069 175 3628 42 
Q 3188 -91 2688 -91 
Q 1594 -91 976 548 
Q 359 1188 359 2328 
Q 359 3472 976 4111 
Q 1594 4750 2688 4750 
Q 3144 4750 3555 4637 
Q 3966 4525 4313 4306 
L 4313 3634 
Q 3963 3931 3569 4081 
Q 3175 4231 2741 4231 
Q 1884 4231 1454 3753 
Q 1025 3275 1025 2328 
Q 1025 1384 1454 906 
Q 1884 428 2741 428 
Q 3075 428 3337 486 
Q 3600 544 3809 666 
z
" transform="scale(0.015625)"/>
     </defs>
     <use xlink:href="#DejaVuSans-73"/>
     <use xlink:href="#DejaVuSans-75" transform="translate(52.099609 0)"/>
     <use xlink:href="#DejaVuSans-70" transform="translate(115.478516 0)"/>
     <use xlink:href="#DejaVuSans-65" transform="translate(178.955078 0)"/>
     <use xlink:href="#DejaVuSans-72" transform="translate(240.478516 0)"/>
     <use xlink:href="#DejaVuSans-41" transform="translate(281.591797 0)"/>
     <use xlink:href="#DejaVuSans-6e" transform="translate(350 0)"/>
     <use xlink:href="#DejaVuSans-67" transform="translate(413.378906 0)"/>
     <use xlink:href="#DejaVuSans-47" transform="translate(476.855469 0)"/>
     <use xlink:href="#DejaVuSans-61" transform="translate(554.345703 0)"/>
     <use xlink:href="#DejaVuSans-6f" transform="translate(615.625 0)"/>
    </g>
   </g>
   <g id="text_34">
    <!-- 14.2% -->
    <g style="fill: #172026" transform="translate(791.339022 313.000058) scale(0.13 -0.13)">
     <use xlink:href="#DejaVuSans-31"/>
     <use xlink:href="#DejaVuSans-34" transform="translate(63.623047 0)"/>
     <use xlink:href="#DejaVuSans-2e" transform="translate(127.246094 0)"/>
     <use xlink:href="#DejaVuSans-32" transform="translate(159.033203 0)"/>
     <use xlink:href="#DejaVuSans-25" transform="translate(222.65625 0)"/>
    </g>
   </g>
   <g id="text_35">
    <!-- 其他贡献 -->
    <g style="fill: #172026" transform="translate(654.347695 533.783332) scale(0.13 -0.13)">
     <defs>
      <path id="DroidSansFallback-5176" d="M 700 4450 
L 1525 4450 
L 1525 5150 
L 2025 5150 
L 2025 4450 
L 4475 4450 
L 4475 5150 
L 4975 5150 
L 4975 4450 
L 5775 4450 
L 5775 3950 
L 4975 3950 
L 4975 1275 
L 6050 1275 
L 6050 825 
L 325 825 
L 325 1275 
L 1525 1275 
L 1525 3950 
L 700 3950 
L 700 4450 
z
M 2025 3350 
L 4475 3350 
L 4475 3950 
L 2025 3950 
L 2025 3350 
z
M 2025 2275 
L 4475 2275 
L 4475 2925 
L 2025 2925 
L 2025 2275 
z
M 2025 1275 
L 4475 1275 
L 4475 1850 
L 2025 1850 
L 2025 1275 
z
M 2275 650 
L 2625 275 
Q 1950 -225 650 -600 
L 425 -100 
Q 1550 150 2275 650 
z
M 4100 650 
Q 5150 300 5975 -175 
L 5625 -600 
Q 4750 -75 3750 275 
L 4100 650 
z
" transform="scale(0.015625)"/>
      <path id="DroidSansFallback-4ed6" d="M 1500 5175 
L 2000 5025 
L 1475 3650 
L 1475 -575 
L 975 -575 
L 975 2700 
L 500 2050 
L 250 2550 
Q 1100 3800 1500 5175 
z
M 5675 3950 
Q 5675 1775 5537 1412 
Q 5400 1050 5100 1050 
L 4625 1100 
L 4525 1625 
L 4975 1575 
Q 5175 1575 5200 3325 
L 4175 3075 
L 4175 725 
L 3725 725 
L 3725 2950 
L 2825 2725 
L 2825 300 
Q 2825 150 3000 87 
Q 3175 25 4150 25 
L 5025 50 
Q 5325 75 5425 187 
Q 5525 300 5575 850 
L 6050 650 
Q 5925 -200 5675 -300 
Q 5350 -450 3750 -450 
Q 2900 -450 2637 -312 
Q 2375 -175 2375 125 
L 2375 2625 
L 1900 2500 
L 1775 2900 
L 2375 3075 
L 2375 4525 
L 2825 4525 
L 2825 3200 
L 3725 3425 
L 3725 5125 
L 4175 5125 
L 4175 3550 
L 5675 3950 
z
" transform="scale(0.015625)"/>
      <path id="DroidSansFallback-8d21" d="M 975 5000 
L 5425 5000 
L 5425 4550 
L 3475 4550 
L 3475 3775 
L 6075 3775 
L 6075 3325 
L 325 3325 
L 325 3775 
L 2975 3775 
L 2975 4550 
L 975 4550 
L 975 5000 
z
M 5225 2875 
L 5225 600 
L 4725 600 
L 4725 2400 
L 1650 2400 
L 1650 575 
L 1150 575 
L 1150 2875 
L 5225 2875 
z
M 3025 2100 
L 3525 2025 
Q 3350 875 2725 250 
Q 2100 -375 775 -650 
L 525 -175 
Q 1775 50 2337 587 
Q 2900 1125 3025 2100 
z
M 3675 775 
Q 4800 375 5825 -150 
L 5600 -650 
Q 4500 -25 3450 325 
L 3675 775 
z
" transform="scale(0.015625)"/>
      <path id="DroidSansFallback-732e" d="M 3725 3475 
L 4550 3475 
L 4550 5175 
L 5025 5175 
L 5025 3475 
L 5950 3475 
L 5950 3000 
L 5050 3000 
Q 5250 1000 6100 -100 
L 5725 -575 
Q 5150 300 4850 1700 
Q 4550 325 3825 -600 
L 3575 -150 
Q 4450 1125 4550 3000 
L 3725 3000 
L 3725 3475 
z
M 5575 4850 
L 6075 4000 
L 5675 3750 
Q 5500 4200 5200 4600 
L 5575 4850 
z
M 400 4575 
L 1725 4575 
L 1725 5175 
L 2200 5175 
L 2200 4575 
L 3550 4575 
L 3550 4125 
L 2200 4125 
L 2200 3500 
L 3475 3500 
L 3475 50 
Q 3475 -550 2900 -550 
L 2525 -475 
L 2400 0 
L 2875 -75 
Q 3000 -75 3000 175 
L 3000 3075 
L 950 3075 
L 950 -575 
L 475 -575 
L 475 3500 
L 1725 3500 
L 1725 4125 
L 400 4125 
L 400 4575 
z
M 1575 2900 
L 1900 2175 
L 2100 2175 
L 2350 2925 
L 2800 2800 
L 2550 2175 
L 2825 2175 
L 2825 1750 
L 2200 1750 
L 2200 1175 
L 2875 1175 
L 2875 750 
L 2200 750 
L 2200 -250 
L 1750 -250 
L 1750 750 
L 1075 750 
L 1075 1175 
L 1750 1175 
L 1750 1750 
L 1125 1750 
L 1125 2175 
L 1450 2175 
L 1225 2675 
L 1575 2900 
z
" transform="scale(0.015625)"/>
     </defs>
     <use xlink:href="#DroidSansFallback-5176"/>
     <use xlink:href="#DroidSansFallback-4ed6" transform="translate(100 0)"/>
     <use xlink:href="#DroidSansFallback-8d21" transform="translate(200 0)"/>
     <use xlink:href="#DroidSansFallback-732e" transform="translate(300 0)"/>
    </g>
   </g>
   <g id="text_36">
    <!-- 85.8% -->
    <g style="fill: #172026" transform="translate(706.367722 490.586606) scale(0.13 -0.13)">
     <defs>
      <path id="DejaVuSans-38" d="M 2034 2216 
Q 1584 2216 1326 1975 
Q 1069 1734 1069 1313 
Q 1069 891 1326 650 
Q 1584 409 2034 409 
Q 2484 409 2743 651 
Q 3003 894 3003 1313 
Q 3003 1734 2745 1975 
Q 2488 2216 2034 2216 
z
M 1403 2484 
Q 997 2584 770 2862 
Q 544 3141 544 3541 
Q 544 4100 942 4425 
Q 1341 4750 2034 4750 
Q 2731 4750 3128 4425 
Q 3525 4100 3525 3541 
Q 3525 3141 3298 2862 
Q 3072 2584 2669 2484 
Q 3125 2378 3379 2068 
Q 3634 1759 3634 1313 
Q 3634 634 3220 271 
Q 2806 -91 2034 -91 
Q 1263 -91 848 271 
Q 434 634 434 1313 
Q 434 1759 690 2068 
Q 947 2378 1403 2484 
z
M 1172 3481 
Q 1172 3119 1398 2916 
Q 1625 2713 2034 2713 
Q 2441 2713 2670 2916 
Q 2900 3119 2900 3481 
Q 2900 3844 2670 4047 
Q 2441 4250 2034 4250 
Q 1625 4250 1398 4047 
Q 1172 3844 1172 3481 
z
" transform="scale(0.015625)"/>
     </defs>
     <use xlink:href="#DejaVuSans-38"/>
     <use xlink:href="#DejaVuSans-35" transform="translate(63.623047 0)"/>
     <use xlink:href="#DejaVuSans-2e" transform="translate(127.246094 0)"/>
     <use xlink:href="#DejaVuSans-38" transform="translate(159.033203 0)"/>
     <use xlink:href="#DejaVuSans-25" transform="translate(222.65625 0)"/>
    </g>
   </g>
   <g id="text_37">
    <!-- 76 -->
    <g style="fill: #172026" transform="translate(744.453928 398.828563) scale(0.36 -0.36)">
     <use xlink:href="#DejaVuSans-Bold-37"/>
     <use xlink:href="#DejaVuSans-Bold-36" transform="translate(69.580078 0)"/>
    </g>
   </g>
   <g id="text_38">
    <!-- / 535 commits -->
    <g style="fill: #63707a" transform="translate(726.410803 418.809879) scale(0.12 -0.12)">
     <defs>
      <path id="DejaVuSans-2f" d="M 1625 4666 
L 2156 4666 
L 531 -594 
L 0 -594 
L 1625 4666 
z
" transform="scale(0.015625)"/>
     </defs>
     <use xlink:href="#DejaVuSans-2f"/>
     <use xlink:href="#DejaVuSans-20" transform="translate(33.691406 0)"/>
     <use xlink:href="#DejaVuSans-35" transform="translate(65.478516 0)"/>
     <use xlink:href="#DejaVuSans-33" transform="translate(129.101562 0)"/>
     <use xlink:href="#DejaVuSans-35" transform="translate(192.724609 0)"/>
     <use xlink:href="#DejaVuSans-20" transform="translate(256.347656 0)"/>
     <use xlink:href="#DejaVuSans-63" transform="translate(288.134766 0)"/>
     <use xlink:href="#DejaVuSans-6f" transform="translate(343.115234 0)"/>
     <use xlink:href="#DejaVuSans-6d" transform="translate(404.296875 0)"/>
     <use xlink:href="#DejaVuSans-6d" transform="translate(501.708984 0)"/>
     <use xlink:href="#DejaVuSans-69" transform="translate(599.121094 0)"/>
     <use xlink:href="#DejaVuSans-74" transform="translate(626.904297 0)"/>
     <use xlink:href="#DejaVuSans-73" transform="translate(666.113281 0)"/>
    </g>
   </g>
   <g id="text_39">
    <!-- 主线提交贡献占比 -->
    <g style="fill: #172026" transform="translate(603.228202 225.932297) scale(0.16 -0.16)">
     <defs>
      <path id="DroidSansFallback-5360" d="M 2675 5175 
L 3175 5175 
L 3175 4075 
L 5725 4075 
L 5725 3600 
L 3175 3600 
L 3175 2425 
L 5400 2425 
L 5400 -575 
L 4900 -575 
L 4900 -150 
L 1450 -150 
L 1450 -575 
L 950 -575 
L 950 2425 
L 2675 2425 
L 2675 5175 
z
M 1450 325 
L 4900 325 
L 4900 1950 
L 1450 1950 
L 1450 325 
z
" transform="scale(0.015625)"/>
      <path id="DroidSansFallback-6bd4" d="M 825 5100 
L 1350 5100 
L 1350 3325 
L 2900 3325 
L 2900 2825 
L 1350 2825 
L 1350 75 
L 2825 675 
L 2925 150 
L 1075 -575 
L 825 -325 
L 825 5100 
z
M 3400 5100 
L 3925 5100 
L 3925 3225 
Q 4800 3575 5550 4075 
L 5875 3625 
Q 4975 3075 3925 2675 
L 3925 225 
Q 3925 125 4062 75 
Q 4200 25 4950 25 
Q 5325 25 5437 175 
Q 5550 325 5600 925 
L 6075 725 
Q 5975 -100 5775 -300 
Q 5575 -500 4950 -500 
Q 3925 -500 3662 -350 
Q 3400 -200 3400 125 
L 3400 5100 
z
" transform="scale(0.015625)"/>
     </defs>
     <use xlink:href="#DroidSansFallback-4e3b"/>
     <use xlink:href="#DroidSansFallback-7ebf" transform="translate(100 0)"/>
     <use xlink:href="#DroidSansFallback-63d0" transform="translate(200 0)"/>
     <use xlink:href="#DroidSansFallback-4ea4" transform="translate(300 0)"/>
     <use xlink:href="#DroidSansFallback-8d21" transform="translate(400 0)"/>
     <use xlink:href="#DroidSansFallback-732e" transform="translate(500 0)"/>
     <use xlink:href="#DroidSansFallback-5360" transform="translate(600 0)"/>
     <use xlink:href="#DroidSansFallback-6bd4" transform="translate(700 0)"/>
    </g>
   </g>
  </g>
  <g id="text_40">
   <!-- superAngGao / Ang Gao 在 TileOPs 的贡献概览 -->
   <g style="fill: #172026" transform="translate(7.2 29.242969) scale(0.27 -0.27)">
    <defs>
     <path id="DejaVuSans-Bold-73" d="M 3272 3391 
L 3272 2541 
Q 2913 2691 2578 2766 
Q 2244 2841 1947 2841 
Q 1628 2841 1473 2761 
Q 1319 2681 1319 2516 
Q 1319 2381 1436 2309 
Q 1553 2238 1856 2203 
L 2053 2175 
Q 2913 2066 3209 1816 
Q 3506 1566 3506 1031 
Q 3506 472 3093 190 
Q 2681 -91 1863 -91 
Q 1516 -91 1145 -36 
Q 775 19 384 128 
L 384 978 
Q 719 816 1070 734 
Q 1422 653 1784 653 
Q 2113 653 2278 743 
Q 2444 834 2444 1013 
Q 2444 1163 2330 1236 
Q 2216 1309 1875 1350 
L 1678 1375 
Q 931 1469 631 1722 
Q 331 1975 331 2491 
Q 331 3047 712 3315 
Q 1094 3584 1881 3584 
Q 2191 3584 2531 3537 
Q 2872 3491 3272 3391 
z
" transform="scale(0.015625)"/>
     <path id="DejaVuSans-Bold-75" d="M 500 1363 
L 500 3500 
L 1625 3500 
L 1625 3150 
Q 1625 2866 1622 2436 
Q 1619 2006 1619 1863 
Q 1619 1441 1641 1255 
Q 1663 1069 1716 984 
Q 1784 875 1895 815 
Q 2006 756 2150 756 
Q 2500 756 2700 1025 
Q 2900 1294 2900 1772 
L 2900 3500 
L 4019 3500 
L 4019 0 
L 2900 0 
L 2900 506 
Q 2647 200 2364 54 
Q 2081 -91 1741 -91 
Q 1134 -91 817 281 
Q 500 653 500 1363 
z
" transform="scale(0.015625)"/>
     <path id="DejaVuSans-Bold-70" d="M 1656 506 
L 1656 -1331 
L 538 -1331 
L 538 3500 
L 1656 3500 
L 1656 2988 
Q 1888 3294 2169 3439 
Q 2450 3584 2816 3584 
Q 3463 3584 3878 3070 
Q 4294 2556 4294 1747 
Q 4294 938 3878 423 
Q 3463 -91 2816 -91 
Q 2450 -91 2169 54 
Q 1888 200 1656 506 
z
M 2400 2772 
Q 2041 2772 1848 2508 
Q 1656 2244 1656 1747 
Q 1656 1250 1848 986 
Q 2041 722 2400 722 
Q 2759 722 2948 984 
Q 3138 1247 3138 1747 
Q 3138 2247 2948 2509 
Q 2759 2772 2400 2772 
z
" transform="scale(0.015625)"/>
     <path id="DejaVuSans-Bold-65" d="M 4031 1759 
L 4031 1441 
L 1416 1441 
Q 1456 1047 1700 850 
Q 1944 653 2381 653 
Q 2734 653 3104 758 
Q 3475 863 3866 1075 
L 3866 213 
Q 3469 63 3072 -14 
Q 2675 -91 2278 -91 
Q 1328 -91 801 392 
Q 275 875 275 1747 
Q 275 2603 792 3093 
Q 1309 3584 2216 3584 
Q 3041 3584 3536 3087 
Q 4031 2591 4031 1759 
z
M 2881 2131 
Q 2881 2450 2695 2645 
Q 2509 2841 2209 2841 
Q 1884 2841 1681 2658 
Q 1478 2475 1428 2131 
L 2881 2131 
z
" transform="scale(0.015625)"/>
     <path id="DejaVuSans-Bold-72" d="M 3138 2547 
Q 2991 2616 2845 2648 
Q 2700 2681 2553 2681 
Q 2122 2681 1889 2404 
Q 1656 2128 1656 1613 
L 1656 0 
L 538 0 
L 538 3500 
L 1656 3500 
L 1656 2925 
Q 1872 3269 2151 3426 
Q 2431 3584 2822 3584 
Q 2878 3584 2943 3579 
Q 3009 3575 3134 3559 
L 3138 2547 
z
" transform="scale(0.015625)"/>
     <path id="DejaVuSans-Bold-41" d="M 3419 850 
L 1538 850 
L 1241 0 
L 31 0 
L 1759 4666 
L 3194 4666 
L 4922 0 
L 3713 0 
L 3419 850 
z
M 1838 1716 
L 3116 1716 
L 2478 3572 
L 1838 1716 
z
" transform="scale(0.015625)"/>
     <path id="DejaVuSans-Bold-6e" d="M 4056 2131 
L 4056 0 
L 2931 0 
L 2931 347 
L 2931 1631 
Q 2931 2084 2911 2256 
Q 2891 2428 2841 2509 
Q 2775 2619 2662 2680 
Q 2550 2741 2406 2741 
Q 2056 2741 1856 2470 
Q 1656 2200 1656 1722 
L 1656 0 
L 538 0 
L 538 3500 
L 1656 3500 
L 1656 2988 
Q 1909 3294 2193 3439 
Q 2478 3584 2822 3584 
Q 3428 3584 3742 3212 
Q 4056 2841 4056 2131 
z
" transform="scale(0.015625)"/>
     <path id="DejaVuSans-Bold-67" d="M 2919 594 
Q 2688 288 2409 144 
Q 2131 0 1766 0 
Q 1125 0 706 504 
Q 288 1009 288 1791 
Q 288 2575 706 3076 
Q 1125 3578 1766 3578 
Q 2131 3578 2409 3434 
Q 2688 3291 2919 2981 
L 2919 3500 
L 4044 3500 
L 4044 353 
Q 4044 -491 3511 -936 
Q 2978 -1381 1966 -1381 
Q 1638 -1381 1331 -1331 
Q 1025 -1281 716 -1178 
L 716 -306 
Q 1009 -475 1290 -558 
Q 1572 -641 1856 -641 
Q 2406 -641 2662 -400 
Q 2919 -159 2919 353 
L 2919 594 
z
M 2181 2772 
Q 1834 2772 1640 2515 
Q 1447 2259 1447 1791 
Q 1447 1309 1634 1061 
Q 1822 813 2181 813 
Q 2531 813 2725 1069 
Q 2919 1325 2919 1791 
Q 2919 2259 2725 2515 
Q 2531 2772 2181 2772 
z
" transform="scale(0.015625)"/>
     <path id="DejaVuSans-Bold-47" d="M 4781 347 
Q 4331 128 3847 18 
Q 3363 -91 2847 -91 
Q 1681 -91 1000 561 
Q 319 1213 319 2328 
Q 319 3456 1012 4103 
Q 1706 4750 2913 4750 
Q 3378 4750 3804 4662 
Q 4231 4575 4609 4403 
L 4609 3438 
Q 4219 3659 3833 3768 
Q 3447 3878 3059 3878 
Q 2341 3878 1952 3476 
Q 1563 3075 1563 2328 
Q 1563 1588 1938 1184 
Q 2313 781 3003 781 
Q 3191 781 3352 804 
Q 3513 828 3641 878 
L 3641 1784 
L 2906 1784 
L 2906 2591 
L 4781 2591 
L 4781 347 
z
" transform="scale(0.015625)"/>
     <path id="DejaVuSans-Bold-61" d="M 2106 1575 
Q 1756 1575 1579 1456 
Q 1403 1338 1403 1106 
Q 1403 894 1545 773 
Q 1688 653 1941 653 
Q 2256 653 2472 879 
Q 2688 1106 2688 1447 
L 2688 1575 
L 2106 1575 
z
M 3816 1997 
L 3816 0 
L 2688 0 
L 2688 519 
Q 2463 200 2181 54 
Q 1900 -91 1497 -91 
Q 953 -91 614 226 
Q 275 544 275 1050 
Q 275 1666 698 1953 
Q 1122 2241 2028 2241 
L 2688 2241 
L 2688 2328 
Q 2688 2594 2478 2717 
Q 2269 2841 1825 2841 
Q 1466 2841 1156 2769 
Q 847 2697 581 2553 
L 581 3406 
Q 941 3494 1303 3539 
Q 1666 3584 2028 3584 
Q 2975 3584 3395 3211 
Q 3816 2838 3816 1997 
z
" transform="scale(0.015625)"/>
     <path id="DejaVuSans-Bold-6f" d="M 2203 2784 
Q 1831 2784 1636 2517 
Q 1441 2250 1441 1747 
Q 1441 1244 1636 976 
Q 1831 709 2203 709 
Q 2569 709 2762 976 
Q 2956 1244 2956 1747 
Q 2956 2250 2762 2517 
Q 2569 2784 2203 2784 
z
M 2203 3584 
Q 3106 3584 3614 3096 
Q 4122 2609 4122 1747 
Q 4122 884 3614 396 
Q 3106 -91 2203 -91 
Q 1297 -91 786 396 
Q 275 884 275 1747 
Q 275 2609 786 3096 
Q 1297 3584 2203 3584 
z
" transform="scale(0.015625)"/>
     <path id="DejaVuSans-Bold-20" transform="scale(0.015625)"/>
     <path id="DejaVuSans-Bold-2f" d="M 1644 4666 
L 2338 4666 
L 691 -594 
L 0 -594 
L 1644 4666 
z
" transform="scale(0.015625)"/>
     <path id="DroidSansFallback-5728" d="M 400 4400 
L 2175 4400 
L 2500 5200 
L 3000 5100 
L 2750 4400 
L 6000 4400 
L 6000 3925 
L 2525 3925 
Q 2075 2975 1625 2400 
L 1625 -550 
L 1125 -550 
L 1125 1775 
L 550 1200 
L 200 1600 
L 1125 2625 
L 1125 3050 
L 1450 3050 
L 1950 3925 
L 400 3925 
L 400 4400 
z
M 2175 2400 
L 3675 2400 
L 3675 3625 
L 4175 3625 
L 4175 2400 
L 5725 2400 
L 5725 1925 
L 4175 1925 
L 4175 175 
L 5950 175 
L 5950 -300 
L 1875 -300 
L 1875 175 
L 3675 175 
L 3675 1925 
L 2175 1925 
L 2175 2400 
z
" transform="scale(0.015625)"/>
     <path id="DejaVuSans-Bold-54" d="M 31 4666 
L 4331 4666 
L 4331 3756 
L 2784 3756 
L 2784 0 
L 1581 0 
L 1581 3756 
L 31 3756 
L 31 4666 
z
" transform="scale(0.015625)"/>
     <path id="DejaVuSans-Bold-69" d="M 538 3500 
L 1656 3500 
L 1656 0 
L 538 0 
L 538 3500 
z
M 538 4863 
L 1656 4863 
L 1656 3950 
L 538 3950 
L 538 4863 
z
" transform="scale(0.015625)"/>
     <path id="DejaVuSans-Bold-6c" d="M 538 4863 
L 1656 4863 
L 1656 0 
L 538 0 
L 538 4863 
z
" transform="scale(0.015625)"/>
     <path id="DejaVuSans-Bold-4f" d="M 2719 3878 
Q 2169 3878 1866 3472 
Q 1563 3066 1563 2328 
Q 1563 1594 1866 1187 
Q 2169 781 2719 781 
Q 3272 781 3575 1187 
Q 3878 1594 3878 2328 
Q 3878 3066 3575 3472 
Q 3272 3878 2719 3878 
z
M 2719 4750 
Q 3844 4750 4481 4106 
Q 5119 3463 5119 2328 
Q 5119 1197 4481 553 
Q 3844 -91 2719 -91 
Q 1597 -91 958 553 
Q 319 1197 319 2328 
Q 319 3463 958 4106 
Q 1597 4750 2719 4750 
z
" transform="scale(0.015625)"/>
     <path id="DejaVuSans-Bold-50" d="M 588 4666 
L 2584 4666 
Q 3475 4666 3951 4270 
Q 4428 3875 4428 3144 
Q 4428 2409 3951 2014 
Q 3475 1619 2584 1619 
L 1791 1619 
L 1791 0 
L 588 0 
L 588 4666 
z
M 1791 3794 
L 1791 2491 
L 2456 2491 
Q 2806 2491 2997 2661 
Q 3188 2831 3188 3144 
Q 3188 3456 2997 3625 
Q 2806 3794 2456 3794 
L 1791 3794 
z
" transform="scale(0.015625)"/>
     <path id="DroidSansFallback-7684" d="M 3775 5150 
L 4275 5050 
L 3950 4125 
L 5900 4125 
Q 5900 1325 5750 375 
Q 5600 -575 4850 -575 
L 4075 -475 
L 3950 50 
L 4850 -50 
Q 5075 -50 5175 150 
Q 5275 350 5325 1225 
Q 5375 2100 5375 3650 
L 3700 3650 
Q 3400 3125 3050 2775 
L 2675 3125 
Q 3425 3950 3775 5150 
z
M 3975 2675 
Q 4350 2125 4600 1450 
L 4125 1225 
Q 3875 1925 3500 2475 
L 3975 2675 
z
M 2575 4350 
L 2575 -175 
L 2125 -175 
L 2125 25 
L 975 25 
L 975 -350 
L 525 -350 
L 525 4350 
L 1075 4350 
L 1250 5175 
L 1775 5075 
L 1550 4350 
L 2575 4350 
z
M 2125 2425 
L 2125 3875 
L 975 3875 
L 975 2425 
L 2125 2425 
z
M 975 1950 
L 975 500 
L 2125 500 
L 2125 1950 
L 975 1950 
z
" transform="scale(0.015625)"/>
     <path id="DroidSansFallback-6982" d="M 350 4000 
L 1050 4000 
L 1050 5175 
L 1500 5175 
L 1500 4000 
L 1950 4000 
L 1950 3550 
L 1500 3550 
L 1500 3200 
L 2075 2450 
L 1750 2000 
L 1500 2525 
L 1500 -575 
L 1050 -575 
L 1050 2375 
Q 850 1600 575 1075 
L 225 1425 
Q 775 2400 950 3550 
L 350 3550 
L 350 4000 
z
M 3725 4975 
L 3725 1950 
L 2625 1950 
L 2625 550 
L 3225 975 
L 2975 1425 
L 3375 1600 
Q 3725 1050 3950 425 
L 3525 225 
L 3425 550 
L 2375 -150 
L 2125 100 
L 2125 4975 
L 3725 4975 
z
M 2625 4525 
L 2625 3700 
L 3225 3700 
L 3225 4525 
L 2625 4525 
z
M 3225 3250 
L 2625 3250 
L 2625 2400 
L 3225 2400 
L 3225 3250 
z
M 4050 4975 
L 5950 4975 
L 5950 4525 
L 5375 4525 
L 5250 2725 
L 6000 2725 
L 6000 2300 
L 5200 2300 
L 5100 1750 
L 5375 1750 
L 5375 75 
Q 5375 -100 5500 -100 
Q 5625 -100 5662 -12 
Q 5700 75 5725 575 
L 6125 425 
Q 6075 -225 5950 -375 
Q 5825 -525 5500 -525 
Q 4925 -525 4900 -100 
L 4900 1025 
Q 4550 100 3875 -575 
L 3475 -225 
Q 4525 750 4700 2300 
L 3975 2300 
L 3850 2725 
Q 4075 3200 4200 3950 
L 4625 3850 
Q 4525 3175 4350 2725 
L 4775 2725 
L 4900 4525 
L 4050 4525 
L 4050 4975 
z
" transform="scale(0.015625)"/>
     <path id="DroidSansFallback-89c8" d="M 5100 2725 
L 5100 625 
L 4625 625 
L 4625 2275 
L 1625 2275 
L 1625 650 
L 1150 650 
L 1150 2725 
L 5100 2725 
z
M 2775 2025 
L 3275 2025 
Q 3275 750 2687 150 
Q 2100 -450 600 -575 
L 400 -100 
Q 1825 25 2300 500 
Q 2775 975 2775 2025 
z
M 3325 1175 
L 3825 1175 
L 3825 25 
Q 3850 -150 4500 -150 
Q 5250 -150 5400 -50 
Q 5550 50 5625 600 
L 6100 450 
Q 6000 -175 5800 -400 
Q 5600 -575 4500 -575 
Q 3700 -575 3512 -475 
Q 3325 -375 3325 -100 
L 3325 1175 
z
M 2025 5075 
L 2500 5075 
L 2500 3050 
L 2025 3050 
L 2025 5075 
z
M 825 4850 
L 1300 4850 
L 1300 3050 
L 825 3050 
L 825 4850 
z
M 3775 5225 
L 4225 5075 
L 4000 4550 
L 5900 4550 
L 5900 4100 
L 3750 4100 
L 3300 3500 
L 2925 3775 
Q 3500 4450 3775 5225 
z
M 4475 3900 
Q 4975 3600 5400 3200 
L 5075 2800 
Q 4650 3250 4150 3550 
L 4475 3900 
z
" transform="scale(0.015625)"/>
    </defs>
    <use xlink:href="#DejaVuSans-Bold-73"/>
    <use xlink:href="#DejaVuSans-Bold-75" transform="translate(59.521484 0)"/>
    <use xlink:href="#DejaVuSans-Bold-70" transform="translate(130.712891 0)"/>
    <use xlink:href="#DejaVuSans-Bold-65" transform="translate(202.294922 0)"/>
    <use xlink:href="#DejaVuSans-Bold-72" transform="translate(270.117188 0)"/>
    <use xlink:href="#DejaVuSans-Bold-41" transform="translate(319.433594 0)"/>
    <use xlink:href="#DejaVuSans-Bold-6e" transform="translate(396.826172 0)"/>
    <use xlink:href="#DejaVuSans-Bold-67" transform="translate(468.017578 0)"/>
    <use xlink:href="#DejaVuSans-Bold-47" transform="translate(539.599609 0)"/>
    <use xlink:href="#DejaVuSans-Bold-61" transform="translate(621.679688 0)"/>
    <use xlink:href="#DejaVuSans-Bold-6f" transform="translate(689.160156 0)"/>
    <use xlink:href="#DejaVuSans-Bold-20" transform="translate(757.861328 0)"/>
    <use xlink:href="#DejaVuSans-Bold-2f" transform="translate(792.675781 0)"/>
    <use xlink:href="#DejaVuSans-Bold-20" transform="translate(829.199219 0)"/>
    <use xlink:href="#DejaVuSans-Bold-41" transform="translate(864.013672 0)"/>
    <use xlink:href="#DejaVuSans-Bold-6e" transform="translate(941.40625 0)"/>
    <use xlink:href="#DejaVuSans-Bold-67" transform="translate(1012.597656 0)"/>
    <use xlink:href="#DejaVuSans-Bold-20" transform="translate(1084.179688 0)"/>
    <use xlink:href="#DejaVuSans-Bold-47" transform="translate(1118.994141 0)"/>
    <use xlink:href="#DejaVuSans-Bold-61" transform="translate(1201.074219 0)"/>
    <use xlink:href="#DejaVuSans-Bold-6f" transform="translate(1268.554688 0)"/>
    <use xlink:href="#DejaVuSans-Bold-20" transform="translate(1337.255859 0)"/>
    <use xlink:href="#DroidSansFallback-5728" transform="translate(1372.070312 0)"/>
    <use xlink:href="#DejaVuSans-Bold-20" transform="translate(1472.070312 0)"/>
    <use xlink:href="#DejaVuSans-Bold-54" transform="translate(1506.884766 0)"/>
    <use xlink:href="#DejaVuSans-Bold-69" transform="translate(1575.097656 0)"/>
    <use xlink:href="#DejaVuSans-Bold-6c" transform="translate(1609.375 0)"/>
    <use xlink:href="#DejaVuSans-Bold-65" transform="translate(1643.652344 0)"/>
    <use xlink:href="#DejaVuSans-Bold-4f" transform="translate(1711.474609 0)"/>
    <use xlink:href="#DejaVuSans-Bold-50" transform="translate(1796.484375 0)"/>
    <use xlink:href="#DejaVuSans-Bold-73" transform="translate(1868.025391 0)"/>
    <use xlink:href="#DejaVuSans-Bold-20" transform="translate(1927.546875 0)"/>
    <use xlink:href="#DroidSansFallback-7684" transform="translate(1962.361328 0)"/>
    <use xlink:href="#DroidSansFallback-8d21" transform="translate(2062.361328 0)"/>
    <use xlink:href="#DroidSansFallback-732e" transform="translate(2162.361328 0)"/>
    <use xlink:href="#DroidSansFallback-6982" transform="translate(2262.361328 0)"/>
    <use xlink:href="#DroidSansFallback-89c8" transform="translate(2362.361328 0)"/>
   </g>
  </g>
  <g id="text_41">
   <!-- 统计口径：tile-ai/TileOPs upstream/main，更新至 2026-05-05 -->
   <g style="fill: #63707a" transform="translate(7.2 42.84) scale(0.125 -0.125)">
    <defs>
     <path id="DroidSansFallback-7edf" d="M 2125 4175 
L 2575 4000 
Q 1950 2675 1150 1775 
L 2300 2100 
L 2425 1700 
Q 1575 1375 525 1200 
L 375 1625 
Q 925 2150 1425 2950 
L 525 2800 
L 425 3275 
Q 1000 3975 1375 5175 
L 1850 5025 
Q 1500 3975 975 3300 
L 1700 3375 
L 2125 4175 
z
M 2425 975 
L 2525 525 
L 525 -50 
L 325 475 
L 2425 975 
z
M 3700 3975 
L 2700 3975 
L 2700 4425 
L 4075 4425 
L 3825 5025 
L 4325 5175 
Q 4500 4850 4600 4425 
L 5975 4425 
L 5975 3975 
L 4250 3975 
Q 3800 2950 3350 2525 
L 5050 2800 
L 4625 3525 
L 5025 3775 
Q 5575 2950 5925 2025 
L 5475 1775 
L 5225 2425 
L 4850 2325 
L 4850 125 
Q 4850 -50 5200 -50 
Q 5425 -50 5475 62 
Q 5525 175 5550 1050 
L 6075 900 
Q 6050 -75 5912 -287 
Q 5775 -500 5200 -500 
Q 4375 -500 4350 -75 
L 4350 2250 
L 3950 2175 
Q 3800 200 2750 -575 
L 2425 -150 
Q 3300 475 3475 2125 
L 2800 2075 
L 2675 2475 
Q 3275 3000 3700 3975 
z
" transform="scale(0.015625)"/>
     <path id="DroidSansFallback-53e3" d="M 5400 4700 
L 5400 -500 
L 4900 -500 
L 4900 50 
L 1500 50 
L 1500 -500 
L 1025 -500 
L 1025 4700 
L 5400 4700 
z
M 1500 525 
L 4900 525 
L 4900 4225 
L 1500 4225 
L 1500 525 
z
" transform="scale(0.015625)"/>
     <path id="DroidSansFallback-5f84" d="M 1625 5175 
L 2050 4950 
Q 1575 4025 650 3350 
L 350 3750 
Q 1225 4425 1625 5175 
z
M 1850 3750 
L 2275 3525 
Q 2025 3025 1600 2500 
L 1600 -600 
L 1125 -600 
L 1125 2000 
L 600 1525 
L 300 1925 
Q 1300 2725 1850 3750 
z
M 4300 2825 
Q 3625 2325 2750 2100 
L 2425 2575 
Q 4225 2975 4925 4275 
L 2725 4275 
L 2725 4725 
L 5500 4725 
L 5500 4350 
Q 5225 3675 4700 3150 
L 6125 2550 
L 5900 2075 
Q 5100 2525 4300 2825 
z
M 2825 1825 
L 5750 1825 
L 5750 1375 
L 4475 1375 
L 4475 0 
L 5950 0 
L 5950 -450 
L 2375 -450 
L 2375 0 
L 3975 0 
L 3975 1375 
L 2825 1375 
L 2825 1825 
z
" transform="scale(0.015625)"/>
     <path id="DroidSansFallback-ff1a" d="M 3600 3075 
Q 3600 2650 3200 2650 
Q 2800 2650 2800 3075 
Q 2800 3525 3200 3525 
Q 3600 3525 3600 3075 
z
M 3600 350 
Q 3600 -100 3200 -100 
Q 2800 -100 2800 350 
Q 2800 775 3200 775 
Q 3600 775 3600 350 
z
" transform="scale(0.015625)"/>
     <path id="DejaVuSans-54" d="M -19 4666 
L 3928 4666 
L 3928 4134 
L 2272 4134 
L 2272 0 
L 1638 0 
L 1638 4134 
L -19 4134 
L -19 4666 
z
" transform="scale(0.015625)"/>
     <path id="DejaVuSans-4f" d="M 2522 4238 
Q 1834 4238 1429 3725 
Q 1025 3213 1025 2328 
Q 1025 1447 1429 934 
Q 1834 422 2522 422 
Q 3209 422 3611 934 
Q 4013 1447 4013 2328 
Q 4013 3213 3611 3725 
Q 3209 4238 2522 4238 
z
M 2522 4750 
Q 3503 4750 4090 4092 
Q 4678 3434 4678 2328 
Q 4678 1225 4090 567 
Q 3503 -91 2522 -91 
Q 1538 -91 948 565 
Q 359 1222 359 2328 
Q 359 3434 948 4092 
Q 1538 4750 2522 4750 
z
" transform="scale(0.015625)"/>
     <path id="DroidSansFallback-ff0c" d="M 3650 750 
L 3700 675 
L 3150 -825 
L 2700 -825 
L 3025 750 
L 3650 750 
z
" transform="scale(0.015625)"/>
     <path id="DroidSansFallback-65b0" d="M 550 4625 
L 1650 4625 
L 1375 5100 
L 1825 5225 
L 2175 4625 
L 3300 4625 
L 3300 4200 
L 3025 4200 
L 2575 3175 
L 3350 3175 
L 3350 2750 
L 2125 2750 
L 2125 2125 
L 3175 2125 
L 3175 1700 
L 2125 1700 
L 2125 -100 
Q 2100 -575 1500 -575 
Q 1250 -575 1050 -500 
L 950 -25 
Q 1225 -125 1500 -125 
Q 1625 -125 1625 100 
L 1625 1700 
L 525 1700 
L 525 2125 
L 1625 2125 
L 1625 2750 
L 400 2750 
L 400 3175 
L 1250 3175 
L 925 4200 
L 550 4200 
L 550 4625 
z
M 1700 3175 
L 2125 3175 
L 2500 4200 
L 1400 4200 
L 1700 3175 
z
M 1000 1425 
L 1400 1225 
Q 1050 450 625 50 
L 275 350 
Q 725 825 1000 1425 
z
M 2650 1400 
Q 3000 1000 3225 550 
L 2825 325 
Q 2625 775 2275 1175 
L 2650 1400 
z
M 5800 5075 
L 6050 4650 
Q 5225 4425 4100 4300 
L 4100 3150 
L 6075 3150 
L 6075 2725 
L 5475 2725 
L 5475 -500 
L 5025 -500 
L 5025 2725 
L 4100 2725 
Q 4075 1225 3912 587 
Q 3750 -50 3400 -550 
L 3000 -225 
Q 3350 250 3487 975 
Q 3625 1700 3625 4700 
Q 4975 4825 5800 5075 
z
" transform="scale(0.015625)"/>
     <path id="DroidSansFallback-81f3" d="M 650 4875 
L 5775 4875 
L 5775 4400 
L 2975 4400 
Q 2450 3475 1850 3000 
L 4600 3200 
L 4025 3825 
L 4475 4125 
Q 5150 3475 5825 2575 
L 5350 2200 
L 4950 2750 
L 3450 2600 
L 3450 1650 
L 5575 1650 
L 5575 1175 
L 3450 1175 
L 3450 75 
L 5975 75 
L 5975 -400 
L 450 -400 
L 450 75 
L 2925 75 
L 2925 1175 
L 800 1175 
L 800 1650 
L 2925 1650 
L 2925 2575 
L 1050 2475 
L 900 2950 
Q 1725 3450 2350 4400 
L 650 4400 
L 650 4875 
z
" transform="scale(0.015625)"/>
    </defs>
    <use xlink:href="#DroidSansFallback-7edf"/>
    <use xlink:href="#DroidSansFallback-8ba1" transform="translate(100 0)"/>
    <use xlink:href="#DroidSansFallback-53e3" transform="translate(200 0)"/>
    <use xlink:href="#DroidSansFallback-5f84" transform="translate(300 0)"/>
    <use xlink:href="#DroidSansFallback-ff1a" transform="translate(400 0)"/>
    <use xlink:href="#DejaVuSans-74" transform="translate(500 0)"/>
    <use xlink:href="#DejaVuSans-69" transform="translate(539.208984 0)"/>
    <use xlink:href="#DejaVuSans-6c" transform="translate(566.992188 0)"/>
    <use xlink:href="#DejaVuSans-65" transform="translate(594.775391 0)"/>
    <use xlink:href="#DejaVuSans-2d" transform="translate(656.298828 0)"/>
    <use xlink:href="#DejaVuSans-61" transform="translate(692.382812 0)"/>
    <use xlink:href="#DejaVuSans-69" transform="translate(753.662109 0)"/>
    <use xlink:href="#DejaVuSans-2f" transform="translate(781.445312 0)"/>
    <use xlink:href="#DejaVuSans-54" transform="translate(815.136719 0)"/>
    <use xlink:href="#DejaVuSans-69" transform="translate(873.095703 0)"/>
    <use xlink:href="#DejaVuSans-6c" transform="translate(900.878906 0)"/>
    <use xlink:href="#DejaVuSans-65" transform="translate(928.662109 0)"/>
    <use xlink:href="#DejaVuSans-4f" transform="translate(990.185547 0)"/>
    <use xlink:href="#DejaVuSans-50" transform="translate(1068.896484 0)"/>
    <use xlink:href="#DejaVuSans-73" transform="translate(1127.449219 0)"/>
    <use xlink:href="#DejaVuSans-20" transform="translate(1179.548828 0)"/>
    <use xlink:href="#DejaVuSans-75" transform="translate(1211.335938 0)"/>
    <use xlink:href="#DejaVuSans-70" transform="translate(1274.714844 0)"/>
    <use xlink:href="#DejaVuSans-73" transform="translate(1338.191406 0)"/>
    <use xlink:href="#DejaVuSans-74" transform="translate(1390.291016 0)"/>
    <use xlink:href="#DejaVuSans-72" transform="translate(1429.5 0)"/>
    <use xlink:href="#DejaVuSans-65" transform="translate(1468.363281 0)"/>
    <use xlink:href="#DejaVuSans-61" transform="translate(1529.886719 0)"/>
    <use xlink:href="#DejaVuSans-6d" transform="translate(1591.166016 0)"/>
    <use xlink:href="#DejaVuSans-2f" transform="translate(1688.578125 0)"/>
    <use xlink:href="#DejaVuSans-6d" transform="translate(1722.269531 0)"/>
    <use xlink:href="#DejaVuSans-61" transform="translate(1819.681641 0)"/>
    <use xlink:href="#DejaVuSans-69" transform="translate(1880.960938 0)"/>
    <use xlink:href="#DejaVuSans-6e" transform="translate(1908.744141 0)"/>
    <use xlink:href="#DroidSansFallback-ff0c" transform="translate(1972.123047 0)"/>
    <use xlink:href="#DroidSansFallback-66f4" transform="translate(2072.123047 0)"/>
    <use xlink:href="#DroidSansFallback-65b0" transform="translate(2172.123047 0)"/>
    <use xlink:href="#DroidSansFallback-81f3" transform="translate(2272.123047 0)"/>
    <use xlink:href="#DejaVuSans-20" transform="translate(2372.123047 0)"/>
    <use xlink:href="#DejaVuSans-32" transform="translate(2403.910156 0)"/>
    <use xlink:href="#DejaVuSans-30" transform="translate(2467.533203 0)"/>
    <use xlink:href="#DejaVuSans-32" transform="translate(2531.15625 0)"/>
    <use xlink:href="#DejaVuSans-36" transform="translate(2594.779297 0)"/>
    <use xlink:href="#DejaVuSans-2d" transform="translate(2658.402344 0)"/>
    <use xlink:href="#DejaVuSans-30" transform="translate(2694.486328 0)"/>
    <use xlink:href="#DejaVuSans-35" transform="translate(2758.109375 0)"/>
    <use xlink:href="#DejaVuSans-2d" transform="translate(2821.732422 0)"/>
    <use xlink:href="#DejaVuSans-30" transform="translate(2857.816406 0)"/>
    <use xlink:href="#DejaVuSans-35" transform="translate(2921.439453 0)"/>
   </g>
  </g>
 </g>
 <defs>
  <clipPath id="p36181633cf">
   <rect x="82.08" y="231.932297" width="410.755894" height="332.547703"/>
  </clipPath>
 </defs>
</svg>
