<?xml version="1.0" encoding="utf-8" standalone="no"?>
<!DOCTYPE svg PUBLIC "-//W3C//DTD SVG 1.1//EN"
  "http://www.w3.org/Graphics/SVG/1.1/DTD/svg11.dtd">
<svg xmlns:xlink="http://www.w3.org/1999/xlink" width="633.703125pt" height="362.167125pt" viewBox="0 0 633.703125 362.167125" xmlns="http://www.w3.org/2000/svg" version="1.1">
 <metadata>
  <rdf:RDF xmlns:dc="http://purl.org/dc/elements/1.1/" xmlns:cc="http://creativecommons.org/ns#" xmlns:rdf="http://www.w3.org/1999/02/22-rdf-syntax-ns#">
   <cc:Work>
    <dc:type rdf:resource="http://purl.org/dc/dcmitype/StillImage"/>
    <dc:date>2026-05-05T22:55:07.736380</dc:date>
    <dc:format>image/svg+xml</dc:format>
    <dc:creator>
     <cc:Agent>
      <dc:title>Matplotlib v3.10.0, https://matplotlib.org/</dc:title>
     </cc:Agent>
    </dc:creator>
   </cc:Work>
  </rdf:RDF>
 </metadata>
 <defs>
  <style type="text/css">*{stroke-linejoin: round; stroke-linecap: butt}</style>
 </defs>
 <g id="figure_1">
  <g id="patch_1">
   <path d="M 0 362.167125 
L 633.703125 362.167125 
L 633.703125 0 
L 0 0 
z
" style="fill: #ffffff"/>
  </g>
  <g id="axes_1">
   <g id="patch_2">
    <path d="M 40.603125 338.289 
L 626.503125 338.289 
L 626.503125 27.825 
L 40.603125 27.825 
z
" style="fill: #ffffff"/>
   </g>
   <g id="matplotlib.axis_1">
    <g id="xtick_1">
     <g id="line2d_1">
      <defs>
       <path id="m455b1ea446" d="M 0 0 
L 0 3.5 
" style="stroke: #63707a; stroke-width: 0.8"/>
      </defs>
      <g>
       <use xlink:href="#m455b1ea446" x="100.960826" y="338.289" style="fill: #63707a; stroke: #63707a; stroke-width: 0.8"/>
      </g>
     </g>
     <g id="text_1">
      <!-- 2026-01 -->
      <g style="fill: #63707a" transform="translate(80.06942 352.887437) scale(0.1 -0.1)">
       <defs>
        <path id="DejaVuSans-32" d="M 1228 531 
L 3431 531 
L 3431 0 
L 469 0 
L 469 531 
Q 828 903 1448 1529 
Q 2069 2156 2228 2338 
Q 2531 2678 2651 2914 
Q 2772 3150 2772 3378 
Q 2772 3750 2511 3984 
Q 2250 4219 1831 4219 
Q 1534 4219 1204 4116 
Q 875 4013 500 3803 
L 500 4441 
Q 881 4594 1212 4672 
Q 1544 4750 1819 4750 
Q 2544 4750 2975 4387 
Q 3406 4025 3406 3419 
Q 3406 3131 3298 2873 
Q 3191 2616 2906 2266 
Q 2828 2175 2409 1742 
Q 1991 1309 1228 531 
z
" transform="scale(0.015625)"/>
        <path id="DejaVuSans-30" d="M 2034 4250 
Q 1547 4250 1301 3770 
Q 1056 3291 1056 2328 
Q 1056 1369 1301 889 
Q 1547 409 2034 409 
Q 2525 409 2770 889 
Q 3016 1369 3016 2328 
Q 3016 3291 2770 3770 
Q 2525 4250 2034 4250 
z
M 2034 4750 
Q 2819 4750 3233 4129 
Q 3647 3509 3647 2328 
Q 3647 1150 3233 529 
Q 2819 -91 2034 -91 
Q 1250 -91 836 529 
Q 422 1150 422 2328 
Q 422 3509 836 4129 
Q 1250 4750 2034 4750 
z
" transform="scale(0.015625)"/>
        <path id="DejaVuSans-36" d="M 2113 2584 
Q 1688 2584 1439 2293 
Q 1191 2003 1191 1497 
Q 1191 994 1439 701 
Q 1688 409 2113 409 
Q 2538 409 2786 701 
Q 3034 994 3034 1497 
Q 3034 2003 2786 2293 
Q 2538 2584 2113 2584 
z
M 3366 4563 
L 3366 3988 
Q 3128 4100 2886 4159 
Q 2644 4219 2406 4219 
Q 1781 4219 1451 3797 
Q 1122 3375 1075 2522 
Q 1259 2794 1537 2939 
Q 1816 3084 2150 3084 
Q 2853 3084 3261 2657 
Q 3669 2231 3669 1497 
Q 3669 778 3244 343 
Q 2819 -91 2113 -91 
Q 1303 -91 875 529 
Q 447 1150 447 2328 
Q 447 3434 972 4092 
Q 1497 4750 2381 4750 
Q 2619 4750 2861 4703 
Q 3103 4656 3366 4563 
z
" transform="scale(0.015625)"/>
        <path id="DejaVuSans-2d" d="M 313 2009 
L 1997 2009 
L 1997 1497 
L 313 1497 
L 313 2009 
z
" transform="scale(0.015625)"/>
        <path id="DejaVuSans-31" d="M 794 531 
L 1825 531 
L 1825 4091 
L 703 3866 
L 703 4441 
L 1819 4666 
L 2450 4666 
L 2450 531 
L 3481 531 
L 3481 0 
L 794 0 
L 794 531 
z
" transform="scale(0.015625)"/>
       </defs>
       <use xlink:href="#DejaVuSans-32"/>
       <use xlink:href="#DejaVuSans-30" transform="translate(63.623047 0)"/>
       <use xlink:href="#DejaVuSans-32" transform="translate(127.246094 0)"/>
       <use xlink:href="#DejaVuSans-36" transform="translate(190.869141 0)"/>
       <use xlink:href="#DejaVuSans-2d" transform="translate(254.492188 0)"/>
       <use xlink:href="#DejaVuSans-30" transform="translate(290.576172 0)"/>
       <use xlink:href="#DejaVuSans-31" transform="translate(354.199219 0)"/>
      </g>
     </g>
    </g>
    <g id="xtick_2">
     <g id="line2d_2">
      <g>
       <use xlink:href="#m455b1ea446" x="217.256976" y="338.289" style="fill: #63707a; stroke: #63707a; stroke-width: 0.8"/>
      </g>
     </g>
     <g id="text_2">
      <!-- 2026-02 -->
      <g style="fill: #63707a" transform="translate(196.365569 352.887437) scale(0.1 -0.1)">
       <use xlink:href="#DejaVuSans-32"/>
       <use xlink:href="#DejaVuSans-30" transform="translate(63.623047 0)"/>
       <use xlink:href="#DejaVuSans-32" transform="translate(127.246094 0)"/>
       <use xlink:href="#DejaVuSans-36" transform="translate(190.869141 0)"/>
       <use xlink:href="#DejaVuSans-2d" transform="translate(254.492188 0)"/>
       <use xlink:href="#DejaVuSans-30" transform="translate(290.576172 0)"/>
       <use xlink:href="#DejaVuSans-32" transform="translate(354.199219 0)"/>
      </g>
     </g>
    </g>
    <g id="xtick_3">
     <g id="line2d_3">
      <g>
       <use xlink:href="#m455b1ea446" x="333.553125" y="338.289" style="fill: #63707a; stroke: #63707a; stroke-width: 0.8"/>
      </g>
     </g>
     <g id="text_3">
      <!-- 2026-03 -->
      <g style="fill: #63707a" transform="translate(312.661719 352.887437) scale(0.1 -0.1)">
       <defs>
        <path id="DejaVuSans-33" d="M 2597 2516 
Q 3050 2419 3304 2112 
Q 3559 1806 3559 1356 
Q 3559 666 3084 287 
Q 2609 -91 1734 -91 
Q 1441 -91 1130 -33 
Q 819 25 488 141 
L 488 750 
Q 750 597 1062 519 
Q 1375 441 1716 441 
Q 2309 441 2620 675 
Q 2931 909 2931 1356 
Q 2931 1769 2642 2001 
Q 2353 2234 1838 2234 
L 1294 2234 
L 1294 2753 
L 1863 2753 
Q 2328 2753 2575 2939 
Q 2822 3125 2822 3475 
Q 2822 3834 2567 4026 
Q 2313 4219 1838 4219 
Q 1578 4219 1281 4162 
Q 984 4106 628 3988 
L 628 4550 
Q 988 4650 1302 4700 
Q 1616 4750 1894 4750 
Q 2613 4750 3031 4423 
Q 3450 4097 3450 3541 
Q 3450 3153 3228 2886 
Q 3006 2619 2597 2516 
z
" transform="scale(0.015625)"/>
       </defs>
       <use xlink:href="#DejaVuSans-32"/>
       <use xlink:href="#DejaVuSans-30" transform="translate(63.623047 0)"/>
       <use xlink:href="#DejaVuSans-32" transform="translate(127.246094 0)"/>
       <use xlink:href="#DejaVuSans-36" transform="translate(190.869141 0)"/>
       <use xlink:href="#DejaVuSans-2d" transform="translate(254.492188 0)"/>
       <use xlink:href="#DejaVuSans-30" transform="translate(290.576172 0)"/>
       <use xlink:href="#DejaVuSans-33" transform="translate(354.199219 0)"/>
      </g>
     </g>
    </g>
    <g id="xtick_4">
     <g id="line2d_4">
      <g>
       <use xlink:href="#m455b1ea446" x="449.849274" y="338.289" style="fill: #63707a; stroke: #63707a; stroke-width: 0.8"/>
      </g>
     </g>
     <g id="text_4">
      <!-- 2026-04 -->
      <g style="fill: #63707a" transform="translate(428.957868 352.887437) scale(0.1 -0.1)">
       <defs>
        <path id="DejaVuSans-34" d="M 2419 4116 
L 825 1625 
L 2419 1625 
L 2419 4116 
z
M 2253 4666 
L 3047 4666 
L 3047 1625 
L 3713 1625 
L 3713 1100 
L 3047 1100 
L 3047 0 
L 2419 0 
L 2419 1100 
L 313 1100 
L 313 1709 
L 2253 4666 
z
" transform="scale(0.015625)"/>
       </defs>
       <use xlink:href="#DejaVuSans-32"/>
       <use xlink:href="#DejaVuSans-30" transform="translate(63.623047 0)"/>
       <use xlink:href="#DejaVuSans-32" transform="translate(127.246094 0)"/>
       <use xlink:href="#DejaVuSans-36" transform="translate(190.869141 0)"/>
       <use xlink:href="#DejaVuSans-2d" transform="translate(254.492188 0)"/>
       <use xlink:href="#DejaVuSans-30" transform="translate(290.576172 0)"/>
       <use xlink:href="#DejaVuSans-34" transform="translate(354.199219 0)"/>
      </g>
     </g>
    </g>
    <g id="xtick_5">
     <g id="line2d_5">
      <g>
       <use xlink:href="#m455b1ea446" x="566.145424" y="338.289" style="fill: #63707a; stroke: #63707a; stroke-width: 0.8"/>
      </g>
     </g>
     <g id="text_5">
      <!-- 2026-05 -->
      <g style="fill: #63707a" transform="translate(545.254017 352.887437) scale(0.1 -0.1)">
       <defs>
        <path id="DejaVuSans-35" d="M 691 4666 
L 3169 4666 
L 3169 4134 
L 1269 4134 
L 1269 2991 
Q 1406 3038 1543 3061 
Q 1681 3084 1819 3084 
Q 2600 3084 3056 2656 
Q 3513 2228 3513 1497 
Q 3513 744 3044 326 
Q 2575 -91 1722 -91 
Q 1428 -91 1123 -41 
Q 819 9 494 109 
L 494 744 
Q 775 591 1075 516 
Q 1375 441 1709 441 
Q 2250 441 2565 725 
Q 2881 1009 2881 1497 
Q 2881 1984 2565 2268 
Q 2250 2553 1709 2553 
Q 1456 2553 1204 2497 
Q 953 2441 691 2322 
L 691 4666 
z
" transform="scale(0.015625)"/>
       </defs>
       <use xlink:href="#DejaVuSans-32"/>
       <use xlink:href="#DejaVuSans-30" transform="translate(63.623047 0)"/>
       <use xlink:href="#DejaVuSans-32" transform="translate(127.246094 0)"/>
       <use xlink:href="#DejaVuSans-36" transform="translate(190.869141 0)"/>
       <use xlink:href="#DejaVuSans-2d" transform="translate(254.492188 0)"/>
       <use xlink:href="#DejaVuSans-30" transform="translate(290.576172 0)"/>
       <use xlink:href="#DejaVuSans-35" transform="translate(354.199219 0)"/>
      </g>
     </g>
    </g>
   </g>
   <g id="matplotlib.axis_2">
    <g id="ytick_1">
     <g id="line2d_6">
      <path d="M 40.603125 338.289 
L 626.503125 338.289 
" clip-path="url(#p89543bda84)" style="fill: none; stroke: #dce4ea; stroke-opacity: 0.8; stroke-width: 0.8; stroke-linecap: square"/>
     </g>
     <g id="line2d_7">
      <defs>
       <path id="maf9da8c174" d="M 0 0 
L -3.5 0 
" style="stroke: #63707a; stroke-width: 0.8"/>
      </defs>
      <g>
       <use xlink:href="#maf9da8c174" x="40.603125" y="338.289" style="fill: #63707a; stroke: #63707a; stroke-width: 0.8"/>
      </g>
     </g>
     <g id="text_6">
      <!-- 0 -->
      <g style="fill: #63707a" transform="translate(27.240625 342.088219) scale(0.1 -0.1)">
       <use xlink:href="#DejaVuSans-30"/>
      </g>
     </g>
    </g>
    <g id="ytick_2">
     <g id="line2d_8">
      <path d="M 40.603125 277.946143 
L 626.503125 277.946143 
" clip-path="url(#p89543bda84)" style="fill: none; stroke: #dce4ea; stroke-opacity: 0.8; stroke-width: 0.8; stroke-linecap: square"/>
     </g>
     <g id="line2d_9">
      <g>
       <use xlink:href="#maf9da8c174" x="40.603125" y="277.946143" style="fill: #63707a; stroke: #63707a; stroke-width: 0.8"/>
      </g>
     </g>
     <g id="text_7">
      <!-- 10 -->
      <g style="fill: #63707a" transform="translate(20.878125 281.745362) scale(0.1 -0.1)">
       <use xlink:href="#DejaVuSans-31"/>
       <use xlink:href="#DejaVuSans-30" transform="translate(63.623047 0)"/>
      </g>
     </g>
    </g>
    <g id="ytick_3">
     <g id="line2d_10">
      <path d="M 40.603125 217.603286 
L 626.503125 217.603286 
" clip-path="url(#p89543bda84)" style="fill: none; stroke: #dce4ea; stroke-opacity: 0.8; stroke-width: 0.8; stroke-linecap: square"/>
     </g>
     <g id="line2d_11">
      <g>
       <use xlink:href="#maf9da8c174" x="40.603125" y="217.603286" style="fill: #63707a; stroke: #63707a; stroke-width: 0.8"/>
      </g>
     </g>
     <g id="text_8">
      <!-- 20 -->
      <g style="fill: #63707a" transform="translate(20.878125 221.402504) scale(0.1 -0.1)">
       <use xlink:href="#DejaVuSans-32"/>
       <use xlink:href="#DejaVuSans-30" transform="translate(63.623047 0)"/>
      </g>
     </g>
    </g>
    <g id="ytick_4">
     <g id="line2d_12">
      <path d="M 40.603125 157.260429 
L 626.503125 157.260429 
" clip-path="url(#p89543bda84)" style="fill: none; stroke: #dce4ea; stroke-opacity: 0.8; stroke-width: 0.8; stroke-linecap: square"/>
     </g>
     <g id="line2d_13">
      <g>
       <use xlink:href="#maf9da8c174" x="40.603125" y="157.260429" style="fill: #63707a; stroke: #63707a; stroke-width: 0.8"/>
      </g>
     </g>
     <g id="text_9">
      <!-- 30 -->
      <g style="fill: #63707a" transform="translate(20.878125 161.059647) scale(0.1 -0.1)">
       <use xlink:href="#DejaVuSans-33"/>
       <use xlink:href="#DejaVuSans-30" transform="translate(63.623047 0)"/>
      </g>
     </g>
    </g>
    <g id="ytick_5">
     <g id="line2d_14">
      <path d="M 40.603125 96.917571 
L 626.503125 96.917571 
" clip-path="url(#p89543bda84)" style="fill: none; stroke: #dce4ea; stroke-opacity: 0.8; stroke-width: 0.8; stroke-linecap: square"/>
     </g>
     <g id="line2d_15">
      <g>
       <use xlink:href="#maf9da8c174" x="40.603125" y="96.917571" style="fill: #63707a; stroke: #63707a; stroke-width: 0.8"/>
      </g>
     </g>
     <g id="text_10">
      <!-- 40 -->
      <g style="fill: #63707a" transform="translate(20.878125 100.71679) scale(0.1 -0.1)">
       <use xlink:href="#DejaVuSans-34"/>
       <use xlink:href="#DejaVuSans-30" transform="translate(63.623047 0)"/>
      </g>
     </g>
    </g>
    <g id="ytick_6">
     <g id="line2d_16">
      <path d="M 40.603125 36.574714 
L 626.503125 36.574714 
" clip-path="url(#p89543bda84)" style="fill: none; stroke: #dce4ea; stroke-opacity: 0.8; stroke-width: 0.8; stroke-linecap: square"/>
     </g>
     <g id="line2d_17">
      <g>
       <use xlink:href="#maf9da8c174" x="40.603125" y="36.574714" style="fill: #63707a; stroke: #63707a; stroke-width: 0.8"/>
      </g>
     </g>
     <g id="text_11">
      <!-- 50 -->
      <g style="fill: #63707a" transform="translate(20.878125 40.373933) scale(0.1 -0.1)">
       <use xlink:href="#DejaVuSans-35"/>
       <use xlink:href="#DejaVuSans-30" transform="translate(63.623047 0)"/>
      </g>
     </g>
    </g>
    <g id="text_12">
     <!-- Commits -->
     <g transform="translate(14.798437 205.302312) rotate(-90) scale(0.1 -0.1)">
      <defs>
       <path id="DejaVuSans-43" d="M 4122 4306 
L 4122 3641 
Q 3803 3938 3442 4084 
Q 3081 4231 2675 4231 
Q 1875 4231 1450 3742 
Q 1025 3253 1025 2328 
Q 1025 1406 1450 917 
Q 1875 428 2675 428 
Q 3081 428 3442 575 
Q 3803 722 4122 1019 
L 4122 359 
Q 3791 134 3420 21 
Q 3050 -91 2638 -91 
Q 1578 -91 968 557 
Q 359 1206 359 2328 
Q 359 3453 968 4101 
Q 1578 4750 2638 4750 
Q 3056 4750 3426 4639 
Q 3797 4528 4122 4306 
z
" transform="scale(0.015625)"/>
       <path id="DejaVuSans-6f" d="M 1959 3097 
Q 1497 3097 1228 2736 
Q 959 2375 959 1747 
Q 959 1119 1226 758 
Q 1494 397 1959 397 
Q 2419 397 2687 759 
Q 2956 1122 2956 1747 
Q 2956 2369 2687 2733 
Q 2419 3097 1959 3097 
z
M 1959 3584 
Q 2709 3584 3137 3096 
Q 3566 2609 3566 1747 
Q 3566 888 3137 398 
Q 2709 -91 1959 -91 
Q 1206 -91 779 398 
Q 353 888 353 1747 
Q 353 2609 779 3096 
Q 1206 3584 1959 3584 
z
" transform="scale(0.015625)"/>
       <path id="DejaVuSans-6d" d="M 3328 2828 
Q 3544 3216 3844 3400 
Q 4144 3584 4550 3584 
Q 5097 3584 5394 3201 
Q 5691 2819 5691 2113 
L 5691 0 
L 5113 0 
L 5113 2094 
Q 5113 2597 4934 2840 
Q 4756 3084 4391 3084 
Q 3944 3084 3684 2787 
Q 3425 2491 3425 1978 
L 3425 0 
L 2847 0 
L 2847 2094 
Q 2847 2600 2669 2842 
Q 2491 3084 2119 3084 
Q 1678 3084 1418 2786 
Q 1159 2488 1159 1978 
L 1159 0 
L 581 0 
L 581 3500 
L 1159 3500 
L 1159 2956 
Q 1356 3278 1631 3431 
Q 1906 3584 2284 3584 
Q 2666 3584 2933 3390 
Q 3200 3197 3328 2828 
z
" transform="scale(0.015625)"/>
       <path id="DejaVuSans-69" d="M 603 3500 
L 1178 3500 
L 1178 0 
L 603 0 
L 603 3500 
z
M 603 4863 
L 1178 4863 
L 1178 4134 
L 603 4134 
L 603 4863 
z
" transform="scale(0.015625)"/>
       <path id="DejaVuSans-74" d="M 1172 4494 
L 1172 3500 
L 2356 3500 
L 2356 3053 
L 1172 3053 
L 1172 1153 
Q 1172 725 1289 603 
Q 1406 481 1766 481 
L 2356 481 
L 2356 0 
L 1766 0 
Q 1100 0 847 248 
Q 594 497 594 1153 
L 594 3053 
L 172 3053 
L 172 3500 
L 594 3500 
L 594 4494 
L 1172 4494 
z
" transform="scale(0.015625)"/>
       <path id="DejaVuSans-73" d="M 2834 3397 
L 2834 2853 
Q 2591 2978 2328 3040 
Q 2066 3103 1784 3103 
Q 1356 3103 1142 2972 
Q 928 2841 928 2578 
Q 928 2378 1081 2264 
Q 1234 2150 1697 2047 
L 1894 2003 
Q 2506 1872 2764 1633 
Q 3022 1394 3022 966 
Q 3022 478 2636 193 
Q 2250 -91 1575 -91 
Q 1294 -91 989 -36 
Q 684 19 347 128 
L 347 722 
Q 666 556 975 473 
Q 1284 391 1588 391 
Q 1994 391 2212 530 
Q 2431 669 2431 922 
Q 2431 1156 2273 1281 
Q 2116 1406 1581 1522 
L 1381 1569 
Q 847 1681 609 1914 
Q 372 2147 372 2553 
Q 372 3047 722 3315 
Q 1072 3584 1716 3584 
Q 2034 3584 2315 3537 
Q 2597 3491 2834 3397 
z
" transform="scale(0.015625)"/>
      </defs>
      <use xlink:href="#DejaVuSans-43"/>
      <use xlink:href="#DejaVuSans-6f" transform="translate(69.824219 0)"/>
      <use xlink:href="#DejaVuSans-6d" transform="translate(131.005859 0)"/>
      <use xlink:href="#DejaVuSans-6d" transform="translate(228.417969 0)"/>
      <use xlink:href="#DejaVuSans-69" transform="translate(325.830078 0)"/>
      <use xlink:href="#DejaVuSans-74" transform="translate(353.613281 0)"/>
      <use xlink:href="#DejaVuSans-73" transform="translate(392.822266 0)"/>
     </g>
    </g>
   </g>
   <g id="patch_3">
    <path d="M 67.234943 338.289 
L 134.68671 338.289 
L 134.68671 326.220429 
L 67.234943 326.220429 
z
" clip-path="url(#p89543bda84)" style="fill: #2f6fed"/>
   </g>
   <g id="patch_4">
    <path d="M 183.531092 338.289 
L 250.982859 338.289 
L 250.982859 314.151857 
L 183.531092 314.151857 
z
" clip-path="url(#p89543bda84)" style="fill: #2f6fed"/>
   </g>
   <g id="patch_5">
    <path d="M 299.827242 338.289 
L 367.279008 338.289 
L 367.279008 42.609 
L 299.827242 42.609 
z
" clip-path="url(#p89543bda84)" style="fill: #2f6fed"/>
   </g>
   <g id="patch_6">
    <path d="M 416.123391 338.289 
L 483.575158 338.289 
L 483.575158 229.671857 
L 416.123391 229.671857 
z
" clip-path="url(#p89543bda84)" style="fill: #2f6fed"/>
   </g>
   <g id="patch_7">
    <path d="M 532.41954 338.289 
L 599.871307 338.289 
L 599.871307 320.186143 
L 532.41954 320.186143 
z
" clip-path="url(#p89543bda84)" style="fill: #2f6fed"/>
   </g>
   <g id="patch_8">
    <path d="M 40.603125 338.289 
L 626.503125 338.289 
" style="fill: none; stroke: #dce4ea; stroke-width: 0.8; stroke-linejoin: miter; stroke-linecap: square"/>
   </g>
   <g id="text_13">
    <!-- 2 -->
    <g transform="translate(97.143326 319.724804) scale(0.12 -0.12)">
     <use xlink:href="#DejaVuSans-32"/>
    </g>
   </g>
   <g id="text_14">
    <!-- 4 -->
    <g transform="translate(213.439476 307.656232) scale(0.12 -0.12)">
     <use xlink:href="#DejaVuSans-34"/>
    </g>
   </g>
   <g id="text_15">
    <!-- 49 -->
    <g transform="translate(325.918125 36.113375) scale(0.12 -0.12)">
     <defs>
      <path id="DejaVuSans-39" d="M 703 97 
L 703 672 
Q 941 559 1184 500 
Q 1428 441 1663 441 
Q 2288 441 2617 861 
Q 2947 1281 2994 2138 
Q 2813 1869 2534 1725 
Q 2256 1581 1919 1581 
Q 1219 1581 811 2004 
Q 403 2428 403 3163 
Q 403 3881 828 4315 
Q 1253 4750 1959 4750 
Q 2769 4750 3195 4129 
Q 3622 3509 3622 2328 
Q 3622 1225 3098 567 
Q 2575 -91 1691 -91 
Q 1453 -91 1209 -44 
Q 966 3 703 97 
z
M 1959 2075 
Q 2384 2075 2632 2365 
Q 2881 2656 2881 3163 
Q 2881 3666 2632 3958 
Q 2384 4250 1959 4250 
Q 1534 4250 1286 3958 
Q 1038 3666 1038 3163 
Q 1038 2656 1286 2365 
Q 1534 2075 1959 2075 
z
" transform="scale(0.015625)"/>
     </defs>
     <use xlink:href="#DejaVuSans-34"/>
     <use xlink:href="#DejaVuSans-39" transform="translate(63.623047 0)"/>
    </g>
   </g>
   <g id="text_16">
    <!-- 18 -->
    <g transform="translate(442.214274 223.176232) scale(0.12 -0.12)">
     <defs>
      <path id="DejaVuSans-38" d="M 2034 2216 
Q 1584 2216 1326 1975 
Q 1069 1734 1069 1313 
Q 1069 891 1326 650 
Q 1584 409 2034 409 
Q 2484 409 2743 651 
Q 3003 894 3003 1313 
Q 3003 1734 2745 1975 
Q 2488 2216 2034 2216 
z
M 1403 2484 
Q 997 2584 770 2862 
Q 544 3141 544 3541 
Q 544 4100 942 4425 
Q 1341 4750 2034 4750 
Q 2731 4750 3128 4425 
Q 3525 4100 3525 3541 
Q 3525 3141 3298 2862 
Q 3072 2584 2669 2484 
Q 3125 2378 3379 2068 
Q 3634 1759 3634 1313 
Q 3634 634 3220 271 
Q 2806 -91 2034 -91 
Q 1263 -91 848 271 
Q 434 634 434 1313 
Q 434 1759 690 2068 
Q 947 2378 1403 2484 
z
M 1172 3481 
Q 1172 3119 1398 2916 
Q 1625 2713 2034 2713 
Q 2441 2713 2670 2916 
Q 2900 3119 2900 3481 
Q 2900 3844 2670 4047 
Q 2441 4250 2034 4250 
Q 1625 4250 1398 4047 
Q 1172 3844 1172 3481 
z
" transform="scale(0.015625)"/>
     </defs>
     <use xlink:href="#DejaVuSans-31"/>
     <use xlink:href="#DejaVuSans-38" transform="translate(63.623047 0)"/>
    </g>
   </g>
   <g id="text_17">
    <!-- 3 -->
    <g transform="translate(562.327924 313.690518) scale(0.12 -0.12)">
     <use xlink:href="#DejaVuSans-33"/>
    </g>
   </g>
   <g id="text_18">
    <!-- superAngGao 主线提交月度趋势 -->
    <g transform="translate(40.603125 21.825) scale(0.18 -0.18)">
     <defs>
      <path id="DejaVuSans-Bold-73" d="M 3272 3391 
L 3272 2541 
Q 2913 2691 2578 2766 
Q 2244 2841 1947 2841 
Q 1628 2841 1473 2761 
Q 1319 2681 1319 2516 
Q 1319 2381 1436 2309 
Q 1553 2238 1856 2203 
L 2053 2175 
Q 2913 2066 3209 1816 
Q 3506 1566 3506 1031 
Q 3506 472 3093 190 
Q 2681 -91 1863 -91 
Q 1516 -91 1145 -36 
Q 775 19 384 128 
L 384 978 
Q 719 816 1070 734 
Q 1422 653 1784 653 
Q 2113 653 2278 743 
Q 2444 834 2444 1013 
Q 2444 1163 2330 1236 
Q 2216 1309 1875 1350 
L 1678 1375 
Q 931 1469 631 1722 
Q 331 1975 331 2491 
Q 331 3047 712 3315 
Q 1094 3584 1881 3584 
Q 2191 3584 2531 3537 
Q 2872 3491 3272 3391 
z
" transform="scale(0.015625)"/>
      <path id="DejaVuSans-Bold-75" d="M 500 1363 
L 500 3500 
L 1625 3500 
L 1625 3150 
Q 1625 2866 1622 2436 
Q 1619 2006 1619 1863 
Q 1619 1441 1641 1255 
Q 1663 1069 1716 984 
Q 1784 875 1895 815 
Q 2006 756 2150 756 
Q 2500 756 2700 1025 
Q 2900 1294 2900 1772 
L 2900 3500 
L 4019 3500 
L 4019 0 
L 2900 0 
L 2900 506 
Q 2647 200 2364 54 
Q 2081 -91 1741 -91 
Q 1134 -91 817 281 
Q 500 653 500 1363 
z
" transform="scale(0.015625)"/>
      <path id="DejaVuSans-Bold-70" d="M 1656 506 
L 1656 -1331 
L 538 -1331 
L 538 3500 
L 1656 3500 
L 1656 2988 
Q 1888 3294 2169 3439 
Q 2450 3584 2816 3584 
Q 3463 3584 3878 3070 
Q 4294 2556 4294 1747 
Q 4294 938 3878 423 
Q 3463 -91 2816 -91 
Q 2450 -91 2169 54 
Q 1888 200 1656 506 
z
M 2400 2772 
Q 2041 2772 1848 2508 
Q 1656 2244 1656 1747 
Q 1656 1250 1848 986 
Q 2041 722 2400 722 
Q 2759 722 2948 984 
Q 3138 1247 3138 1747 
Q 3138 2247 2948 2509 
Q 2759 2772 2400 2772 
z
" transform="scale(0.015625)"/>
      <path id="DejaVuSans-Bold-65" d="M 4031 1759 
L 4031 1441 
L 1416 1441 
Q 1456 1047 1700 850 
Q 1944 653 2381 653 
Q 2734 653 3104 758 
Q 3475 863 3866 1075 
L 3866 213 
Q 3469 63 3072 -14 
Q 2675 -91 2278 -91 
Q 1328 -91 801 392 
Q 275 875 275 1747 
Q 275 2603 792 3093 
Q 1309 3584 2216 3584 
Q 3041 3584 3536 3087 
Q 4031 2591 4031 1759 
z
M 2881 2131 
Q 2881 2450 2695 2645 
Q 2509 2841 2209 2841 
Q 1884 2841 1681 2658 
Q 1478 2475 1428 2131 
L 2881 2131 
z
" transform="scale(0.015625)"/>
      <path id="DejaVuSans-Bold-72" d="M 3138 2547 
Q 2991 2616 2845 2648 
Q 2700 2681 2553 2681 
Q 2122 2681 1889 2404 
Q 1656 2128 1656 1613 
L 1656 0 
L 538 0 
L 538 3500 
L 1656 3500 
L 1656 2925 
Q 1872 3269 2151 3426 
Q 2431 3584 2822 3584 
Q 2878 3584 2943 3579 
Q 3009 3575 3134 3559 
L 3138 2547 
z
" transform="scale(0.015625)"/>
      <path id="DejaVuSans-Bold-41" d="M 3419 850 
L 1538 850 
L 1241 0 
L 31 0 
L 1759 4666 
L 3194 4666 
L 4922 0 
L 3713 0 
L 3419 850 
z
M 1838 1716 
L 3116 1716 
L 2478 3572 
L 1838 1716 
z
" transform="scale(0.015625)"/>
      <path id="DejaVuSans-Bold-6e" d="M 4056 2131 
L 4056 0 
L 2931 0 
L 2931 347 
L 2931 1631 
Q 2931 2084 2911 2256 
Q 2891 2428 2841 2509 
Q 2775 2619 2662 2680 
Q 2550 2741 2406 2741 
Q 2056 2741 1856 2470 
Q 1656 2200 1656 1722 
L 1656 0 
L 538 0 
L 538 3500 
L 1656 3500 
L 1656 2988 
Q 1909 3294 2193 3439 
Q 2478 3584 2822 3584 
Q 3428 3584 3742 3212 
Q 4056 2841 4056 2131 
z
" transform="scale(0.015625)"/>
      <path id="DejaVuSans-Bold-67" d="M 2919 594 
Q 2688 288 2409 144 
Q 2131 0 1766 0 
Q 1125 0 706 504 
Q 288 1009 288 1791 
Q 288 2575 706 3076 
Q 1125 3578 1766 3578 
Q 2131 3578 2409 3434 
Q 2688 3291 2919 2981 
L 2919 3500 
L 4044 3500 
L 4044 353 
Q 4044 -491 3511 -936 
Q 2978 -1381 1966 -1381 
Q 1638 -1381 1331 -1331 
Q 1025 -1281 716 -1178 
L 716 -306 
Q 1009 -475 1290 -558 
Q 1572 -641 1856 -641 
Q 2406 -641 2662 -400 
Q 2919 -159 2919 353 
L 2919 594 
z
M 2181 2772 
Q 1834 2772 1640 2515 
Q 1447 2259 1447 1791 
Q 1447 1309 1634 1061 
Q 1822 813 2181 813 
Q 2531 813 2725 1069 
Q 2919 1325 2919 1791 
Q 2919 2259 2725 2515 
Q 2531 2772 2181 2772 
z
" transform="scale(0.015625)"/>
      <path id="DejaVuSans-Bold-47" d="M 4781 347 
Q 4331 128 3847 18 
Q 3363 -91 2847 -91 
Q 1681 -91 1000 561 
Q 319 1213 319 2328 
Q 319 3456 1012 4103 
Q 1706 4750 2913 4750 
Q 3378 4750 3804 4662 
Q 4231 4575 4609 4403 
L 4609 3438 
Q 4219 3659 3833 3768 
Q 3447 3878 3059 3878 
Q 2341 3878 1952 3476 
Q 1563 3075 1563 2328 
Q 1563 1588 1938 1184 
Q 2313 781 3003 781 
Q 3191 781 3352 804 
Q 3513 828 3641 878 
L 3641 1784 
L 2906 1784 
L 2906 2591 
L 4781 2591 
L 4781 347 
z
" transform="scale(0.015625)"/>
      <path id="DejaVuSans-Bold-61" d="M 2106 1575 
Q 1756 1575 1579 1456 
Q 1403 1338 1403 1106 
Q 1403 894 1545 773 
Q 1688 653 1941 653 
Q 2256 653 2472 879 
Q 2688 1106 2688 1447 
L 2688 1575 
L 2106 1575 
z
M 3816 1997 
L 3816 0 
L 2688 0 
L 2688 519 
Q 2463 200 2181 54 
Q 1900 -91 1497 -91 
Q 953 -91 614 226 
Q 275 544 275 1050 
Q 275 1666 698 1953 
Q 1122 2241 2028 2241 
L 2688 2241 
L 2688 2328 
Q 2688 2594 2478 2717 
Q 2269 2841 1825 2841 
Q 1466 2841 1156 2769 
Q 847 2697 581 2553 
L 581 3406 
Q 941 3494 1303 3539 
Q 1666 3584 2028 3584 
Q 2975 3584 3395 3211 
Q 3816 2838 3816 1997 
z
" transform="scale(0.015625)"/>
      <path id="DejaVuSans-Bold-6f" d="M 2203 2784 
Q 1831 2784 1636 2517 
Q 1441 2250 1441 1747 
Q 1441 1244 1636 976 
Q 1831 709 2203 709 
Q 2569 709 2762 976 
Q 2956 1244 2956 1747 
Q 2956 2250 2762 2517 
Q 2569 2784 2203 2784 
z
M 2203 3584 
Q 3106 3584 3614 3096 
Q 4122 2609 4122 1747 
Q 4122 884 3614 396 
Q 3106 -91 2203 -91 
Q 1297 -91 786 396 
Q 275 884 275 1747 
Q 275 2609 786 3096 
Q 1297 3584 2203 3584 
z
" transform="scale(0.015625)"/>
      <path id="DejaVuSans-Bold-20" transform="scale(0.015625)"/>
      <path id="DroidSansFallback-4e3b" d="M 3075 5150 
Q 3325 4675 3475 4125 
L 5850 4125 
L 5850 3650 
L 3425 3650 
L 3425 2300 
L 5525 2300 
L 5525 1825 
L 3425 1825 
L 3425 125 
L 6025 125 
L 6025 -350 
L 375 -350 
L 375 125 
L 2925 125 
L 2925 1825 
L 850 1825 
L 850 2300 
L 2925 2300 
L 2925 3650 
L 550 3650 
L 550 4125 
L 2900 4125 
L 2550 4975 
L 3075 5150 
z
" transform="scale(0.015625)"/>
      <path id="DroidSansFallback-7ebf" d="M 2125 4175 
L 2575 4000 
Q 1950 2675 1150 1775 
L 2300 2100 
L 2425 1700 
Q 1575 1375 525 1200 
L 375 1625 
Q 925 2150 1425 2950 
L 525 2800 
L 425 3275 
Q 1000 3975 1375 5175 
L 1850 5025 
Q 1500 3975 975 3300 
L 1700 3375 
L 2125 4175 
z
M 2425 975 
L 2525 525 
L 525 -50 
L 325 475 
L 2425 975 
z
M 5625 4075 
L 5675 3600 
L 4225 3350 
L 4275 2550 
L 5950 2900 
L 6000 2425 
L 4350 2075 
L 4600 1125 
Q 5025 1525 5375 2050 
L 5825 1825 
Q 5375 1100 4825 600 
Q 5225 -25 5450 -25 
Q 5575 -25 5625 825 
L 6125 600 
Q 5925 -600 5450 -600 
Q 5000 -600 4450 300 
Q 3775 -150 2925 -450 
L 2650 50 
Q 3600 375 4200 800 
Q 3975 1275 3850 1975 
L 2575 1700 
L 2500 2175 
L 3800 2450 
L 3725 3275 
L 2775 3125 
L 2700 3600 
L 3700 3750 
L 3675 5175 
L 4175 5175 
L 4200 3850 
L 5625 4075 
z
M 4875 5150 
L 5400 4500 
L 5025 4200 
L 4475 4875 
L 4875 5150 
z
" transform="scale(0.015625)"/>
      <path id="DroidSansFallback-63d0" d="M 2175 2525 
L 2250 2075 
L 1600 1750 
L 1600 -25 
Q 1575 -575 1075 -575 
L 525 -500 
L 425 25 
Q 700 -75 1000 -75 
Q 1100 -75 1100 225 
L 1100 1525 
L 500 1300 
L 300 1825 
L 1100 2100 
L 1100 3650 
L 400 3650 
L 400 4125 
L 1100 4125 
L 1100 5175 
L 1600 5175 
L 1600 4125 
L 2275 4125 
L 2275 3650 
L 1600 3650 
L 1600 2275 
L 2175 2525 
z
M 2600 5050 
L 5500 5050 
L 5500 2750 
L 2600 2750 
L 2600 5050 
z
M 3075 4125 
L 5025 4125 
L 5025 4600 
L 3075 4600 
L 3075 4125 
z
M 3075 3200 
L 5025 3200 
L 5025 3675 
L 3075 3675 
L 3075 3200 
z
M 2700 1725 
L 3150 1625 
Q 3100 1200 2950 825 
Q 3275 375 3850 175 
L 3850 1875 
L 2175 1875 
L 2175 2325 
L 5825 2325 
L 5825 1875 
L 4325 1875 
L 4325 1200 
L 5500 1200 
L 5500 750 
L 4325 750 
L 4325 75 
Q 4775 0 6025 0 
L 5875 -500 
L 5400 -500 
Q 3500 -500 2750 350 
Q 2500 -175 2125 -575 
L 1750 -225 
Q 2575 650 2700 1725 
z
" transform="scale(0.015625)"/>
      <path id="DroidSansFallback-4ea4" d="M 450 4350 
L 2900 4350 
L 2575 5025 
L 3100 5200 
L 3475 4350 
L 5925 4350 
L 5925 3875 
L 450 3875 
L 450 4350 
z
M 2025 3700 
L 2425 3375 
Q 1775 2575 750 2075 
L 450 2550 
Q 1325 2950 2025 3700 
z
M 4350 3650 
Q 5175 3150 5850 2500 
L 5475 2050 
Q 4775 2775 4000 3300 
L 4350 3650 
z
M 4275 2425 
L 4750 2225 
Q 4350 1450 3700 875 
Q 4875 200 6125 -75 
L 5825 -600 
Q 4225 -125 3275 525 
Q 2075 -250 550 -625 
L 300 -125 
Q 1850 200 2800 850 
Q 2075 1400 1525 2075 
L 1950 2400 
Q 2475 1700 3225 1175 
Q 3850 1700 4275 2425 
z
" transform="scale(0.015625)"/>
      <path id="DroidSansFallback-6708" d="M 5275 5025 
L 5275 125 
Q 5275 -575 4675 -575 
L 3725 -500 
L 3600 0 
L 4575 -75 
Q 4775 -75 4775 275 
L 4775 1400 
L 1675 1400 
Q 1450 300 800 -600 
L 325 -325 
Q 1225 1025 1275 2350 
L 1275 5025 
L 5275 5025 
z
M 1775 3450 
L 4775 3450 
L 4775 4550 
L 1775 4550 
L 1775 3450 
z
M 1750 1875 
L 4775 1875 
L 4775 2975 
L 1775 2975 
L 1750 1875 
z
" transform="scale(0.015625)"/>
      <path id="DroidSansFallback-5ea6" d="M 3450 5200 
L 3700 4675 
L 5925 4675 
L 5925 4225 
L 1375 4225 
L 1375 2275 
Q 1375 675 725 -575 
L 250 -275 
Q 850 950 875 2175 
L 875 4675 
L 3150 4675 
L 2950 5050 
L 3450 5200 
z
M 1500 3575 
L 2450 3575 
L 2450 4050 
L 2925 4050 
L 2925 3575 
L 4450 3575 
L 4450 4050 
L 4925 4050 
L 4925 3575 
L 5875 3575 
L 5875 3150 
L 4925 3150 
L 4925 2150 
L 2450 2150 
L 2450 3150 
L 1500 3150 
L 1500 3575 
z
M 4450 2575 
L 4450 3150 
L 2925 3150 
L 2925 2575 
L 4450 2575 
z
M 1750 1725 
L 5475 1725 
L 5475 1350 
Q 5050 725 4250 275 
Q 4925 0 6100 -50 
L 5950 -550 
Q 4525 -500 3650 -25 
Q 2725 -400 1525 -600 
L 1225 -150 
Q 2350 0 3125 275 
Q 2550 650 2075 1300 
L 1750 1300 
L 1750 1725 
z
M 2700 1300 
Q 3175 775 3700 525 
Q 4350 850 4750 1300 
L 2700 1300 
z
" transform="scale(0.015625)"/>
      <path id="DroidSansFallback-8d8b" d="M 650 4400 
L 1475 4400 
L 1475 5175 
L 1975 5175 
L 1975 4400 
L 2800 4400 
L 2800 3950 
L 1975 3950 
L 1975 3150 
L 2975 3150 
L 2975 2700 
L 2125 2700 
L 2125 1825 
L 2825 1825 
L 2825 1375 
L 2125 1375 
L 2125 250 
Q 2600 0 6100 0 
L 5950 -500 
L 4750 -500 
Q 2850 -500 2162 -275 
Q 1475 -50 1025 500 
Q 875 -175 650 -625 
L 225 -225 
Q 675 675 875 2300 
L 1325 2225 
L 1150 1075 
L 1650 550 
L 1650 2700 
L 475 2700 
L 475 3150 
L 1475 3150 
L 1475 3950 
L 650 3950 
L 650 4400 
z
M 3950 5200 
L 4400 5075 
L 4150 4600 
L 5475 4600 
L 5475 4175 
L 5050 3500 
L 5700 3500 
L 5700 700 
L 3275 700 
L 3275 1150 
L 5225 1150 
L 5225 1900 
L 3450 1900 
L 3450 2350 
L 5225 2350 
L 5225 3050 
L 3375 3050 
L 3375 3500 
L 4450 3500 
L 4925 4150 
L 3850 4150 
Q 3525 3725 3100 3400 
L 2725 3700 
Q 3550 4350 3950 5200 
z
" transform="scale(0.015625)"/>
      <path id="DroidSansFallback-52bf" d="M 3700 5175 
L 4200 5175 
L 4200 4475 
L 5325 4475 
L 5325 3075 
Q 5325 2325 5450 2325 
Q 5600 2325 5700 2850 
L 6125 2750 
Q 6000 1800 5450 1800 
Q 5150 1800 5000 2100 
Q 4850 2400 4825 3325 
L 4825 4000 
L 4175 4000 
Q 4125 3425 3925 3000 
L 4500 2475 
L 4150 2100 
L 3650 2600 
Q 3325 2200 2725 1925 
L 2375 2275 
Q 2950 2525 3275 2925 
L 2825 3250 
L 3100 3600 
L 3500 3325 
L 3675 4000 
L 2950 4000 
L 2950 4475 
L 3700 4475 
L 3700 5175 
z
M 625 1475 
L 2550 1475 
L 2575 1875 
L 3075 1875 
L 3050 1475 
L 5450 1475 
Q 5450 75 5262 -237 
Q 5075 -550 4250 -550 
L 3475 -500 
L 3350 0 
L 4250 -50 
Q 4700 -50 4775 75 
Q 4850 200 4887 412 
Q 4925 625 4925 1000 
L 2975 1000 
Q 2825 400 2400 100 
Q 1825 -325 675 -625 
L 400 -175 
Q 2200 225 2425 1000 
L 625 1000 
L 625 1475 
z
M 450 4475 
L 1375 4475 
L 1375 5150 
L 1875 5150 
L 1875 4475 
L 2700 4475 
L 2700 4000 
L 1875 4000 
L 1875 3400 
L 2625 3575 
L 2700 3175 
L 1875 2975 
Q 1875 2075 1750 1925 
Q 1625 1775 1250 1775 
Q 950 1775 675 1900 
L 575 2350 
Q 875 2225 1175 2225 
Q 1375 2225 1375 2500 
L 1375 2850 
L 575 2700 
L 425 3150 
L 1375 3325 
L 1375 4000 
L 450 4000 
L 450 4475 
z
" transform="scale(0.015625)"/>
     </defs>
     <use xlink:href="#DejaVuSans-Bold-73"/>
     <use xlink:href="#DejaVuSans-Bold-75" transform="translate(59.521484 0)"/>
     <use xlink:href="#DejaVuSans-Bold-70" transform="translate(130.712891 0)"/>
     <use xlink:href="#DejaVuSans-Bold-65" transform="translate(202.294922 0)"/>
     <use xlink:href="#DejaVuSans-Bold-72" transform="translate(270.117188 0)"/>
     <use xlink:href="#DejaVuSans-Bold-41" transform="translate(319.433594 0)"/>
     <use xlink:href="#DejaVuSans-Bold-6e" transform="translate(396.826172 0)"/>
     <use xlink:href="#DejaVuSans-Bold-67" transform="translate(468.017578 0)"/>
     <use xlink:href="#DejaVuSans-Bold-47" transform="translate(539.599609 0)"/>
     <use xlink:href="#DejaVuSans-Bold-61" transform="translate(621.679688 0)"/>
     <use xlink:href="#DejaVuSans-Bold-6f" transform="translate(689.160156 0)"/>
     <use xlink:href="#DejaVuSans-Bold-20" transform="translate(757.861328 0)"/>
     <use xlink:href="#DroidSansFallback-4e3b" transform="translate(792.675781 0)"/>
     <use xlink:href="#DroidSansFallback-7ebf" transform="translate(892.675781 0)"/>
     <use xlink:href="#DroidSansFallback-63d0" transform="translate(992.675781 0)"/>
     <use xlink:href="#DroidSansFallback-4ea4" transform="translate(1092.675781 0)"/>
     <use xlink:href="#DroidSansFallback-6708" transform="translate(1192.675781 0)"/>
     <use xlink:href="#DroidSansFallback-5ea6" transform="translate(1292.675781 0)"/>
     <use xlink:href="#DroidSansFallback-8d8b" transform="translate(1392.675781 0)"/>
     <use xlink:href="#DroidSansFallback-52bf" transform="translate(1492.675781 0)"/>
    </g>
   </g>
  </g>
 </g>
 <defs>
  <clipPath id="p89543bda84">
   <rect x="40.603125" y="27.825" width="585.9" height="310.464"/>
  </clipPath>
 </defs>
</svg>
