<?xml version="1.0" encoding="utf-8" standalone="no"?>
<!DOCTYPE svg PUBLIC "-//W3C//DTD SVG 1.1//EN"
  "http://www.w3.org/Graphics/SVG/1.1/DTD/svg11.dtd">
<svg xmlns:xlink="http://www.w3.org/1999/xlink" width="463.752772pt" height="477.597187pt" viewBox="0 0 463.752772 477.597187" xmlns="http://www.w3.org/2000/svg" version="1.1">
 <metadata>
  <rdf:RDF xmlns:dc="http://purl.org/dc/elements/1.1/" xmlns:cc="http://creativecommons.org/ns#" xmlns:rdf="http://www.w3.org/1999/02/22-rdf-syntax-ns#">
   <cc:Work>
    <dc:type rdf:resource="http://purl.org/dc/dcmitype/StillImage"/>
    <dc:date>2026-05-05T22:55:07.913389</dc:date>
    <dc:format>image/svg+xml</dc:format>
    <dc:creator>
     <cc:Agent>
      <dc:title>Matplotlib v3.10.0, https://matplotlib.org/</dc:title>
     </cc:Agent>
    </dc:creator>
   </cc:Work>
  </rdf:RDF>
 </metadata>
 <defs>
  <style type="text/css">*{stroke-linejoin: round; stroke-linecap: butt}</style>
 </defs>
 <g id="figure_1">
  <g id="patch_1">
   <path d="M 0 477.597187 
L 463.752772 477.597187 
L 463.752772 0 
L 0 0 
z
" style="fill: #ffffff"/>
  </g>
  <g id="axes_1">
   <g id="patch_2">
    <path d="M 228.96 71.229187 
C 184.45827 71.229187 141.545825 87.973675 108.804836 118.113875 
C 76.063848 148.254075 55.832867 189.637202 52.157939 233.986936 
L 228.96 248.637187 
z
" style="fill: #2f6fed; stroke: #ffffff; stroke-linejoin: miter"/>
   </g>
   <g id="patch_3">
    <path d="M 52.157941 233.986914 
C 49.31227 268.329045 56.533255 302.76754 72.934322 333.074055 
C 89.335389 363.380565 114.216622 388.26182 144.523143 404.662876 
L 228.96 248.637187 
z
" style="fill: #00a896; stroke: #ffffff; stroke-linejoin: miter"/>
   </g>
   <g id="patch_4">
    <path d="M 144.523143 404.662876 
C 170.453029 418.695428 199.476596 426.045187 228.960002 426.045187 
C 258.443409 426.045187 287.466971 418.695428 313.396857 404.662876 
L 228.96 248.637187 
z
" style="fill: #f5a524; stroke: #ffffff; stroke-linejoin: miter"/>
   </g>
   <g id="patch_5">
    <path d="M 313.396857 404.662876 
C 328.472108 396.504561 342.285708 386.204275 354.406377 374.083606 
C 366.527046 361.962937 376.827352 348.149338 384.985668 333.074092 
L 228.96 248.637187 
z
" style="fill: #7c5cff; stroke: #ffffff; stroke-linejoin: miter"/>
   </g>
   <g id="patch_6">
    <path d="M 384.985668 333.074092 
C 393.143983 317.998857 399.074528 301.820528 402.592178 285.044149 
C 406.109827 268.267767 407.177572 251.069738 405.762069 233.987079 
L 228.96 248.637187 
z
" style="fill: #2fb344; stroke: #ffffff; stroke-linejoin: miter"/>
   </g>
   <g id="patch_7">
    <path d="M 405.762069 233.987079 
C 404.54934 219.351519 401.524011 204.923005 396.755575 191.032995 
C 391.98714 177.142985 385.512386 163.89866 377.480064 151.604266 
L 228.96 248.637187 
z
" style="fill: #8aa2b2; stroke: #ffffff; stroke-linejoin: miter"/>
   </g>
   <g id="patch_8">
    <path d="M 377.480064 151.604266 
C 370.789086 141.362943 363.056716 131.841108 354.406461 123.190843 
C 345.756206 114.540577 336.234372 106.808196 325.993059 100.117208 
L 228.96 248.637187 
z
" style="fill: #c64f8a; stroke: #ffffff; stroke-linejoin: miter"/>
   </g>
   <g id="patch_9">
    <path d="M 325.993059 100.117208 
C 317.80263 94.766126 309.183532 90.1017 300.224052 86.171704 
C 291.264571 82.241708 281.995363 79.059582 272.511224 76.657864 
L 228.96 248.637187 
z
" style="fill: #4c9f70; stroke: #ffffff; stroke-linejoin: miter"/>
   </g>
   <g id="patch_10">
    <path d="M 272.511224 76.657864 
C 270.141448 76.057749 267.759567 75.506699 265.367017 75.005031 
C 262.974466 74.503363 260.571762 74.051183 258.160524 73.648819 
L 228.96 248.637187 
z
" style="fill: #5c6bc0; stroke: #ffffff; stroke-linejoin: miter"/>
   </g>
   <g id="patch_11">
    <path d="M 258.160524 73.648819 
C 255.749299 73.246454 253.33002 72.893969 250.904229 72.591596 
C 248.478438 72.289223 246.046654 72.037014 243.61044 71.83514 
L 228.96 248.637187 
z
" style="fill: #9e9e9e; stroke: #ffffff; stroke-linejoin: miter"/>
   </g>
   <g id="patch_12">
    <path d="M 243.61044 71.83514 
C 241.174225 71.633265 238.734098 71.481777 236.291622 71.38075 
C 233.849146 71.279722 231.404843 71.229187 228.960278 71.229187 
L 228.96 248.637187 
z
" style="fill: #2f6fed; stroke: #ffffff; stroke-linejoin: miter"/>
   </g>
   <g id="matplotlib.axis_1"/>
   <g id="matplotlib.axis_2"/>
   <g id="text_1">
    <!-- Fix -->
    <g style="fill: #172026" transform="translate(81.693536 108.096859) scale(0.11 -0.11)">
     <defs>
      <path id="DejaVuSans-46" d="M 628 4666 
L 3309 4666 
L 3309 4134 
L 1259 4134 
L 1259 2759 
L 3109 2759 
L 3109 2228 
L 1259 2228 
L 1259 0 
L 628 0 
L 628 4666 
z
" transform="scale(0.015625)"/>
      <path id="DejaVuSans-69" d="M 603 3500 
L 1178 3500 
L 1178 0 
L 603 0 
L 603 3500 
z
M 603 4863 
L 1178 4863 
L 1178 4134 
L 603 4134 
L 603 4863 
z
" transform="scale(0.015625)"/>
      <path id="DejaVuSans-78" d="M 3513 3500 
L 2247 1797 
L 3578 0 
L 2900 0 
L 1881 1375 
L 863 0 
L 184 0 
L 1544 1831 
L 300 3500 
L 978 3500 
L 1906 2253 
L 2834 3500 
L 3513 3500 
z
" transform="scale(0.015625)"/>
     </defs>
     <use xlink:href="#DejaVuSans-46"/>
     <use xlink:href="#DejaVuSans-69" transform="translate(50.269531 0)"/>
     <use xlink:href="#DejaVuSans-78" transform="translate(78.052734 0)"/>
    </g>
   </g>
   <g id="text_2">
    <!-- 24% -->
    <g style="fill: #172026" transform="translate(144.642291 173.358514) scale(0.11 -0.11)">
     <defs>
      <path id="DejaVuSans-32" d="M 1228 531 
L 3431 531 
L 3431 0 
L 469 0 
L 469 531 
Q 828 903 1448 1529 
Q 2069 2156 2228 2338 
Q 2531 2678 2651 2914 
Q 2772 3150 2772 3378 
Q 2772 3750 2511 3984 
Q 2250 4219 1831 4219 
Q 1534 4219 1204 4116 
Q 875 4013 500 3803 
L 500 4441 
Q 881 4594 1212 4672 
Q 1544 4750 1819 4750 
Q 2544 4750 2975 4387 
Q 3406 4025 3406 3419 
Q 3406 3131 3298 2873 
Q 3191 2616 2906 2266 
Q 2828 2175 2409 1742 
Q 1991 1309 1228 531 
z
" transform="scale(0.015625)"/>
      <path id="DejaVuSans-34" d="M 2419 4116 
L 825 1625 
L 2419 1625 
L 2419 4116 
z
M 2253 4666 
L 3047 4666 
L 3047 1625 
L 3713 1625 
L 3713 1100 
L 3047 1100 
L 3047 0 
L 2419 0 
L 2419 1100 
L 313 1100 
L 313 1709 
L 2253 4666 
z
" transform="scale(0.015625)"/>
      <path id="DejaVuSans-25" d="M 4653 2053 
Q 4381 2053 4226 1822 
Q 4072 1591 4072 1178 
Q 4072 772 4226 539 
Q 4381 306 4653 306 
Q 4919 306 5073 539 
Q 5228 772 5228 1178 
Q 5228 1588 5073 1820 
Q 4919 2053 4653 2053 
z
M 4653 2450 
Q 5147 2450 5437 2106 
Q 5728 1763 5728 1178 
Q 5728 594 5436 251 
Q 5144 -91 4653 -91 
Q 4153 -91 3862 251 
Q 3572 594 3572 1178 
Q 3572 1766 3864 2108 
Q 4156 2450 4653 2450 
z
M 1428 4353 
Q 1159 4353 1004 4120 
Q 850 3888 850 3481 
Q 850 3069 1003 2837 
Q 1156 2606 1428 2606 
Q 1700 2606 1854 2837 
Q 2009 3069 2009 3481 
Q 2009 3884 1853 4118 
Q 1697 4353 1428 4353 
z
M 4250 4750 
L 4750 4750 
L 1831 -91 
L 1331 -91 
L 4250 4750 
z
M 1428 4750 
Q 1922 4750 2215 4408 
Q 2509 4066 2509 3481 
Q 2509 2891 2217 2550 
Q 1925 2209 1428 2209 
Q 931 2209 642 2551 
Q 353 2894 353 3481 
Q 353 4063 643 4406 
Q 934 4750 1428 4750 
z
" transform="scale(0.015625)"/>
     </defs>
     <use xlink:href="#DejaVuSans-32"/>
     <use xlink:href="#DejaVuSans-34" transform="translate(63.623047 0)"/>
     <use xlink:href="#DejaVuSans-25" transform="translate(127.246094 0)"/>
    </g>
   </g>
   <g id="text_3">
    <!-- CI -->
    <g style="fill: #172026" transform="translate(46.405656 344.553056) scale(0.11 -0.11)">
     <defs>
      <path id="DejaVuSans-43" d="M 4122 4306 
L 4122 3641 
Q 3803 3938 3442 4084 
Q 3081 4231 2675 4231 
Q 1875 4231 1450 3742 
Q 1025 3253 1025 2328 
Q 1025 1406 1450 917 
Q 1875 428 2675 428 
Q 3081 428 3442 575 
Q 3803 722 4122 1019 
L 4122 359 
Q 3791 134 3420 21 
Q 3050 -91 2638 -91 
Q 1578 -91 968 557 
Q 359 1206 359 2328 
Q 359 3453 968 4101 
Q 1578 4750 2638 4750 
Q 3056 4750 3426 4639 
Q 3797 4528 4122 4306 
z
" transform="scale(0.015625)"/>
      <path id="DejaVuSans-49" d="M 628 4666 
L 1259 4666 
L 1259 0 
L 628 0 
L 628 4666 
z
" transform="scale(0.015625)"/>
     </defs>
     <use xlink:href="#DejaVuSans-43"/>
     <use xlink:href="#DejaVuSans-49" transform="translate(69.824219 0)"/>
    </g>
   </g>
   <g id="text_4">
    <!-- 18% -->
    <g style="fill: #172026" transform="translate(123.119981 302.334622) scale(0.11 -0.11)">
     <defs>
      <path id="DejaVuSans-31" d="M 794 531 
L 1825 531 
L 1825 4091 
L 703 3866 
L 703 4441 
L 1819 4666 
L 2450 4666 
L 2450 531 
L 3481 531 
L 3481 0 
L 794 0 
L 794 531 
z
" transform="scale(0.015625)"/>
      <path id="DejaVuSans-38" d="M 2034 2216 
Q 1584 2216 1326 1975 
Q 1069 1734 1069 1313 
Q 1069 891 1326 650 
Q 1584 409 2034 409 
Q 2484 409 2743 651 
Q 3003 894 3003 1313 
Q 3003 1734 2745 1975 
Q 2488 2216 2034 2216 
z
M 1403 2484 
Q 997 2584 770 2862 
Q 544 3141 544 3541 
Q 544 4100 942 4425 
Q 1341 4750 2034 4750 
Q 2731 4750 3128 4425 
Q 3525 4100 3525 3541 
Q 3525 3141 3298 2862 
Q 3072 2584 2669 2484 
Q 3125 2378 3379 2068 
Q 3634 1759 3634 1313 
Q 3634 634 3220 271 
Q 2806 -91 2034 -91 
Q 1263 -91 848 271 
Q 434 634 434 1313 
Q 434 1759 690 2068 
Q 947 2378 1403 2484 
z
M 1172 3481 
Q 1172 3119 1398 2916 
Q 1625 2713 2034 2713 
Q 2441 2713 2670 2916 
Q 2900 3119 2900 3481 
Q 2900 3844 2670 4047 
Q 2441 4250 2034 4250 
Q 1625 4250 1398 4047 
Q 1172 3844 1172 3481 
z
" transform="scale(0.015625)"/>
     </defs>
     <use xlink:href="#DejaVuSans-31"/>
     <use xlink:href="#DejaVuSans-38" transform="translate(63.623047 0)"/>
     <use xlink:href="#DejaVuSans-25" transform="translate(127.246094 0)"/>
    </g>
   </g>
   <g id="text_5">
    <!-- Feat -->
    <g style="fill: #172026" transform="translate(228.960002 446.8213) scale(0.11 -0.11)">
     <defs>
      <path id="DejaVuSans-65" d="M 3597 1894 
L 3597 1613 
L 953 1613 
Q 991 1019 1311 708 
Q 1631 397 2203 397 
Q 2534 397 2845 478 
Q 3156 559 3463 722 
L 3463 178 
Q 3153 47 2828 -22 
Q 2503 -91 2169 -91 
Q 1331 -91 842 396 
Q 353 884 353 1716 
Q 353 2575 817 3079 
Q 1281 3584 2069 3584 
Q 2775 3584 3186 3129 
Q 3597 2675 3597 1894 
z
M 3022 2063 
Q 3016 2534 2758 2815 
Q 2500 3097 2075 3097 
Q 1594 3097 1305 2825 
Q 1016 2553 972 2059 
L 3022 2063 
z
" transform="scale(0.015625)"/>
      <path id="DejaVuSans-61" d="M 2194 1759 
Q 1497 1759 1228 1600 
Q 959 1441 959 1056 
Q 959 750 1161 570 
Q 1363 391 1709 391 
Q 2188 391 2477 730 
Q 2766 1069 2766 1631 
L 2766 1759 
L 2194 1759 
z
M 3341 1997 
L 3341 0 
L 2766 0 
L 2766 531 
Q 2569 213 2275 61 
Q 1981 -91 1556 -91 
Q 1019 -91 701 211 
Q 384 513 384 1019 
Q 384 1609 779 1909 
Q 1175 2209 1959 2209 
L 2766 2209 
L 2766 2266 
Q 2766 2663 2505 2880 
Q 2244 3097 1772 3097 
Q 1472 3097 1187 3025 
Q 903 2953 641 2809 
L 641 3341 
Q 956 3463 1253 3523 
Q 1550 3584 1831 3584 
Q 2591 3584 2966 3190 
Q 3341 2797 3341 1997 
z
" transform="scale(0.015625)"/>
      <path id="DejaVuSans-74" d="M 1172 4494 
L 1172 3500 
L 2356 3500 
L 2356 3053 
L 1172 3053 
L 1172 1153 
Q 1172 725 1289 603 
Q 1406 481 1766 481 
L 2356 481 
L 2356 0 
L 1766 0 
Q 1100 0 847 248 
Q 594 497 594 1153 
L 594 3053 
L 172 3053 
L 172 3500 
L 594 3500 
L 594 4494 
L 1172 4494 
z
" transform="scale(0.015625)"/>
     </defs>
     <use xlink:href="#DejaVuSans-46"/>
     <use xlink:href="#DejaVuSans-65" transform="translate(52.019531 0)"/>
     <use xlink:href="#DejaVuSans-61" transform="translate(113.542969 0)"/>
     <use xlink:href="#DejaVuSans-74" transform="translate(174.822266 0)"/>
    </g>
   </g>
   <g id="text_6">
    <!-- 16% -->
    <g style="fill: #172026" transform="translate(216.735392 358.1173) scale(0.11 -0.11)">
     <defs>
      <path id="DejaVuSans-36" d="M 2113 2584 
Q 1688 2584 1439 2293 
Q 1191 2003 1191 1497 
Q 1191 994 1439 701 
Q 1688 409 2113 409 
Q 2538 409 2786 701 
Q 3034 994 3034 1497 
Q 3034 2003 2786 2293 
Q 2538 2584 2113 2584 
z
M 3366 4563 
L 3366 3988 
Q 3128 4100 2886 4159 
Q 2644 4219 2406 4219 
Q 1781 4219 1451 3797 
Q 1122 3375 1075 2522 
Q 1259 2794 1537 2939 
Q 1816 3084 2150 3084 
Q 2853 3084 3261 2657 
Q 3669 2231 3669 1497 
Q 3669 778 3244 343 
Q 2819 -91 2113 -91 
Q 1303 -91 875 529 
Q 447 1150 447 2328 
Q 447 3434 972 4092 
Q 1497 4750 2381 4750 
Q 2619 4750 2861 4703 
Q 3103 4656 3366 4563 
z
" transform="scale(0.015625)"/>
     </defs>
     <use xlink:href="#DejaVuSans-31"/>
     <use xlink:href="#DejaVuSans-36" transform="translate(63.623047 0)"/>
     <use xlink:href="#DejaVuSans-25" transform="translate(127.246094 0)"/>
    </g>
   </g>
   <g id="text_7">
    <!-- Refactor -->
    <g style="fill: #172026" transform="translate(366.951086 389.663494) scale(0.11 -0.11)">
     <defs>
      <path id="DejaVuSans-52" d="M 2841 2188 
Q 3044 2119 3236 1894 
Q 3428 1669 3622 1275 
L 4263 0 
L 3584 0 
L 2988 1197 
Q 2756 1666 2539 1819 
Q 2322 1972 1947 1972 
L 1259 1972 
L 1259 0 
L 628 0 
L 628 4666 
L 2053 4666 
Q 2853 4666 3247 4331 
Q 3641 3997 3641 3322 
Q 3641 2881 3436 2590 
Q 3231 2300 2841 2188 
z
M 1259 4147 
L 1259 2491 
L 2053 2491 
Q 2509 2491 2742 2702 
Q 2975 2913 2975 3322 
Q 2975 3731 2742 3939 
Q 2509 4147 2053 4147 
L 1259 4147 
z
" transform="scale(0.015625)"/>
      <path id="DejaVuSans-66" d="M 2375 4863 
L 2375 4384 
L 1825 4384 
Q 1516 4384 1395 4259 
Q 1275 4134 1275 3809 
L 1275 3500 
L 2222 3500 
L 2222 3053 
L 1275 3053 
L 1275 0 
L 697 0 
L 697 3053 
L 147 3053 
L 147 3500 
L 697 3500 
L 697 3744 
Q 697 4328 969 4595 
Q 1241 4863 1831 4863 
L 2375 4863 
z
" transform="scale(0.015625)"/>
      <path id="DejaVuSans-63" d="M 3122 3366 
L 3122 2828 
Q 2878 2963 2633 3030 
Q 2388 3097 2138 3097 
Q 1578 3097 1268 2742 
Q 959 2388 959 1747 
Q 959 1106 1268 751 
Q 1578 397 2138 397 
Q 2388 397 2633 464 
Q 2878 531 3122 666 
L 3122 134 
Q 2881 22 2623 -34 
Q 2366 -91 2075 -91 
Q 1284 -91 818 406 
Q 353 903 353 1747 
Q 353 2603 823 3093 
Q 1294 3584 2113 3584 
Q 2378 3584 2631 3529 
Q 2884 3475 3122 3366 
z
" transform="scale(0.015625)"/>
      <path id="DejaVuSans-6f" d="M 1959 3097 
Q 1497 3097 1228 2736 
Q 959 2375 959 1747 
Q 959 1119 1226 758 
Q 1494 397 1959 397 
Q 2419 397 2687 759 
Q 2956 1122 2956 1747 
Q 2956 2369 2687 2733 
Q 2419 3097 1959 3097 
z
M 1959 3584 
Q 2709 3584 3137 3096 
Q 3566 2609 3566 1747 
Q 3566 888 3137 398 
Q 2709 -91 1959 -91 
Q 1206 -91 779 398 
Q 353 888 353 1747 
Q 353 2609 779 3096 
Q 1206 3584 1959 3584 
z
" transform="scale(0.015625)"/>
      <path id="DejaVuSans-72" d="M 2631 2963 
Q 2534 3019 2420 3045 
Q 2306 3072 2169 3072 
Q 1681 3072 1420 2755 
Q 1159 2438 1159 1844 
L 1159 0 
L 581 0 
L 581 3500 
L 1159 3500 
L 1159 2956 
Q 1341 3275 1631 3429 
Q 1922 3584 2338 3584 
Q 2397 3584 2469 3576 
Q 2541 3569 2628 3553 
L 2631 2963 
z
" transform="scale(0.015625)"/>
     </defs>
     <use xlink:href="#DejaVuSans-52"/>
     <use xlink:href="#DejaVuSans-65" transform="translate(64.982422 0)"/>
     <use xlink:href="#DejaVuSans-66" transform="translate(126.505859 0)"/>
     <use xlink:href="#DejaVuSans-61" transform="translate(161.710938 0)"/>
     <use xlink:href="#DejaVuSans-63" transform="translate(222.990234 0)"/>
     <use xlink:href="#DejaVuSans-74" transform="translate(277.970703 0)"/>
     <use xlink:href="#DejaVuSans-6f" transform="translate(317.179688 0)"/>
     <use xlink:href="#DejaVuSans-72" transform="translate(378.361328 0)"/>
    </g>
   </g>
   <g id="text_8">
    <!-- 9% -->
    <g style="fill: #172026" transform="translate(295.502631 326.940315) scale(0.11 -0.11)">
     <defs>
      <path id="DejaVuSans-39" d="M 703 97 
L 703 672 
Q 941 559 1184 500 
Q 1428 441 1663 441 
Q 2288 441 2617 861 
Q 2947 1281 2994 2138 
Q 2813 1869 2534 1725 
Q 2256 1581 1919 1581 
Q 1219 1581 811 2004 
Q 403 2428 403 3163 
Q 403 3881 828 4315 
Q 1253 4750 1959 4750 
Q 2769 4750 3195 4129 
Q 3622 3509 3622 2328 
Q 3622 1225 3098 567 
Q 2575 -91 1691 -91 
Q 1453 -91 1209 -44 
Q 966 3 703 97 
z
M 1959 2075 
Q 2384 2075 2632 2365 
Q 2881 2656 2881 3163 
Q 2881 3666 2632 3958 
Q 2384 4250 1959 4250 
Q 1534 4250 1286 3958 
Q 1038 3666 1038 3163 
Q 1038 2656 1286 2365 
Q 1534 2075 1959 2075 
z
" transform="scale(0.015625)"/>
     </defs>
     <use xlink:href="#DejaVuSans-39"/>
     <use xlink:href="#DejaVuSans-25" transform="translate(63.623047 0)"/>
    </g>
   </g>
   <g id="text_9">
    <!-- BugFix -->
    <g style="fill: #172026" transform="translate(419.955429 291.719977) scale(0.11 -0.11)">
     <defs>
      <path id="DejaVuSans-42" d="M 1259 2228 
L 1259 519 
L 2272 519 
Q 2781 519 3026 730 
Q 3272 941 3272 1375 
Q 3272 1813 3026 2020 
Q 2781 2228 2272 2228 
L 1259 2228 
z
M 1259 4147 
L 1259 2741 
L 2194 2741 
Q 2656 2741 2882 2914 
Q 3109 3088 3109 3444 
Q 3109 3797 2882 3972 
Q 2656 4147 2194 4147 
L 1259 4147 
z
M 628 4666 
L 2241 4666 
Q 2963 4666 3353 4366 
Q 3744 4066 3744 3513 
Q 3744 3084 3544 2831 
Q 3344 2578 2956 2516 
Q 3422 2416 3680 2098 
Q 3938 1781 3938 1306 
Q 3938 681 3513 340 
Q 3088 0 2303 0 
L 628 0 
L 628 4666 
z
" transform="scale(0.015625)"/>
      <path id="DejaVuSans-75" d="M 544 1381 
L 544 3500 
L 1119 3500 
L 1119 1403 
Q 1119 906 1312 657 
Q 1506 409 1894 409 
Q 2359 409 2629 706 
Q 2900 1003 2900 1516 
L 2900 3500 
L 3475 3500 
L 3475 0 
L 2900 0 
L 2900 538 
Q 2691 219 2414 64 
Q 2138 -91 1772 -91 
Q 1169 -91 856 284 
Q 544 659 544 1381 
z
M 1991 3584 
L 1991 3584 
z
" transform="scale(0.015625)"/>
      <path id="DejaVuSans-67" d="M 2906 1791 
Q 2906 2416 2648 2759 
Q 2391 3103 1925 3103 
Q 1463 3103 1205 2759 
Q 947 2416 947 1791 
Q 947 1169 1205 825 
Q 1463 481 1925 481 
Q 2391 481 2648 825 
Q 2906 1169 2906 1791 
z
M 3481 434 
Q 3481 -459 3084 -895 
Q 2688 -1331 1869 -1331 
Q 1566 -1331 1297 -1286 
Q 1028 -1241 775 -1147 
L 775 -588 
Q 1028 -725 1275 -790 
Q 1522 -856 1778 -856 
Q 2344 -856 2625 -561 
Q 2906 -266 2906 331 
L 2906 616 
Q 2728 306 2450 153 
Q 2172 0 1784 0 
Q 1141 0 747 490 
Q 353 981 353 1791 
Q 353 2603 747 3093 
Q 1141 3584 1784 3584 
Q 2172 3584 2450 3431 
Q 2728 3278 2906 2969 
L 2906 3500 
L 3481 3500 
L 3481 434 
z
" transform="scale(0.015625)"/>
     </defs>
     <use xlink:href="#DejaVuSans-42"/>
     <use xlink:href="#DejaVuSans-75" transform="translate(68.603516 0)"/>
     <use xlink:href="#DejaVuSans-67" transform="translate(131.982422 0)"/>
     <use xlink:href="#DejaVuSans-46" transform="translate(195.458984 0)"/>
     <use xlink:href="#DejaVuSans-69" transform="translate(245.728516 0)"/>
     <use xlink:href="#DejaVuSans-78" transform="translate(273.511719 0)"/>
    </g>
   </g>
   <g id="text_10">
    <!-- 9% -->
    <g style="fill: #172026" transform="translate(324.41409 273.516578) scale(0.11 -0.11)">
     <use xlink:href="#DejaVuSans-39"/>
     <use xlink:href="#DejaVuSans-25" transform="translate(63.623047 0)"/>
    </g>
   </g>
   <g id="text_11">
    <!-- Perf -->
    <g style="fill: #172026" transform="translate(413.535134 188.307889) scale(0.11 -0.11)">
     <defs>
      <path id="DejaVuSans-50" d="M 1259 4147 
L 1259 2394 
L 2053 2394 
Q 2494 2394 2734 2622 
Q 2975 2850 2975 3272 
Q 2975 3691 2734 3919 
Q 2494 4147 2053 4147 
L 1259 4147 
z
M 628 4666 
L 2053 4666 
Q 2838 4666 3239 4311 
Q 3641 3956 3641 3272 
Q 3641 2581 3239 2228 
Q 2838 1875 2053 1875 
L 1259 1875 
L 1259 0 
L 628 0 
L 628 4666 
z
" transform="scale(0.015625)"/>
     </defs>
     <use xlink:href="#DejaVuSans-50"/>
     <use xlink:href="#DejaVuSans-65" transform="translate(56.677734 0)"/>
     <use xlink:href="#DejaVuSans-72" transform="translate(118.201172 0)"/>
     <use xlink:href="#DejaVuSans-66" transform="translate(159.314453 0)"/>
    </g>
   </g>
   <g id="text_12">
    <!-- 8% -->
    <g style="fill: #172026" transform="translate(320.912112 217.109985) scale(0.11 -0.11)">
     <use xlink:href="#DejaVuSans-38"/>
     <use xlink:href="#DejaVuSans-25" transform="translate(63.623047 0)"/>
    </g>
   </g>
   <g id="text_13">
    <!-- Bench -->
    <g style="fill: #172026" transform="translate(366.951103 113.681524) scale(0.11 -0.11)">
     <defs>
      <path id="DejaVuSans-6e" d="M 3513 2113 
L 3513 0 
L 2938 0 
L 2938 2094 
Q 2938 2591 2744 2837 
Q 2550 3084 2163 3084 
Q 1697 3084 1428 2787 
Q 1159 2491 1159 1978 
L 1159 0 
L 581 0 
L 581 3500 
L 1159 3500 
L 1159 2956 
Q 1366 3272 1645 3428 
Q 1925 3584 2291 3584 
Q 2894 3584 3203 3211 
Q 3513 2838 3513 2113 
z
" transform="scale(0.015625)"/>
      <path id="DejaVuSans-68" d="M 3513 2113 
L 3513 0 
L 2938 0 
L 2938 2094 
Q 2938 2591 2744 2837 
Q 2550 3084 2163 3084 
Q 1697 3084 1428 2787 
Q 1159 2491 1159 1978 
L 1159 0 
L 581 0 
L 581 4863 
L 1159 4863 
L 1159 2956 
Q 1366 3272 1645 3428 
Q 1925 3584 2291 3584 
Q 2894 3584 3203 3211 
Q 3513 2838 3513 2113 
z
" transform="scale(0.015625)"/>
     </defs>
     <use xlink:href="#DejaVuSans-42"/>
     <use xlink:href="#DejaVuSans-65" transform="translate(68.603516 0)"/>
     <use xlink:href="#DejaVuSans-6e" transform="translate(130.126953 0)"/>
     <use xlink:href="#DejaVuSans-63" transform="translate(193.505859 0)"/>
     <use xlink:href="#DejaVuSans-68" transform="translate(248.486328 0)"/>
    </g>
   </g>
   <g id="text_14">
    <!-- 7% -->
    <g style="fill: #172026" transform="translate(295.50264 176.404695) scale(0.11 -0.11)">
     <defs>
      <path id="DejaVuSans-37" d="M 525 4666 
L 3525 4666 
L 3525 4397 
L 1831 0 
L 1172 0 
L 2766 4134 
L 525 4134 
L 525 4666 
z
" transform="scale(0.015625)"/>
     </defs>
     <use xlink:href="#DejaVuSans-37"/>
     <use xlink:href="#DejaVuSans-25" transform="translate(63.623047 0)"/>
    </g>
   </g>
   <g id="text_15">
    <!-- Chore -->
    <g style="fill: #172026" transform="translate(307.350457 72.960468) scale(0.11 -0.11)">
     <use xlink:href="#DejaVuSans-43"/>
     <use xlink:href="#DejaVuSans-68" transform="translate(69.824219 0)"/>
     <use xlink:href="#DejaVuSans-6f" transform="translate(133.203125 0)"/>
     <use xlink:href="#DejaVuSans-72" transform="translate(194.384766 0)"/>
     <use xlink:href="#DejaVuSans-65" transform="translate(233.248047 0)"/>
    </g>
   </g>
   <g id="text_16">
    <!-- 5% -->
    <g style="fill: #172026" transform="translate(262.993197 154.19321) scale(0.11 -0.11)">
     <defs>
      <path id="DejaVuSans-35" d="M 691 4666 
L 3169 4666 
L 3169 4134 
L 1269 4134 
L 1269 2991 
Q 1406 3038 1543 3061 
Q 1681 3084 1819 3084 
Q 2600 3084 3056 2656 
Q 3513 2228 3513 1497 
Q 3513 744 3044 326 
Q 2575 -91 1722 -91 
Q 1428 -91 1123 -41 
Q 819 9 494 109 
L 494 744 
Q 775 591 1075 516 
Q 1375 441 1709 441 
Q 2250 441 2565 725 
Q 2881 1009 2881 1497 
Q 2881 1984 2565 2268 
Q 2250 2553 1709 2553 
Q 1456 2553 1204 2497 
Q 953 2441 691 2322 
L 691 4666 
z
" transform="scale(0.015625)"/>
     </defs>
     <use xlink:href="#DejaVuSans-35"/>
     <use xlink:href="#DejaVuSans-25" transform="translate(63.623047 0)"/>
    </g>
   </g>
   <g id="text_17">
    <!-- Doc -->
    <g style="fill: #172026" transform="translate(269.007628 60.677103) scale(0.11 -0.11)">
     <defs>
      <path id="DejaVuSans-44" d="M 1259 4147 
L 1259 519 
L 2022 519 
Q 2988 519 3436 956 
Q 3884 1394 3884 2338 
Q 3884 3275 3436 3711 
Q 2988 4147 2022 4147 
L 1259 4147 
z
M 628 4666 
L 1925 4666 
Q 3281 4666 3915 4102 
Q 4550 3538 4550 2338 
Q 4550 1131 3912 565 
Q 3275 0 1925 0 
L 628 0 
L 628 4666 
z
" transform="scale(0.015625)"/>
     </defs>
     <use xlink:href="#DejaVuSans-44"/>
     <use xlink:href="#DejaVuSans-6f" transform="translate(77.001953 0)"/>
     <use xlink:href="#DejaVuSans-63" transform="translate(138.183594 0)"/>
    </g>
   </g>
   <g id="text_18">
    <!-- Test -->
    <g style="fill: #172026" transform="translate(253.098651 58.022352) scale(0.11 -0.11)">
     <defs>
      <path id="DejaVuSans-54" d="M -19 4666 
L 3928 4666 
L 3928 4134 
L 2272 4134 
L 2272 0 
L 1638 0 
L 1638 4134 
L -19 4134 
L -19 4666 
z
" transform="scale(0.015625)"/>
      <path id="DejaVuSans-73" d="M 2834 3397 
L 2834 2853 
Q 2591 2978 2328 3040 
Q 2066 3103 1784 3103 
Q 1356 3103 1142 2972 
Q 928 2841 928 2578 
Q 928 2378 1081 2264 
Q 1234 2150 1697 2047 
L 1894 2003 
Q 2506 1872 2764 1633 
Q 3022 1394 3022 966 
Q 3022 478 2636 193 
Q 2250 -91 1575 -91 
Q 1294 -91 989 -36 
Q 684 19 347 128 
L 347 722 
Q 666 556 975 473 
Q 1284 391 1588 391 
Q 1994 391 2212 530 
Q 2431 669 2431 922 
Q 2431 1156 2273 1281 
Q 2116 1406 1581 1522 
L 1381 1569 
Q 847 1681 609 1914 
Q 372 2147 372 2553 
Q 372 3047 722 3315 
Q 1072 3584 1716 3584 
Q 2034 3584 2315 3537 
Q 2597 3491 2834 3397 
z
" transform="scale(0.015625)"/>
     </defs>
     <use xlink:href="#DejaVuSans-54"/>
     <use xlink:href="#DejaVuSans-65" transform="translate(44.083984 0)"/>
     <use xlink:href="#DejaVuSans-73" transform="translate(105.607422 0)"/>
     <use xlink:href="#DejaVuSans-74" transform="translate(157.707031 0)"/>
    </g>
   </g>
   <g id="text_19">
    <!-- Docs -->
    <g style="fill: #172026" transform="translate(237.024784 56.690415) scale(0.11 -0.11)">
     <use xlink:href="#DejaVuSans-44"/>
     <use xlink:href="#DejaVuSans-6f" transform="translate(77.001953 0)"/>
     <use xlink:href="#DejaVuSans-63" transform="translate(138.183594 0)"/>
     <use xlink:href="#DejaVuSans-73" transform="translate(193.164062 0)"/>
    </g>
   </g>
   <g id="text_20">
    <!-- 76 -->
    <g style="fill: #172026" transform="translate(205.303438 249.148662) scale(0.34 -0.34)">
     <defs>
      <path id="DejaVuSans-Bold-37" d="M 428 4666 
L 3944 4666 
L 3944 3988 
L 2125 0 
L 953 0 
L 2675 3781 
L 428 3781 
L 428 4666 
z
" transform="scale(0.015625)"/>
      <path id="DejaVuSans-Bold-36" d="M 2316 2303 
Q 2000 2303 1842 2098 
Q 1684 1894 1684 1484 
Q 1684 1075 1842 870 
Q 2000 666 2316 666 
Q 2634 666 2792 870 
Q 2950 1075 2950 1484 
Q 2950 1894 2792 2098 
Q 2634 2303 2316 2303 
z
M 3803 4544 
L 3803 3681 
Q 3506 3822 3243 3889 
Q 2981 3956 2731 3956 
Q 2194 3956 1894 3657 
Q 1594 3359 1544 2772 
Q 1750 2925 1990 3001 
Q 2231 3078 2516 3078 
Q 3231 3078 3670 2659 
Q 4109 2241 4109 1563 
Q 4109 813 3618 361 
Q 3128 -91 2303 -91 
Q 1394 -91 895 523 
Q 397 1138 397 2266 
Q 397 3422 980 4083 
Q 1563 4744 2578 4744 
Q 2900 4744 3203 4694 
Q 3506 4644 3803 4544 
z
" transform="scale(0.015625)"/>
     </defs>
     <use xlink:href="#DejaVuSans-Bold-37"/>
     <use xlink:href="#DejaVuSans-Bold-36" transform="translate(69.580078 0)"/>
    </g>
   </g>
   <g id="text_21">
    <!-- main commits -->
    <g style="fill: #63707a" transform="translate(189.817188 280.05778) scale(0.11 -0.11)">
     <defs>
      <path id="DejaVuSans-6d" d="M 3328 2828 
Q 3544 3216 3844 3400 
Q 4144 3584 4550 3584 
Q 5097 3584 5394 3201 
Q 5691 2819 5691 2113 
L 5691 0 
L 5113 0 
L 5113 2094 
Q 5113 2597 4934 2840 
Q 4756 3084 4391 3084 
Q 3944 3084 3684 2787 
Q 3425 2491 3425 1978 
L 3425 0 
L 2847 0 
L 2847 2094 
Q 2847 2600 2669 2842 
Q 2491 3084 2119 3084 
Q 1678 3084 1418 2786 
Q 1159 2488 1159 1978 
L 1159 0 
L 581 0 
L 581 3500 
L 1159 3500 
L 1159 2956 
Q 1356 3278 1631 3431 
Q 1906 3584 2284 3584 
Q 2666 3584 2933 3390 
Q 3200 3197 3328 2828 
z
" transform="scale(0.015625)"/>
      <path id="DejaVuSans-20" transform="scale(0.015625)"/>
     </defs>
     <use xlink:href="#DejaVuSans-6d"/>
     <use xlink:href="#DejaVuSans-61" transform="translate(97.412109 0)"/>
     <use xlink:href="#DejaVuSans-69" transform="translate(158.691406 0)"/>
     <use xlink:href="#DejaVuSans-6e" transform="translate(186.474609 0)"/>
     <use xlink:href="#DejaVuSans-20" transform="translate(249.853516 0)"/>
     <use xlink:href="#DejaVuSans-63" transform="translate(281.640625 0)"/>
     <use xlink:href="#DejaVuSans-6f" transform="translate(336.621094 0)"/>
     <use xlink:href="#DejaVuSans-6d" transform="translate(397.802734 0)"/>
     <use xlink:href="#DejaVuSans-6d" transform="translate(495.214844 0)"/>
     <use xlink:href="#DejaVuSans-69" transform="translate(592.626953 0)"/>
     <use xlink:href="#DejaVuSans-74" transform="translate(620.410156 0)"/>
     <use xlink:href="#DejaVuSans-73" transform="translate(659.619141 0)"/>
    </g>
   </g>
   <g id="text_22">
    <!-- 提交类型分布 -->
    <g transform="translate(7.2 20.877187) scale(0.18 -0.18)">
     <defs>
      <path id="DroidSansFallback-63d0" d="M 2175 2525 
L 2250 2075 
L 1600 1750 
L 1600 -25 
Q 1575 -575 1075 -575 
L 525 -500 
L 425 25 
Q 700 -75 1000 -75 
Q 1100 -75 1100 225 
L 1100 1525 
L 500 1300 
L 300 1825 
L 1100 2100 
L 1100 3650 
L 400 3650 
L 400 4125 
L 1100 4125 
L 1100 5175 
L 1600 5175 
L 1600 4125 
L 2275 4125 
L 2275 3650 
L 1600 3650 
L 1600 2275 
L 2175 2525 
z
M 2600 5050 
L 5500 5050 
L 5500 2750 
L 2600 2750 
L 2600 5050 
z
M 3075 4125 
L 5025 4125 
L 5025 4600 
L 3075 4600 
L 3075 4125 
z
M 3075 3200 
L 5025 3200 
L 5025 3675 
L 3075 3675 
L 3075 3200 
z
M 2700 1725 
L 3150 1625 
Q 3100 1200 2950 825 
Q 3275 375 3850 175 
L 3850 1875 
L 2175 1875 
L 2175 2325 
L 5825 2325 
L 5825 1875 
L 4325 1875 
L 4325 1200 
L 5500 1200 
L 5500 750 
L 4325 750 
L 4325 75 
Q 4775 0 6025 0 
L 5875 -500 
L 5400 -500 
Q 3500 -500 2750 350 
Q 2500 -175 2125 -575 
L 1750 -225 
Q 2575 650 2700 1725 
z
" transform="scale(0.015625)"/>
      <path id="DroidSansFallback-4ea4" d="M 450 4350 
L 2900 4350 
L 2575 5025 
L 3100 5200 
L 3475 4350 
L 5925 4350 
L 5925 3875 
L 450 3875 
L 450 4350 
z
M 2025 3700 
L 2425 3375 
Q 1775 2575 750 2075 
L 450 2550 
Q 1325 2950 2025 3700 
z
M 4350 3650 
Q 5175 3150 5850 2500 
L 5475 2050 
Q 4775 2775 4000 3300 
L 4350 3650 
z
M 4275 2425 
L 4750 2225 
Q 4350 1450 3700 875 
Q 4875 200 6125 -75 
L 5825 -600 
Q 4225 -125 3275 525 
Q 2075 -250 550 -625 
L 300 -125 
Q 1850 200 2800 850 
Q 2075 1400 1525 2075 
L 1950 2400 
Q 2475 1700 3225 1175 
Q 3850 1700 4275 2425 
z
" transform="scale(0.015625)"/>
      <path id="DroidSansFallback-7c7b" d="M 425 1475 
L 2750 1475 
L 2850 2100 
L 3325 2050 
L 3250 1475 
L 5950 1475 
L 5950 1000 
L 3625 1000 
Q 4275 250 6075 -50 
L 5800 -575 
Q 3875 -175 3075 950 
Q 2600 -225 575 -575 
L 250 -100 
Q 1850 175 2525 1000 
L 425 1000 
L 425 1475 
z
M 625 4025 
L 3000 4025 
L 3000 5225 
L 3475 5225 
L 3475 4025 
L 5850 4025 
L 5850 3575 
L 3475 3575 
L 3475 2300 
L 3000 2300 
L 3000 3525 
Q 2175 2625 825 2100 
L 500 2525 
Q 1650 2925 2450 3575 
L 625 3575 
L 625 4025 
z
M 1550 5175 
L 2325 4500 
L 1950 4125 
Q 1625 4550 1175 4900 
L 1550 5175 
z
M 4700 5175 
L 5125 4925 
Q 4750 4425 4350 4125 
L 4000 4450 
Q 4425 4775 4700 5175 
z
M 4075 3375 
L 5725 2425 
L 5375 2000 
L 3775 3000 
L 4075 3375 
z
" transform="scale(0.015625)"/>
      <path id="DroidSansFallback-578b" d="M 2950 1675 
L 3475 1675 
L 3475 1100 
L 5625 1100 
L 5625 650 
L 3475 650 
L 3475 75 
L 6050 75 
L 6050 -400 
L 325 -400 
L 325 75 
L 2950 75 
L 2950 650 
L 800 650 
L 800 1100 
L 2950 1100 
L 2950 1675 
z
M 600 4950 
L 3550 4950 
L 3550 4500 
L 2950 4500 
L 2950 3600 
L 3700 3600 
L 3700 3150 
L 2950 3150 
L 2950 1725 
L 2475 1725 
L 2475 3150 
L 1675 3150 
Q 1625 2250 750 1650 
L 475 2100 
Q 1150 2550 1200 3150 
L 400 3150 
L 400 3600 
L 1200 3600 
L 1200 4500 
L 600 4500 
L 600 4950 
z
M 2475 3600 
L 2475 4500 
L 1675 4500 
L 1675 3600 
L 2475 3600 
z
M 5175 5075 
L 5650 5075 
L 5650 2200 
Q 5650 1825 5525 1675 
Q 5400 1525 5000 1525 
L 4400 1600 
L 4300 2125 
Q 4600 2025 4925 2025 
Q 5175 2025 5175 2275 
L 5175 5075 
z
M 4025 4725 
L 4525 4725 
L 4525 2425 
L 4025 2425 
L 4025 4725 
z
" transform="scale(0.015625)"/>
      <path id="DroidSansFallback-5206" d="M 4125 5150 
Q 5050 3700 6100 2950 
L 5775 2400 
Q 4725 3200 3750 4750 
L 4125 5150 
z
M 2300 5125 
L 2675 4825 
Q 1850 3350 700 2350 
L 350 2825 
Q 1425 3650 2300 5125 
z
M 1350 2700 
L 5050 2700 
Q 5050 625 4912 50 
Q 4775 -525 4150 -525 
L 3450 -475 
L 3350 50 
L 4075 0 
Q 4275 0 4362 250 
Q 4450 500 4500 2225 
L 2950 2225 
Q 2875 1175 2425 550 
Q 1975 -75 900 -575 
L 500 -150 
Q 1500 300 1900 825 
Q 2300 1350 2425 2225 
L 1350 2225 
L 1350 2700 
z
" transform="scale(0.015625)"/>
      <path id="DroidSansFallback-5e03" d="M 425 4350 
L 2250 4350 
L 2650 5225 
L 3150 5075 
L 2850 4350 
L 6000 4350 
L 6000 3875 
L 2625 3875 
L 1975 2750 
L 3275 2750 
L 3275 3700 
L 3775 3700 
L 3775 2750 
L 5575 2750 
L 5575 700 
Q 5575 100 4900 100 
L 4275 175 
L 4150 650 
L 4875 575 
Q 5075 575 5075 825 
L 5075 2275 
L 3775 2275 
L 3775 -575 
L 3275 -575 
L 3275 2275 
L 2000 2275 
L 2000 -50 
L 1500 -50 
L 1500 2125 
Q 1100 1625 600 1200 
L 275 1525 
Q 1275 2575 2000 3875 
L 425 3875 
L 425 4350 
z
" transform="scale(0.015625)"/>
     </defs>
     <use xlink:href="#DroidSansFallback-63d0"/>
     <use xlink:href="#DroidSansFallback-4ea4" transform="translate(100 0)"/>
     <use xlink:href="#DroidSansFallback-7c7b" transform="translate(200 0)"/>
     <use xlink:href="#DroidSansFallback-578b" transform="translate(300 0)"/>
     <use xlink:href="#DroidSansFallback-5206" transform="translate(400 0)"/>
     <use xlink:href="#DroidSansFallback-5e03" transform="translate(500 0)"/>
    </g>
   </g>
  </g>
 </g>
</svg>
