<?xml version="1.0" encoding="utf-8" standalone="no"?>
<!DOCTYPE svg PUBLIC "-//W3C//DTD SVG 1.1//EN"
  "http://www.w3.org/Graphics/SVG/1.1/DTD/svg11.dtd">
<svg xmlns:xlink="http://www.w3.org/1999/xlink" width="1093.583226pt" height="633.700503pt" viewBox="0 0 1093.583226 633.700503" xmlns="http://www.w3.org/2000/svg" version="1.1">
 <metadata>
  <rdf:RDF xmlns:dc="http://purl.org/dc/elements/1.1/" xmlns:cc="http://creativecommons.org/ns#" xmlns:rdf="http://www.w3.org/1999/02/22-rdf-syntax-ns#">
   <cc:Work>
    <dc:type rdf:resource="http://purl.org/dc/dcmitype/StillImage"/>
    <dc:date>2026-05-05T22:54:58.666954</dc:date>
    <dc:format>image/svg+xml</dc:format>
    <dc:creator>
     <cc:Agent>
      <dc:title>Matplotlib v3.10.0, https://matplotlib.org/</dc:title>
     </cc:Agent>
    </dc:creator>
   </cc:Work>
  </rdf:RDF>
 </metadata>
 <defs>
  <style type="text/css">*{stroke-linejoin: round; stroke-linecap: butt}</style>
 </defs>
 <g id="figure_1">
  <g id="patch_1">
   <path d="M 0 633.700503 
L 1093.583226 633.700503 
L 1093.583226 0 
L 0 0 
z
" style="fill: #ffffff"/>
  </g>
  <g id="axes_1">
   <g id="patch_2">
    <path d="M 86.325 559.66 
L 710.970662 559.66 
L 710.970662 60.7 
L 86.325 60.7 
z
" style="fill: #ffffff"/>
   </g>
   <g id="matplotlib.axis_1">
    <g id="xtick_1">
     <g id="line2d_1">
      <path d="M 86.325 559.66 
L 86.325 60.7 
" clip-path="url(#p7fc0f37d63)" style="fill: none; stroke: #dce4ea; stroke-opacity: 0.8; stroke-width: 0.9; stroke-linecap: square"/>
     </g>
     <g id="line2d_2">
      <defs>
       <path id="m26409c9eb2" d="M 0 0 
L 0 3.5 
" style="stroke: #63707a; stroke-width: 0.8"/>
      </defs>
      <g>
       <use xlink:href="#m26409c9eb2" x="86.325" y="559.66" style="fill: #63707a; stroke: #63707a; stroke-width: 0.8"/>
      </g>
     </g>
     <g id="text_1">
      <!-- 0 -->
      <g style="fill: #63707a" transform="translate(83.14375 574.258437) scale(0.1 -0.1)">
       <defs>
        <path id="DejaVuSans-30" d="M 2034 4250 
Q 1547 4250 1301 3770 
Q 1056 3291 1056 2328 
Q 1056 1369 1301 889 
Q 1547 409 2034 409 
Q 2525 409 2770 889 
Q 3016 1369 3016 2328 
Q 3016 3291 2770 3770 
Q 2525 4250 2034 4250 
z
M 2034 4750 
Q 2819 4750 3233 4129 
Q 3647 3509 3647 2328 
Q 3647 1150 3233 529 
Q 2819 -91 2034 -91 
Q 1250 -91 836 529 
Q 422 1150 422 2328 
Q 422 3509 836 4129 
Q 1250 4750 2034 4750 
z
" transform="scale(0.015625)"/>
       </defs>
       <use xlink:href="#DejaVuSans-30"/>
      </g>
     </g>
    </g>
    <g id="xtick_2">
     <g id="line2d_3">
      <path d="M 197.868868 559.66 
L 197.868868 60.7 
" clip-path="url(#p7fc0f37d63)" style="fill: none; stroke: #dce4ea; stroke-opacity: 0.8; stroke-width: 0.9; stroke-linecap: square"/>
     </g>
     <g id="line2d_4">
      <g>
       <use xlink:href="#m26409c9eb2" x="197.868868" y="559.66" style="fill: #63707a; stroke: #63707a; stroke-width: 0.8"/>
      </g>
     </g>
     <g id="text_2">
      <!-- 20 -->
      <g style="fill: #63707a" transform="translate(191.506368 574.258437) scale(0.1 -0.1)">
       <defs>
        <path id="DejaVuSans-32" d="M 1228 531 
L 3431 531 
L 3431 0 
L 469 0 
L 469 531 
Q 828 903 1448 1529 
Q 2069 2156 2228 2338 
Q 2531 2678 2651 2914 
Q 2772 3150 2772 3378 
Q 2772 3750 2511 3984 
Q 2250 4219 1831 4219 
Q 1534 4219 1204 4116 
Q 875 4013 500 3803 
L 500 4441 
Q 881 4594 1212 4672 
Q 1544 4750 1819 4750 
Q 2544 4750 2975 4387 
Q 3406 4025 3406 3419 
Q 3406 3131 3298 2873 
Q 3191 2616 2906 2266 
Q 2828 2175 2409 1742 
Q 1991 1309 1228 531 
z
" transform="scale(0.015625)"/>
       </defs>
       <use xlink:href="#DejaVuSans-32"/>
       <use xlink:href="#DejaVuSans-30" transform="translate(63.623047 0)"/>
      </g>
     </g>
    </g>
    <g id="xtick_3">
     <g id="line2d_5">
      <path d="M 309.412736 559.66 
L 309.412736 60.7 
" clip-path="url(#p7fc0f37d63)" style="fill: none; stroke: #dce4ea; stroke-opacity: 0.8; stroke-width: 0.9; stroke-linecap: square"/>
     </g>
     <g id="line2d_6">
      <g>
       <use xlink:href="#m26409c9eb2" x="309.412736" y="559.66" style="fill: #63707a; stroke: #63707a; stroke-width: 0.8"/>
      </g>
     </g>
     <g id="text_3">
      <!-- 40 -->
      <g style="fill: #63707a" transform="translate(303.050236 574.258437) scale(0.1 -0.1)">
       <defs>
        <path id="DejaVuSans-34" d="M 2419 4116 
L 825 1625 
L 2419 1625 
L 2419 4116 
z
M 2253 4666 
L 3047 4666 
L 3047 1625 
L 3713 1625 
L 3713 1100 
L 3047 1100 
L 3047 0 
L 2419 0 
L 2419 1100 
L 313 1100 
L 313 1709 
L 2253 4666 
z
" transform="scale(0.015625)"/>
       </defs>
       <use xlink:href="#DejaVuSans-34"/>
       <use xlink:href="#DejaVuSans-30" transform="translate(63.623047 0)"/>
      </g>
     </g>
    </g>
    <g id="xtick_4">
     <g id="line2d_7">
      <path d="M 420.956605 559.66 
L 420.956605 60.7 
" clip-path="url(#p7fc0f37d63)" style="fill: none; stroke: #dce4ea; stroke-opacity: 0.8; stroke-width: 0.9; stroke-linecap: square"/>
     </g>
     <g id="line2d_8">
      <g>
       <use xlink:href="#m26409c9eb2" x="420.956605" y="559.66" style="fill: #63707a; stroke: #63707a; stroke-width: 0.8"/>
      </g>
     </g>
     <g id="text_4">
      <!-- 60 -->
      <g style="fill: #63707a" transform="translate(414.594105 574.258437) scale(0.1 -0.1)">
       <defs>
        <path id="DejaVuSans-36" d="M 2113 2584 
Q 1688 2584 1439 2293 
Q 1191 2003 1191 1497 
Q 1191 994 1439 701 
Q 1688 409 2113 409 
Q 2538 409 2786 701 
Q 3034 994 3034 1497 
Q 3034 2003 2786 2293 
Q 2538 2584 2113 2584 
z
M 3366 4563 
L 3366 3988 
Q 3128 4100 2886 4159 
Q 2644 4219 2406 4219 
Q 1781 4219 1451 3797 
Q 1122 3375 1075 2522 
Q 1259 2794 1537 2939 
Q 1816 3084 2150 3084 
Q 2853 3084 3261 2657 
Q 3669 2231 3669 1497 
Q 3669 778 3244 343 
Q 2819 -91 2113 -91 
Q 1303 -91 875 529 
Q 447 1150 447 2328 
Q 447 3434 972 4092 
Q 1497 4750 2381 4750 
Q 2619 4750 2861 4703 
Q 3103 4656 3366 4563 
z
" transform="scale(0.015625)"/>
       </defs>
       <use xlink:href="#DejaVuSans-36"/>
       <use xlink:href="#DejaVuSans-30" transform="translate(63.623047 0)"/>
      </g>
     </g>
    </g>
    <g id="xtick_5">
     <g id="line2d_9">
      <path d="M 532.500473 559.66 
L 532.500473 60.7 
" clip-path="url(#p7fc0f37d63)" style="fill: none; stroke: #dce4ea; stroke-opacity: 0.8; stroke-width: 0.9; stroke-linecap: square"/>
     </g>
     <g id="line2d_10">
      <g>
       <use xlink:href="#m26409c9eb2" x="532.500473" y="559.66" style="fill: #63707a; stroke: #63707a; stroke-width: 0.8"/>
      </g>
     </g>
     <g id="text_5">
      <!-- 80 -->
      <g style="fill: #63707a" transform="translate(526.137973 574.258437) scale(0.1 -0.1)">
       <defs>
        <path id="DejaVuSans-38" d="M 2034 2216 
Q 1584 2216 1326 1975 
Q 1069 1734 1069 1313 
Q 1069 891 1326 650 
Q 1584 409 2034 409 
Q 2484 409 2743 651 
Q 3003 894 3003 1313 
Q 3003 1734 2745 1975 
Q 2488 2216 2034 2216 
z
M 1403 2484 
Q 997 2584 770 2862 
Q 544 3141 544 3541 
Q 544 4100 942 4425 
Q 1341 4750 2034 4750 
Q 2731 4750 3128 4425 
Q 3525 4100 3525 3541 
Q 3525 3141 3298 2862 
Q 3072 2584 2669 2484 
Q 3125 2378 3379 2068 
Q 3634 1759 3634 1313 
Q 3634 634 3220 271 
Q 2806 -91 2034 -91 
Q 1263 -91 848 271 
Q 434 634 434 1313 
Q 434 1759 690 2068 
Q 947 2378 1403 2484 
z
M 1172 3481 
Q 1172 3119 1398 2916 
Q 1625 2713 2034 2713 
Q 2441 2713 2670 2916 
Q 2900 3119 2900 3481 
Q 2900 3844 2670 4047 
Q 2441 4250 2034 4250 
Q 1625 4250 1398 4047 
Q 1172 3844 1172 3481 
z
" transform="scale(0.015625)"/>
       </defs>
       <use xlink:href="#DejaVuSans-38"/>
       <use xlink:href="#DejaVuSans-30" transform="translate(63.623047 0)"/>
      </g>
     </g>
    </g>
    <g id="xtick_6">
     <g id="line2d_11">
      <path d="M 644.044341 559.66 
L 644.044341 60.7 
" clip-path="url(#p7fc0f37d63)" style="fill: none; stroke: #dce4ea; stroke-opacity: 0.8; stroke-width: 0.9; stroke-linecap: square"/>
     </g>
     <g id="line2d_12">
      <g>
       <use xlink:href="#m26409c9eb2" x="644.044341" y="559.66" style="fill: #63707a; stroke: #63707a; stroke-width: 0.8"/>
      </g>
     </g>
     <g id="text_6">
      <!-- 100 -->
      <g style="fill: #63707a" transform="translate(634.500591 574.258437) scale(0.1 -0.1)">
       <defs>
        <path id="DejaVuSans-31" d="M 794 531 
L 1825 531 
L 1825 4091 
L 703 3866 
L 703 4441 
L 1819 4666 
L 2450 4666 
L 2450 531 
L 3481 531 
L 3481 0 
L 794 0 
L 794 531 
z
" transform="scale(0.015625)"/>
       </defs>
       <use xlink:href="#DejaVuSans-31"/>
       <use xlink:href="#DejaVuSans-30" transform="translate(63.623047 0)"/>
       <use xlink:href="#DejaVuSans-30" transform="translate(127.246094 0)"/>
      </g>
     </g>
    </g>
    <g id="text_7">
     <!-- 性能占 FA3 的比例（%） -->
     <g style="fill: #63707a" transform="translate(330.307831 589.4675) scale(0.12 -0.12)">
      <defs>
       <path id="DroidSansFallback-6027" d="M 1600 3625 
L 1600 -575 
L 1150 -575 
L 1150 5175 
L 1600 5175 
L 1600 4225 
L 2300 3525 
L 2000 3100 
L 1600 3625 
z
M 500 3925 
L 925 3825 
Q 875 2850 700 2050 
L 275 2250 
L 500 3925 
z
M 2850 4825 
L 3300 4675 
L 3100 3800 
L 4025 3800 
L 4025 5150 
L 4525 5150 
L 4525 3800 
L 5950 3800 
L 5950 3325 
L 4525 3325 
L 4525 1950 
L 5875 1950 
L 5875 1475 
L 4525 1475 
L 4525 125 
L 6100 125 
L 6100 -350 
L 2325 -350 
L 2325 125 
L 4025 125 
L 4025 1475 
L 2625 1475 
L 2625 1950 
L 4025 1950 
L 4025 3325 
L 2950 3325 
Q 2775 2675 2525 2225 
L 2100 2550 
Q 2625 3550 2850 4825 
z
" transform="scale(0.015625)"/>
       <path id="DroidSansFallback-80fd" d="M 2625 4775 
Q 3125 4175 3450 3500 
L 3025 3250 
L 2850 3600 
L 550 3350 
L 425 3775 
Q 1150 4250 1650 5200 
L 2150 5050 
Q 1675 4175 1275 3850 
L 2600 4025 
L 2225 4525 
L 2625 4775 
z
M 3050 3050 
L 3050 75 
Q 3050 -525 2425 -525 
L 1775 -475 
L 1675 -25 
L 2400 -75 
Q 2550 -75 2550 150 
L 2550 700 
L 1250 700 
L 1250 -575 
L 750 -575 
L 750 3050 
L 3050 3050 
z
M 1250 2050 
L 2550 2050 
L 2550 2600 
L 1250 2600 
L 1250 2050 
z
M 1250 1100 
L 2550 1100 
L 2550 1650 
L 1250 1650 
L 1250 1100 
z
M 3600 5025 
L 4075 5025 
L 4075 4175 
L 5625 4700 
L 5900 4300 
Q 5075 3950 4075 3725 
L 4075 3050 
Q 4075 2950 4200 2900 
Q 4325 2850 4975 2850 
Q 5300 2850 5412 2975 
Q 5525 3100 5575 3550 
L 6025 3350 
Q 5925 2725 5737 2575 
Q 5550 2425 4975 2425 
Q 4075 2425 3837 2550 
Q 3600 2675 3600 2950 
L 3600 5025 
z
M 3600 2175 
L 4075 2175 
L 4075 1300 
Q 4950 1525 5700 1850 
L 6000 1425 
Q 5125 1075 4075 850 
L 4075 100 
Q 4075 0 4212 -37 
Q 4350 -75 5025 -75 
Q 5400 -75 5500 37 
Q 5600 150 5650 650 
L 6125 450 
Q 6025 -200 5837 -362 
Q 5650 -525 5025 -525 
Q 4100 -525 3850 -400 
Q 3600 -275 3600 25 
L 3600 2175 
z
" transform="scale(0.015625)"/>
       <path id="DroidSansFallback-5360" d="M 2675 5175 
L 3175 5175 
L 3175 4075 
L 5725 4075 
L 5725 3600 
L 3175 3600 
L 3175 2425 
L 5400 2425 
L 5400 -575 
L 4900 -575 
L 4900 -150 
L 1450 -150 
L 1450 -575 
L 950 -575 
L 950 2425 
L 2675 2425 
L 2675 5175 
z
M 1450 325 
L 4900 325 
L 4900 1950 
L 1450 1950 
L 1450 325 
z
" transform="scale(0.015625)"/>
       <path id="DejaVuSans-20" transform="scale(0.015625)"/>
       <path id="DejaVuSans-46" d="M 628 4666 
L 3309 4666 
L 3309 4134 
L 1259 4134 
L 1259 2759 
L 3109 2759 
L 3109 2228 
L 1259 2228 
L 1259 0 
L 628 0 
L 628 4666 
z
" transform="scale(0.015625)"/>
       <path id="DejaVuSans-41" d="M 2188 4044 
L 1331 1722 
L 3047 1722 
L 2188 4044 
z
M 1831 4666 
L 2547 4666 
L 4325 0 
L 3669 0 
L 3244 1197 
L 1141 1197 
L 716 0 
L 50 0 
L 1831 4666 
z
" transform="scale(0.015625)"/>
       <path id="DejaVuSans-33" d="M 2597 2516 
Q 3050 2419 3304 2112 
Q 3559 1806 3559 1356 
Q 3559 666 3084 287 
Q 2609 -91 1734 -91 
Q 1441 -91 1130 -33 
Q 819 25 488 141 
L 488 750 
Q 750 597 1062 519 
Q 1375 441 1716 441 
Q 2309 441 2620 675 
Q 2931 909 2931 1356 
Q 2931 1769 2642 2001 
Q 2353 2234 1838 2234 
L 1294 2234 
L 1294 2753 
L 1863 2753 
Q 2328 2753 2575 2939 
Q 2822 3125 2822 3475 
Q 2822 3834 2567 4026 
Q 2313 4219 1838 4219 
Q 1578 4219 1281 4162 
Q 984 4106 628 3988 
L 628 4550 
Q 988 4650 1302 4700 
Q 1616 4750 1894 4750 
Q 2613 4750 3031 4423 
Q 3450 4097 3450 3541 
Q 3450 3153 3228 2886 
Q 3006 2619 2597 2516 
z
" transform="scale(0.015625)"/>
       <path id="DroidSansFallback-7684" d="M 3775 5150 
L 4275 5050 
L 3950 4125 
L 5900 4125 
Q 5900 1325 5750 375 
Q 5600 -575 4850 -575 
L 4075 -475 
L 3950 50 
L 4850 -50 
Q 5075 -50 5175 150 
Q 5275 350 5325 1225 
Q 5375 2100 5375 3650 
L 3700 3650 
Q 3400 3125 3050 2775 
L 2675 3125 
Q 3425 3950 3775 5150 
z
M 3975 2675 
Q 4350 2125 4600 1450 
L 4125 1225 
Q 3875 1925 3500 2475 
L 3975 2675 
z
M 2575 4350 
L 2575 -175 
L 2125 -175 
L 2125 25 
L 975 25 
L 975 -350 
L 525 -350 
L 525 4350 
L 1075 4350 
L 1250 5175 
L 1775 5075 
L 1550 4350 
L 2575 4350 
z
M 2125 2425 
L 2125 3875 
L 975 3875 
L 975 2425 
L 2125 2425 
z
M 975 1950 
L 975 500 
L 2125 500 
L 2125 1950 
L 975 1950 
z
" transform="scale(0.015625)"/>
       <path id="DroidSansFallback-6bd4" d="M 825 5100 
L 1350 5100 
L 1350 3325 
L 2900 3325 
L 2900 2825 
L 1350 2825 
L 1350 75 
L 2825 675 
L 2925 150 
L 1075 -575 
L 825 -325 
L 825 5100 
z
M 3400 5100 
L 3925 5100 
L 3925 3225 
Q 4800 3575 5550 4075 
L 5875 3625 
Q 4975 3075 3925 2675 
L 3925 225 
Q 3925 125 4062 75 
Q 4200 25 4950 25 
Q 5325 25 5437 175 
Q 5550 325 5600 925 
L 6075 725 
Q 5975 -100 5775 -300 
Q 5575 -500 4950 -500 
Q 3925 -500 3662 -350 
Q 3400 -200 3400 125 
L 3400 5100 
z
" transform="scale(0.015625)"/>
       <path id="DroidSansFallback-4f8b" d="M 1325 5175 
L 1825 5025 
L 1450 3900 
L 1450 -575 
L 975 -575 
L 975 2850 
L 500 2050 
L 250 2550 
Q 1000 3800 1325 5175 
z
M 1950 4875 
L 4175 4875 
L 4175 4400 
L 3150 4400 
L 2925 3475 
L 4050 3475 
Q 3950 1225 2250 -625 
L 1875 -300 
Q 3350 1300 3500 3000 
L 2775 3000 
L 2500 2300 
L 3075 1900 
L 2775 1475 
L 2275 1875 
L 2025 1475 
L 1725 1875 
Q 2375 2950 2650 4400 
L 1950 4400 
L 1950 4875 
z
M 5425 5175 
L 5900 5175 
L 5900 100 
Q 5900 -575 5350 -575 
Q 4950 -575 4625 -475 
L 4525 50 
Q 4875 -75 5275 -75 
Q 5425 -75 5425 225 
L 5425 5175 
z
M 4425 4525 
L 4900 4525 
L 4900 875 
L 4425 875 
L 4425 4525 
z
" transform="scale(0.015625)"/>
       <path id="DroidSansFallback-ff08" d="M 4100 4575 
L 4700 4575 
Q 3050 3575 3050 1750 
Q 3050 -25 4700 -1000 
L 4100 -1000 
Q 3375 -675 2912 87 
Q 2450 850 2450 1750 
Q 2450 2675 2912 3437 
Q 3375 4200 4100 4575 
z
" transform="scale(0.015625)"/>
       <path id="DejaVuSans-25" d="M 4653 2053 
Q 4381 2053 4226 1822 
Q 4072 1591 4072 1178 
Q 4072 772 4226 539 
Q 4381 306 4653 306 
Q 4919 306 5073 539 
Q 5228 772 5228 1178 
Q 5228 1588 5073 1820 
Q 4919 2053 4653 2053 
z
M 4653 2450 
Q 5147 2450 5437 2106 
Q 5728 1763 5728 1178 
Q 5728 594 5436 251 
Q 5144 -91 4653 -91 
Q 4153 -91 3862 251 
Q 3572 594 3572 1178 
Q 3572 1766 3864 2108 
Q 4156 2450 4653 2450 
z
M 1428 4353 
Q 1159 4353 1004 4120 
Q 850 3888 850 3481 
Q 850 3069 1003 2837 
Q 1156 2606 1428 2606 
Q 1700 2606 1854 2837 
Q 2009 3069 2009 3481 
Q 2009 3884 1853 4118 
Q 1697 4353 1428 4353 
z
M 4250 4750 
L 4750 4750 
L 1831 -91 
L 1331 -91 
L 4250 4750 
z
M 1428 4750 
Q 1922 4750 2215 4408 
Q 2509 4066 2509 3481 
Q 2509 2891 2217 2550 
Q 1925 2209 1428 2209 
Q 931 2209 642 2551 
Q 353 2894 353 3481 
Q 353 4063 643 4406 
Q 934 4750 1428 4750 
z
" transform="scale(0.015625)"/>
       <path id="DroidSansFallback-ff09" d="M 2300 -1000 
L 1700 -1000 
Q 3350 -25 3350 1750 
Q 3350 3575 1700 4575 
L 2300 4575 
Q 3025 4200 3487 3437 
Q 3950 2675 3950 1750 
Q 3950 850 3487 87 
Q 3025 -675 2300 -1000 
z
" transform="scale(0.015625)"/>
      </defs>
      <use xlink:href="#DroidSansFallback-6027"/>
      <use xlink:href="#DroidSansFallback-80fd" transform="translate(100 0)"/>
      <use xlink:href="#DroidSansFallback-5360" transform="translate(200 0)"/>
      <use xlink:href="#DejaVuSans-20" transform="translate(300 0)"/>
      <use xlink:href="#DejaVuSans-46" transform="translate(331.787109 0)"/>
      <use xlink:href="#DejaVuSans-41" transform="translate(380.181641 0)"/>
      <use xlink:href="#DejaVuSans-33" transform="translate(448.589844 0)"/>
      <use xlink:href="#DejaVuSans-20" transform="translate(512.212891 0)"/>
      <use xlink:href="#DroidSansFallback-7684" transform="translate(544 0)"/>
      <use xlink:href="#DroidSansFallback-6bd4" transform="translate(644 0)"/>
      <use xlink:href="#DroidSansFallback-4f8b" transform="translate(744 0)"/>
      <use xlink:href="#DroidSansFallback-ff08" transform="translate(844 0)"/>
      <use xlink:href="#DejaVuSans-25" transform="translate(944 0)"/>
      <use xlink:href="#DroidSansFallback-ff09" transform="translate(1039.019531 0)"/>
     </g>
    </g>
   </g>
   <g id="matplotlib.axis_2">
    <g id="ytick_1">
     <g id="line2d_13"/>
     <g id="text_8">
      <!-- llama8b-4k -->
      <g style="fill: #172026" transform="translate(21.1975 514.359141) scale(0.11 -0.11)">
       <defs>
        <path id="DejaVuSans-6c" d="M 603 4863 
L 1178 4863 
L 1178 0 
L 603 0 
L 603 4863 
z
" transform="scale(0.015625)"/>
        <path id="DejaVuSans-61" d="M 2194 1759 
Q 1497 1759 1228 1600 
Q 959 1441 959 1056 
Q 959 750 1161 570 
Q 1363 391 1709 391 
Q 2188 391 2477 730 
Q 2766 1069 2766 1631 
L 2766 1759 
L 2194 1759 
z
M 3341 1997 
L 3341 0 
L 2766 0 
L 2766 531 
Q 2569 213 2275 61 
Q 1981 -91 1556 -91 
Q 1019 -91 701 211 
Q 384 513 384 1019 
Q 384 1609 779 1909 
Q 1175 2209 1959 2209 
L 2766 2209 
L 2766 2266 
Q 2766 2663 2505 2880 
Q 2244 3097 1772 3097 
Q 1472 3097 1187 3025 
Q 903 2953 641 2809 
L 641 3341 
Q 956 3463 1253 3523 
Q 1550 3584 1831 3584 
Q 2591 3584 2966 3190 
Q 3341 2797 3341 1997 
z
" transform="scale(0.015625)"/>
        <path id="DejaVuSans-6d" d="M 3328 2828 
Q 3544 3216 3844 3400 
Q 4144 3584 4550 3584 
Q 5097 3584 5394 3201 
Q 5691 2819 5691 2113 
L 5691 0 
L 5113 0 
L 5113 2094 
Q 5113 2597 4934 2840 
Q 4756 3084 4391 3084 
Q 3944 3084 3684 2787 
Q 3425 2491 3425 1978 
L 3425 0 
L 2847 0 
L 2847 2094 
Q 2847 2600 2669 2842 
Q 2491 3084 2119 3084 
Q 1678 3084 1418 2786 
Q 1159 2488 1159 1978 
L 1159 0 
L 581 0 
L 581 3500 
L 1159 3500 
L 1159 2956 
Q 1356 3278 1631 3431 
Q 1906 3584 2284 3584 
Q 2666 3584 2933 3390 
Q 3200 3197 3328 2828 
z
" transform="scale(0.015625)"/>
        <path id="DejaVuSans-62" d="M 3116 1747 
Q 3116 2381 2855 2742 
Q 2594 3103 2138 3103 
Q 1681 3103 1420 2742 
Q 1159 2381 1159 1747 
Q 1159 1113 1420 752 
Q 1681 391 2138 391 
Q 2594 391 2855 752 
Q 3116 1113 3116 1747 
z
M 1159 2969 
Q 1341 3281 1617 3432 
Q 1894 3584 2278 3584 
Q 2916 3584 3314 3078 
Q 3713 2572 3713 1747 
Q 3713 922 3314 415 
Q 2916 -91 2278 -91 
Q 1894 -91 1617 61 
Q 1341 213 1159 525 
L 1159 0 
L 581 0 
L 581 4863 
L 1159 4863 
L 1159 2969 
z
" transform="scale(0.015625)"/>
        <path id="DejaVuSans-2d" d="M 313 2009 
L 1997 2009 
L 1997 1497 
L 313 1497 
L 313 2009 
z
" transform="scale(0.015625)"/>
        <path id="DejaVuSans-6b" d="M 581 4863 
L 1159 4863 
L 1159 1991 
L 2875 3500 
L 3609 3500 
L 1753 1863 
L 3688 0 
L 2938 0 
L 1159 1709 
L 1159 0 
L 581 0 
L 581 4863 
z
" transform="scale(0.015625)"/>
       </defs>
       <use xlink:href="#DejaVuSans-6c"/>
       <use xlink:href="#DejaVuSans-6c" transform="translate(27.783203 0)"/>
       <use xlink:href="#DejaVuSans-61" transform="translate(55.566406 0)"/>
       <use xlink:href="#DejaVuSans-6d" transform="translate(116.845703 0)"/>
       <use xlink:href="#DejaVuSans-61" transform="translate(214.257812 0)"/>
       <use xlink:href="#DejaVuSans-38" transform="translate(275.537109 0)"/>
       <use xlink:href="#DejaVuSans-62" transform="translate(339.160156 0)"/>
       <use xlink:href="#DejaVuSans-2d" transform="translate(402.636719 0)"/>
       <use xlink:href="#DejaVuSans-34" transform="translate(438.720703 0)"/>
       <use xlink:href="#DejaVuSans-6b" transform="translate(502.34375 0)"/>
      </g>
     </g>
    </g>
    <g id="ytick_2">
     <g id="line2d_14"/>
     <g id="text_9">
      <!-- llama8b-128k -->
      <g style="fill: #172026" transform="translate(7.2 434.359141) scale(0.11 -0.11)">
       <use xlink:href="#DejaVuSans-6c"/>
       <use xlink:href="#DejaVuSans-6c" transform="translate(27.783203 0)"/>
       <use xlink:href="#DejaVuSans-61" transform="translate(55.566406 0)"/>
       <use xlink:href="#DejaVuSans-6d" transform="translate(116.845703 0)"/>
       <use xlink:href="#DejaVuSans-61" transform="translate(214.257812 0)"/>
       <use xlink:href="#DejaVuSans-38" transform="translate(275.537109 0)"/>
       <use xlink:href="#DejaVuSans-62" transform="translate(339.160156 0)"/>
       <use xlink:href="#DejaVuSans-2d" transform="translate(402.636719 0)"/>
       <use xlink:href="#DejaVuSans-31" transform="translate(438.720703 0)"/>
       <use xlink:href="#DejaVuSans-32" transform="translate(502.34375 0)"/>
       <use xlink:href="#DejaVuSans-38" transform="translate(565.966797 0)"/>
       <use xlink:href="#DejaVuSans-6b" transform="translate(629.589844 0)"/>
      </g>
     </g>
    </g>
    <g id="ytick_3">
     <g id="line2d_15"/>
     <g id="text_10">
      <!-- llama8b-8k -->
      <g style="fill: #172026" transform="translate(21.1975 354.359141) scale(0.11 -0.11)">
       <use xlink:href="#DejaVuSans-6c"/>
       <use xlink:href="#DejaVuSans-6c" transform="translate(27.783203 0)"/>
       <use xlink:href="#DejaVuSans-61" transform="translate(55.566406 0)"/>
       <use xlink:href="#DejaVuSans-6d" transform="translate(116.845703 0)"/>
       <use xlink:href="#DejaVuSans-61" transform="translate(214.257812 0)"/>
       <use xlink:href="#DejaVuSans-38" transform="translate(275.537109 0)"/>
       <use xlink:href="#DejaVuSans-62" transform="translate(339.160156 0)"/>
       <use xlink:href="#DejaVuSans-2d" transform="translate(402.636719 0)"/>
       <use xlink:href="#DejaVuSans-38" transform="translate(438.720703 0)"/>
       <use xlink:href="#DejaVuSans-6b" transform="translate(502.34375 0)"/>
      </g>
     </g>
    </g>
    <g id="ytick_4">
     <g id="line2d_16"/>
     <g id="text_11">
      <!-- llama8b-32k -->
      <g style="fill: #172026" transform="translate(14.19875 274.359141) scale(0.11 -0.11)">
       <use xlink:href="#DejaVuSans-6c"/>
       <use xlink:href="#DejaVuSans-6c" transform="translate(27.783203 0)"/>
       <use xlink:href="#DejaVuSans-61" transform="translate(55.566406 0)"/>
       <use xlink:href="#DejaVuSans-6d" transform="translate(116.845703 0)"/>
       <use xlink:href="#DejaVuSans-61" transform="translate(214.257812 0)"/>
       <use xlink:href="#DejaVuSans-38" transform="translate(275.537109 0)"/>
       <use xlink:href="#DejaVuSans-62" transform="translate(339.160156 0)"/>
       <use xlink:href="#DejaVuSans-2d" transform="translate(402.636719 0)"/>
       <use xlink:href="#DejaVuSans-33" transform="translate(438.720703 0)"/>
       <use xlink:href="#DejaVuSans-32" transform="translate(502.34375 0)"/>
       <use xlink:href="#DejaVuSans-6b" transform="translate(565.966797 0)"/>
      </g>
     </g>
    </g>
    <g id="ytick_5">
     <g id="line2d_17"/>
     <g id="text_12">
      <!-- llama70b-4k -->
      <g style="fill: #172026" transform="translate(14.19875 194.359141) scale(0.11 -0.11)">
       <defs>
        <path id="DejaVuSans-37" d="M 525 4666 
L 3525 4666 
L 3525 4397 
L 1831 0 
L 1172 0 
L 2766 4134 
L 525 4134 
L 525 4666 
z
" transform="scale(0.015625)"/>
       </defs>
       <use xlink:href="#DejaVuSans-6c"/>
       <use xlink:href="#DejaVuSans-6c" transform="translate(27.783203 0)"/>
       <use xlink:href="#DejaVuSans-61" transform="translate(55.566406 0)"/>
       <use xlink:href="#DejaVuSans-6d" transform="translate(116.845703 0)"/>
       <use xlink:href="#DejaVuSans-61" transform="translate(214.257812 0)"/>
       <use xlink:href="#DejaVuSans-37" transform="translate(275.537109 0)"/>
       <use xlink:href="#DejaVuSans-30" transform="translate(339.160156 0)"/>
       <use xlink:href="#DejaVuSans-62" transform="translate(402.783203 0)"/>
       <use xlink:href="#DejaVuSans-2d" transform="translate(466.259766 0)"/>
       <use xlink:href="#DejaVuSans-34" transform="translate(502.34375 0)"/>
       <use xlink:href="#DejaVuSans-6b" transform="translate(565.966797 0)"/>
      </g>
     </g>
    </g>
    <g id="ytick_6">
     <g id="line2d_18"/>
     <g id="text_13">
      <!-- llama405b-4k -->
      <g style="fill: #172026" transform="translate(7.2 114.359141) scale(0.11 -0.11)">
       <defs>
        <path id="DejaVuSans-35" d="M 691 4666 
L 3169 4666 
L 3169 4134 
L 1269 4134 
L 1269 2991 
Q 1406 3038 1543 3061 
Q 1681 3084 1819 3084 
Q 2600 3084 3056 2656 
Q 3513 2228 3513 1497 
Q 3513 744 3044 326 
Q 2575 -91 1722 -91 
Q 1428 -91 1123 -41 
Q 819 9 494 109 
L 494 744 
Q 775 591 1075 516 
Q 1375 441 1709 441 
Q 2250 441 2565 725 
Q 2881 1009 2881 1497 
Q 2881 1984 2565 2268 
Q 2250 2553 1709 2553 
Q 1456 2553 1204 2497 
Q 953 2441 691 2322 
L 691 4666 
z
" transform="scale(0.015625)"/>
       </defs>
       <use xlink:href="#DejaVuSans-6c"/>
       <use xlink:href="#DejaVuSans-6c" transform="translate(27.783203 0)"/>
       <use xlink:href="#DejaVuSans-61" transform="translate(55.566406 0)"/>
       <use xlink:href="#DejaVuSans-6d" transform="translate(116.845703 0)"/>
       <use xlink:href="#DejaVuSans-61" transform="translate(214.257812 0)"/>
       <use xlink:href="#DejaVuSans-34" transform="translate(275.537109 0)"/>
       <use xlink:href="#DejaVuSans-30" transform="translate(339.160156 0)"/>
       <use xlink:href="#DejaVuSans-35" transform="translate(402.783203 0)"/>
       <use xlink:href="#DejaVuSans-62" transform="translate(466.40625 0)"/>
       <use xlink:href="#DejaVuSans-2d" transform="translate(529.882812 0)"/>
       <use xlink:href="#DejaVuSans-34" transform="translate(565.966797 0)"/>
       <use xlink:href="#DejaVuSans-6b" transform="translate(629.589844 0)"/>
      </g>
     </g>
    </g>
   </g>
   <g id="patch_3">
    <path d="M 86.325 536.98 
L 528.176723 536.98 
L 528.176723 512.18 
L 86.325 512.18 
z
" clip-path="url(#p7fc0f37d63)" style="fill: #7c5cff; opacity: 0.72"/>
   </g>
   <g id="patch_4">
    <path d="M 86.325 456.98 
L 606.896088 456.98 
L 606.896088 432.18 
L 86.325 432.18 
z
" clip-path="url(#p7fc0f37d63)" style="fill: #7c5cff; opacity: 0.72"/>
   </g>
   <g id="patch_5">
    <path d="M 86.325 376.98 
L 574.436693 376.98 
L 574.436693 352.18 
L 86.325 352.18 
z
" clip-path="url(#p7fc0f37d63)" style="fill: #7c5cff; opacity: 0.72"/>
   </g>
   <g id="patch_6">
    <path d="M 86.325 296.98 
L 621.304266 296.98 
L 621.304266 272.18 
L 86.325 272.18 
z
" clip-path="url(#p7fc0f37d63)" style="fill: #7c5cff; opacity: 0.72"/>
   </g>
   <g id="patch_7">
    <path d="M 86.325 216.98 
L 572.85322 216.98 
L 572.85322 192.18 
L 86.325 192.18 
z
" clip-path="url(#p7fc0f37d63)" style="fill: #7c5cff; opacity: 0.72"/>
   </g>
   <g id="patch_8">
    <path d="M 86.325 136.98 
L 564.807236 136.98 
L 564.807236 112.18 
L 86.325 112.18 
z
" clip-path="url(#p7fc0f37d63)" style="fill: #7c5cff; opacity: 0.72"/>
   </g>
   <g id="patch_9">
    <path d="M 86.325 508.18 
L 523.423559 508.18 
L 523.423559 483.38 
L 86.325 483.38 
z
" clip-path="url(#p7fc0f37d63)" style="fill: #00a896"/>
   </g>
   <g id="patch_10">
    <path d="M 86.325 428.18 
L 548.234655 428.18 
L 548.234655 403.38 
L 86.325 403.38 
z
" clip-path="url(#p7fc0f37d63)" style="fill: #00a896"/>
   </g>
   <g id="patch_11">
    <path d="M 86.325 348.18 
L 552.383746 348.18 
L 552.383746 323.38 
L 86.325 323.38 
z
" clip-path="url(#p7fc0f37d63)" style="fill: #00a896"/>
   </g>
   <g id="patch_12">
    <path d="M 86.325 268.18 
L 566.562202 268.18 
L 566.562202 243.38 
L 86.325 243.38 
z
" clip-path="url(#p7fc0f37d63)" style="fill: #00a896"/>
   </g>
   <g id="patch_13">
    <path d="M 86.325 188.18 
L 568.503974 188.18 
L 568.503974 163.38 
L 86.325 163.38 
z
" clip-path="url(#p7fc0f37d63)" style="fill: #00a896"/>
   </g>
   <g id="patch_14">
    <path d="M 86.325 108.18 
L 574.463076 108.18 
L 574.463076 83.38 
L 86.325 83.38 
z
" clip-path="url(#p7fc0f37d63)" style="fill: #00a896"/>
   </g>
   <g id="line2d_19">
    <path d="M 644.044341 559.66 
L 644.044341 60.7 
" clip-path="url(#p7fc0f37d63)" style="fill: none; stroke-dasharray: 8,6; stroke-dashoffset: 0; stroke: #2f6fed; stroke-opacity: 0.75; stroke-width: 2"/>
   </g>
   <g id="patch_15">
    <path d="M 86.325 559.66 
L 710.970662 559.66 
" style="fill: none; stroke: #dce4ea; stroke-width: 0.8; stroke-linejoin: miter; stroke-linecap: square"/>
   </g>
   <g id="text_14">
    <!-- 78.4% -->
    <g style="fill: #172026" transform="translate(527.885314 498.677344) scale(0.105 -0.105)">
     <defs>
      <path id="DejaVuSans-2e" d="M 684 794 
L 1344 794 
L 1344 0 
L 684 0 
L 684 794 
z
" transform="scale(0.015625)"/>
     </defs>
     <use xlink:href="#DejaVuSans-37"/>
     <use xlink:href="#DejaVuSans-38" transform="translate(63.623047 0)"/>
     <use xlink:href="#DejaVuSans-2e" transform="translate(127.246094 0)"/>
     <use xlink:href="#DejaVuSans-34" transform="translate(159.033203 0)"/>
     <use xlink:href="#DejaVuSans-25" transform="translate(222.65625 0)"/>
    </g>
   </g>
   <g id="text_15">
    <!-- 82.8% -->
    <g style="fill: #172026" transform="translate(552.69641 418.677344) scale(0.105 -0.105)">
     <use xlink:href="#DejaVuSans-38"/>
     <use xlink:href="#DejaVuSans-32" transform="translate(63.623047 0)"/>
     <use xlink:href="#DejaVuSans-2e" transform="translate(127.246094 0)"/>
     <use xlink:href="#DejaVuSans-38" transform="translate(159.033203 0)"/>
     <use xlink:href="#DejaVuSans-25" transform="translate(222.65625 0)"/>
    </g>
   </g>
   <g id="text_16">
    <!-- 83.6% -->
    <g style="fill: #172026" transform="translate(556.845501 338.677344) scale(0.105 -0.105)">
     <use xlink:href="#DejaVuSans-38"/>
     <use xlink:href="#DejaVuSans-33" transform="translate(63.623047 0)"/>
     <use xlink:href="#DejaVuSans-2e" transform="translate(127.246094 0)"/>
     <use xlink:href="#DejaVuSans-36" transform="translate(159.033203 0)"/>
     <use xlink:href="#DejaVuSans-25" transform="translate(222.65625 0)"/>
    </g>
   </g>
   <g id="text_17">
    <!-- 86.1% -->
    <g style="fill: #172026" transform="translate(571.023957 258.677344) scale(0.105 -0.105)">
     <use xlink:href="#DejaVuSans-38"/>
     <use xlink:href="#DejaVuSans-36" transform="translate(63.623047 0)"/>
     <use xlink:href="#DejaVuSans-2e" transform="translate(127.246094 0)"/>
     <use xlink:href="#DejaVuSans-31" transform="translate(159.033203 0)"/>
     <use xlink:href="#DejaVuSans-25" transform="translate(222.65625 0)"/>
    </g>
   </g>
   <g id="text_18">
    <!-- 86.5% -->
    <g style="fill: #172026" transform="translate(572.965729 178.677344) scale(0.105 -0.105)">
     <use xlink:href="#DejaVuSans-38"/>
     <use xlink:href="#DejaVuSans-36" transform="translate(63.623047 0)"/>
     <use xlink:href="#DejaVuSans-2e" transform="translate(127.246094 0)"/>
     <use xlink:href="#DejaVuSans-35" transform="translate(159.033203 0)"/>
     <use xlink:href="#DejaVuSans-25" transform="translate(222.65625 0)"/>
    </g>
   </g>
   <g id="text_19">
    <!-- 87.5% -->
    <g style="fill: #172026" transform="translate(578.92483 98.677344) scale(0.105 -0.105)">
     <use xlink:href="#DejaVuSans-38"/>
     <use xlink:href="#DejaVuSans-37" transform="translate(63.623047 0)"/>
     <use xlink:href="#DejaVuSans-2e" transform="translate(127.246094 0)"/>
     <use xlink:href="#DejaVuSans-35" transform="translate(159.033203 0)"/>
     <use xlink:href="#DejaVuSans-25" transform="translate(222.65625 0)"/>
    </g>
   </g>
   <g id="text_20">
    <!-- FA3 = 100% -->
    <g style="fill: #2f6fed" transform="translate(648.506096 99.298125) scale(0.12 -0.12)">
     <defs>
      <path id="DejaVuSans-3d" d="M 678 2906 
L 4684 2906 
L 4684 2381 
L 678 2381 
L 678 2906 
z
M 678 1631 
L 4684 1631 
L 4684 1100 
L 678 1100 
L 678 1631 
z
" transform="scale(0.015625)"/>
     </defs>
     <use xlink:href="#DejaVuSans-46"/>
     <use xlink:href="#DejaVuSans-41" transform="translate(48.394531 0)"/>
     <use xlink:href="#DejaVuSans-33" transform="translate(116.802734 0)"/>
     <use xlink:href="#DejaVuSans-20" transform="translate(180.425781 0)"/>
     <use xlink:href="#DejaVuSans-3d" transform="translate(212.212891 0)"/>
     <use xlink:href="#DejaVuSans-20" transform="translate(296.001953 0)"/>
     <use xlink:href="#DejaVuSans-31" transform="translate(327.789062 0)"/>
     <use xlink:href="#DejaVuSans-30" transform="translate(391.412109 0)"/>
     <use xlink:href="#DejaVuSans-30" transform="translate(455.035156 0)"/>
     <use xlink:href="#DejaVuSans-25" transform="translate(518.658203 0)"/>
    </g>
   </g>
   <g id="text_21">
    <!-- Nightly run 25259450950 artifact · causal inference dense prefill workloads · H200 · FA3 归一化为 100% -->
    <g style="fill: #63707a" transform="translate(86.325 54.71248) scale(0.122 -0.122)">
     <defs>
      <path id="DejaVuSans-4e" d="M 628 4666 
L 1478 4666 
L 3547 763 
L 3547 4666 
L 4159 4666 
L 4159 0 
L 3309 0 
L 1241 3903 
L 1241 0 
L 628 0 
L 628 4666 
z
" transform="scale(0.015625)"/>
      <path id="DejaVuSans-69" d="M 603 3500 
L 1178 3500 
L 1178 0 
L 603 0 
L 603 3500 
z
M 603 4863 
L 1178 4863 
L 1178 4134 
L 603 4134 
L 603 4863 
z
" transform="scale(0.015625)"/>
      <path id="DejaVuSans-67" d="M 2906 1791 
Q 2906 2416 2648 2759 
Q 2391 3103 1925 3103 
Q 1463 3103 1205 2759 
Q 947 2416 947 1791 
Q 947 1169 1205 825 
Q 1463 481 1925 481 
Q 2391 481 2648 825 
Q 2906 1169 2906 1791 
z
M 3481 434 
Q 3481 -459 3084 -895 
Q 2688 -1331 1869 -1331 
Q 1566 -1331 1297 -1286 
Q 1028 -1241 775 -1147 
L 775 -588 
Q 1028 -725 1275 -790 
Q 1522 -856 1778 -856 
Q 2344 -856 2625 -561 
Q 2906 -266 2906 331 
L 2906 616 
Q 2728 306 2450 153 
Q 2172 0 1784 0 
Q 1141 0 747 490 
Q 353 981 353 1791 
Q 353 2603 747 3093 
Q 1141 3584 1784 3584 
Q 2172 3584 2450 3431 
Q 2728 3278 2906 2969 
L 2906 3500 
L 3481 3500 
L 3481 434 
z
" transform="scale(0.015625)"/>
      <path id="DejaVuSans-68" d="M 3513 2113 
L 3513 0 
L 2938 0 
L 2938 2094 
Q 2938 2591 2744 2837 
Q 2550 3084 2163 3084 
Q 1697 3084 1428 2787 
Q 1159 2491 1159 1978 
L 1159 0 
L 581 0 
L 581 4863 
L 1159 4863 
L 1159 2956 
Q 1366 3272 1645 3428 
Q 1925 3584 2291 3584 
Q 2894 3584 3203 3211 
Q 3513 2838 3513 2113 
z
" transform="scale(0.015625)"/>
      <path id="DejaVuSans-74" d="M 1172 4494 
L 1172 3500 
L 2356 3500 
L 2356 3053 
L 1172 3053 
L 1172 1153 
Q 1172 725 1289 603 
Q 1406 481 1766 481 
L 2356 481 
L 2356 0 
L 1766 0 
Q 1100 0 847 248 
Q 594 497 594 1153 
L 594 3053 
L 172 3053 
L 172 3500 
L 594 3500 
L 594 4494 
L 1172 4494 
z
" transform="scale(0.015625)"/>
      <path id="DejaVuSans-79" d="M 2059 -325 
Q 1816 -950 1584 -1140 
Q 1353 -1331 966 -1331 
L 506 -1331 
L 506 -850 
L 844 -850 
Q 1081 -850 1212 -737 
Q 1344 -625 1503 -206 
L 1606 56 
L 191 3500 
L 800 3500 
L 1894 763 
L 2988 3500 
L 3597 3500 
L 2059 -325 
z
" transform="scale(0.015625)"/>
      <path id="DejaVuSans-72" d="M 2631 2963 
Q 2534 3019 2420 3045 
Q 2306 3072 2169 3072 
Q 1681 3072 1420 2755 
Q 1159 2438 1159 1844 
L 1159 0 
L 581 0 
L 581 3500 
L 1159 3500 
L 1159 2956 
Q 1341 3275 1631 3429 
Q 1922 3584 2338 3584 
Q 2397 3584 2469 3576 
Q 2541 3569 2628 3553 
L 2631 2963 
z
" transform="scale(0.015625)"/>
      <path id="DejaVuSans-75" d="M 544 1381 
L 544 3500 
L 1119 3500 
L 1119 1403 
Q 1119 906 1312 657 
Q 1506 409 1894 409 
Q 2359 409 2629 706 
Q 2900 1003 2900 1516 
L 2900 3500 
L 3475 3500 
L 3475 0 
L 2900 0 
L 2900 538 
Q 2691 219 2414 64 
Q 2138 -91 1772 -91 
Q 1169 -91 856 284 
Q 544 659 544 1381 
z
M 1991 3584 
L 1991 3584 
z
" transform="scale(0.015625)"/>
      <path id="DejaVuSans-6e" d="M 3513 2113 
L 3513 0 
L 2938 0 
L 2938 2094 
Q 2938 2591 2744 2837 
Q 2550 3084 2163 3084 
Q 1697 3084 1428 2787 
Q 1159 2491 1159 1978 
L 1159 0 
L 581 0 
L 581 3500 
L 1159 3500 
L 1159 2956 
Q 1366 3272 1645 3428 
Q 1925 3584 2291 3584 
Q 2894 3584 3203 3211 
Q 3513 2838 3513 2113 
z
" transform="scale(0.015625)"/>
      <path id="DejaVuSans-39" d="M 703 97 
L 703 672 
Q 941 559 1184 500 
Q 1428 441 1663 441 
Q 2288 441 2617 861 
Q 2947 1281 2994 2138 
Q 2813 1869 2534 1725 
Q 2256 1581 1919 1581 
Q 1219 1581 811 2004 
Q 403 2428 403 3163 
Q 403 3881 828 4315 
Q 1253 4750 1959 4750 
Q 2769 4750 3195 4129 
Q 3622 3509 3622 2328 
Q 3622 1225 3098 567 
Q 2575 -91 1691 -91 
Q 1453 -91 1209 -44 
Q 966 3 703 97 
z
M 1959 2075 
Q 2384 2075 2632 2365 
Q 2881 2656 2881 3163 
Q 2881 3666 2632 3958 
Q 2384 4250 1959 4250 
Q 1534 4250 1286 3958 
Q 1038 3666 1038 3163 
Q 1038 2656 1286 2365 
Q 1534 2075 1959 2075 
z
" transform="scale(0.015625)"/>
      <path id="DejaVuSans-66" d="M 2375 4863 
L 2375 4384 
L 1825 4384 
Q 1516 4384 1395 4259 
Q 1275 4134 1275 3809 
L 1275 3500 
L 2222 3500 
L 2222 3053 
L 1275 3053 
L 1275 0 
L 697 0 
L 697 3053 
L 147 3053 
L 147 3500 
L 697 3500 
L 697 3744 
Q 697 4328 969 4595 
Q 1241 4863 1831 4863 
L 2375 4863 
z
" transform="scale(0.015625)"/>
      <path id="DejaVuSans-63" d="M 3122 3366 
L 3122 2828 
Q 2878 2963 2633 3030 
Q 2388 3097 2138 3097 
Q 1578 3097 1268 2742 
Q 959 2388 959 1747 
Q 959 1106 1268 751 
Q 1578 397 2138 397 
Q 2388 397 2633 464 
Q 2878 531 3122 666 
L 3122 134 
Q 2881 22 2623 -34 
Q 2366 -91 2075 -91 
Q 1284 -91 818 406 
Q 353 903 353 1747 
Q 353 2603 823 3093 
Q 1294 3584 2113 3584 
Q 2378 3584 2631 3529 
Q 2884 3475 3122 3366 
z
" transform="scale(0.015625)"/>
      <path id="DejaVuSans-b7" d="M 684 2619 
L 1344 2619 
L 1344 1825 
L 684 1825 
L 684 2619 
z
" transform="scale(0.015625)"/>
      <path id="DejaVuSans-73" d="M 2834 3397 
L 2834 2853 
Q 2591 2978 2328 3040 
Q 2066 3103 1784 3103 
Q 1356 3103 1142 2972 
Q 928 2841 928 2578 
Q 928 2378 1081 2264 
Q 1234 2150 1697 2047 
L 1894 2003 
Q 2506 1872 2764 1633 
Q 3022 1394 3022 966 
Q 3022 478 2636 193 
Q 2250 -91 1575 -91 
Q 1294 -91 989 -36 
Q 684 19 347 128 
L 347 722 
Q 666 556 975 473 
Q 1284 391 1588 391 
Q 1994 391 2212 530 
Q 2431 669 2431 922 
Q 2431 1156 2273 1281 
Q 2116 1406 1581 1522 
L 1381 1569 
Q 847 1681 609 1914 
Q 372 2147 372 2553 
Q 372 3047 722 3315 
Q 1072 3584 1716 3584 
Q 2034 3584 2315 3537 
Q 2597 3491 2834 3397 
z
" transform="scale(0.015625)"/>
      <path id="DejaVuSans-65" d="M 3597 1894 
L 3597 1613 
L 953 1613 
Q 991 1019 1311 708 
Q 1631 397 2203 397 
Q 2534 397 2845 478 
Q 3156 559 3463 722 
L 3463 178 
Q 3153 47 2828 -22 
Q 2503 -91 2169 -91 
Q 1331 -91 842 396 
Q 353 884 353 1716 
Q 353 2575 817 3079 
Q 1281 3584 2069 3584 
Q 2775 3584 3186 3129 
Q 3597 2675 3597 1894 
z
M 3022 2063 
Q 3016 2534 2758 2815 
Q 2500 3097 2075 3097 
Q 1594 3097 1305 2825 
Q 1016 2553 972 2059 
L 3022 2063 
z
" transform="scale(0.015625)"/>
      <path id="DejaVuSans-64" d="M 2906 2969 
L 2906 4863 
L 3481 4863 
L 3481 0 
L 2906 0 
L 2906 525 
Q 2725 213 2448 61 
Q 2172 -91 1784 -91 
Q 1150 -91 751 415 
Q 353 922 353 1747 
Q 353 2572 751 3078 
Q 1150 3584 1784 3584 
Q 2172 3584 2448 3432 
Q 2725 3281 2906 2969 
z
M 947 1747 
Q 947 1113 1208 752 
Q 1469 391 1925 391 
Q 2381 391 2643 752 
Q 2906 1113 2906 1747 
Q 2906 2381 2643 2742 
Q 2381 3103 1925 3103 
Q 1469 3103 1208 2742 
Q 947 2381 947 1747 
z
" transform="scale(0.015625)"/>
      <path id="DejaVuSans-70" d="M 1159 525 
L 1159 -1331 
L 581 -1331 
L 581 3500 
L 1159 3500 
L 1159 2969 
Q 1341 3281 1617 3432 
Q 1894 3584 2278 3584 
Q 2916 3584 3314 3078 
Q 3713 2572 3713 1747 
Q 3713 922 3314 415 
Q 2916 -91 2278 -91 
Q 1894 -91 1617 61 
Q 1341 213 1159 525 
z
M 3116 1747 
Q 3116 2381 2855 2742 
Q 2594 3103 2138 3103 
Q 1681 3103 1420 2742 
Q 1159 2381 1159 1747 
Q 1159 1113 1420 752 
Q 1681 391 2138 391 
Q 2594 391 2855 752 
Q 3116 1113 3116 1747 
z
" transform="scale(0.015625)"/>
      <path id="DejaVuSans-77" d="M 269 3500 
L 844 3500 
L 1563 769 
L 2278 3500 
L 2956 3500 
L 3675 769 
L 4391 3500 
L 4966 3500 
L 4050 0 
L 3372 0 
L 2619 2869 
L 1863 0 
L 1184 0 
L 269 3500 
z
" transform="scale(0.015625)"/>
      <path id="DejaVuSans-6f" d="M 1959 3097 
Q 1497 3097 1228 2736 
Q 959 2375 959 1747 
Q 959 1119 1226 758 
Q 1494 397 1959 397 
Q 2419 397 2687 759 
Q 2956 1122 2956 1747 
Q 2956 2369 2687 2733 
Q 2419 3097 1959 3097 
z
M 1959 3584 
Q 2709 3584 3137 3096 
Q 3566 2609 3566 1747 
Q 3566 888 3137 398 
Q 2709 -91 1959 -91 
Q 1206 -91 779 398 
Q 353 888 353 1747 
Q 353 2609 779 3096 
Q 1206 3584 1959 3584 
z
" transform="scale(0.015625)"/>
      <path id="DejaVuSans-48" d="M 628 4666 
L 1259 4666 
L 1259 2753 
L 3553 2753 
L 3553 4666 
L 4184 4666 
L 4184 0 
L 3553 0 
L 3553 2222 
L 1259 2222 
L 1259 0 
L 628 0 
L 628 4666 
z
" transform="scale(0.015625)"/>
      <path id="DroidSansFallback-5f52" d="M 1750 5175 
L 2250 5175 
L 2250 2325 
Q 2250 550 1150 -575 
L 750 -250 
Q 1750 800 1750 2325 
L 1750 5175 
z
M 675 4650 
L 1175 4650 
L 1175 1050 
L 675 1050 
L 675 4650 
z
M 2800 2650 
L 5325 2650 
L 5325 4050 
L 2725 4050 
L 2725 4525 
L 5850 4525 
L 5850 -350 
L 5325 -350 
L 5325 75 
L 2600 75 
L 2600 550 
L 5325 550 
L 5325 2175 
L 2800 2175 
L 2800 2650 
z
" transform="scale(0.015625)"/>
      <path id="DroidSansFallback-4e00" d="M 525 2800 
L 5850 2800 
L 5850 2325 
L 525 2325 
L 525 2800 
z
" transform="scale(0.015625)"/>
      <path id="DroidSansFallback-5316" d="M 1775 5175 
L 2275 5025 
L 1625 3600 
L 1625 -575 
L 1125 -575 
L 1125 2800 
L 500 2050 
L 250 2550 
Q 1325 3800 1775 5175 
z
M 3200 5050 
L 3725 5050 
L 3725 2925 
Q 4675 3625 5425 4550 
L 5800 4250 
Q 4900 3075 3725 2275 
L 3725 325 
Q 3725 150 3812 87 
Q 3900 25 4350 25 
Q 5050 25 5075 75 
Q 5350 75 5437 275 
Q 5525 475 5550 1250 
L 6075 1025 
Q 5975 -50 5775 -262 
Q 5575 -475 4100 -475 
Q 3525 -475 3362 -337 
Q 3200 -200 3200 125 
L 3200 1950 
L 2550 1600 
L 2300 2025 
L 3200 2550 
L 3200 5050 
z
" transform="scale(0.015625)"/>
      <path id="DroidSansFallback-4e3a" d="M 850 3475 
L 2650 3475 
L 2700 5175 
L 3225 5175 
L 3200 3475 
L 5700 3475 
Q 5700 625 5500 50 
Q 5300 -525 4500 -525 
L 3850 -450 
L 3725 50 
L 4500 -25 
Q 4825 -25 4950 100 
Q 5075 225 5137 937 
Q 5200 1650 5200 3000 
L 3150 3000 
Q 2950 550 825 -575 
L 550 -100 
Q 2400 850 2625 3000 
L 850 3000 
L 850 3475 
z
M 1625 4950 
Q 2025 4475 2275 3925 
L 1750 3725 
Q 1525 4275 1150 4725 
L 1625 4950 
z
M 3675 2325 
Q 4075 1775 4325 1150 
L 3775 900 
Q 3550 1550 3200 2075 
L 3675 2325 
z
" transform="scale(0.015625)"/>
     </defs>
     <use xlink:href="#DejaVuSans-4e"/>
     <use xlink:href="#DejaVuSans-69" transform="translate(74.804688 0)"/>
     <use xlink:href="#DejaVuSans-67" transform="translate(102.587891 0)"/>
     <use xlink:href="#DejaVuSans-68" transform="translate(166.064453 0)"/>
     <use xlink:href="#DejaVuSans-74" transform="translate(229.443359 0)"/>
     <use xlink:href="#DejaVuSans-6c" transform="translate(268.652344 0)"/>
     <use xlink:href="#DejaVuSans-79" transform="translate(296.435547 0)"/>
     <use xlink:href="#DejaVuSans-20" transform="translate(355.615234 0)"/>
     <use xlink:href="#DejaVuSans-72" transform="translate(387.402344 0)"/>
     <use xlink:href="#DejaVuSans-75" transform="translate(428.515625 0)"/>
     <use xlink:href="#DejaVuSans-6e" transform="translate(491.894531 0)"/>
     <use xlink:href="#DejaVuSans-20" transform="translate(555.273438 0)"/>
     <use xlink:href="#DejaVuSans-32" transform="translate(587.060547 0)"/>
     <use xlink:href="#DejaVuSans-35" transform="translate(650.683594 0)"/>
     <use xlink:href="#DejaVuSans-32" transform="translate(714.306641 0)"/>
     <use xlink:href="#DejaVuSans-35" transform="translate(777.929688 0)"/>
     <use xlink:href="#DejaVuSans-39" transform="translate(841.552734 0)"/>
     <use xlink:href="#DejaVuSans-34" transform="translate(905.175781 0)"/>
     <use xlink:href="#DejaVuSans-35" transform="translate(968.798828 0)"/>
     <use xlink:href="#DejaVuSans-30" transform="translate(1032.421875 0)"/>
     <use xlink:href="#DejaVuSans-39" transform="translate(1096.044922 0)"/>
     <use xlink:href="#DejaVuSans-35" transform="translate(1159.667969 0)"/>
     <use xlink:href="#DejaVuSans-30" transform="translate(1223.291016 0)"/>
     <use xlink:href="#DejaVuSans-20" transform="translate(1286.914062 0)"/>
     <use xlink:href="#DejaVuSans-61" transform="translate(1318.701172 0)"/>
     <use xlink:href="#DejaVuSans-72" transform="translate(1379.980469 0)"/>
     <use xlink:href="#DejaVuSans-74" transform="translate(1421.09375 0)"/>
     <use xlink:href="#DejaVuSans-69" transform="translate(1460.302734 0)"/>
     <use xlink:href="#DejaVuSans-66" transform="translate(1488.085938 0)"/>
     <use xlink:href="#DejaVuSans-61" transform="translate(1523.291016 0)"/>
     <use xlink:href="#DejaVuSans-63" transform="translate(1584.570312 0)"/>
     <use xlink:href="#DejaVuSans-74" transform="translate(1639.550781 0)"/>
     <use xlink:href="#DejaVuSans-20" transform="translate(1678.759766 0)"/>
     <use xlink:href="#DejaVuSans-b7" transform="translate(1710.546875 0)"/>
     <use xlink:href="#DejaVuSans-20" transform="translate(1742.333984 0)"/>
     <use xlink:href="#DejaVuSans-63" transform="translate(1774.121094 0)"/>
     <use xlink:href="#DejaVuSans-61" transform="translate(1829.101562 0)"/>
     <use xlink:href="#DejaVuSans-75" transform="translate(1890.380859 0)"/>
     <use xlink:href="#DejaVuSans-73" transform="translate(1953.759766 0)"/>
     <use xlink:href="#DejaVuSans-61" transform="translate(2005.859375 0)"/>
     <use xlink:href="#DejaVuSans-6c" transform="translate(2067.138672 0)"/>
     <use xlink:href="#DejaVuSans-20" transform="translate(2094.921875 0)"/>
     <use xlink:href="#DejaVuSans-69" transform="translate(2126.708984 0)"/>
     <use xlink:href="#DejaVuSans-6e" transform="translate(2154.492188 0)"/>
     <use xlink:href="#DejaVuSans-66" transform="translate(2217.871094 0)"/>
     <use xlink:href="#DejaVuSans-65" transform="translate(2253.076172 0)"/>
     <use xlink:href="#DejaVuSans-72" transform="translate(2314.599609 0)"/>
     <use xlink:href="#DejaVuSans-65" transform="translate(2353.462891 0)"/>
     <use xlink:href="#DejaVuSans-6e" transform="translate(2414.986328 0)"/>
     <use xlink:href="#DejaVuSans-63" transform="translate(2478.365234 0)"/>
     <use xlink:href="#DejaVuSans-65" transform="translate(2533.345703 0)"/>
     <use xlink:href="#DejaVuSans-20" transform="translate(2594.869141 0)"/>
     <use xlink:href="#DejaVuSans-64" transform="translate(2626.65625 0)"/>
     <use xlink:href="#DejaVuSans-65" transform="translate(2690.132812 0)"/>
     <use xlink:href="#DejaVuSans-6e" transform="translate(2751.65625 0)"/>
     <use xlink:href="#DejaVuSans-73" transform="translate(2815.035156 0)"/>
     <use xlink:href="#DejaVuSans-65" transform="translate(2867.134766 0)"/>
     <use xlink:href="#DejaVuSans-20" transform="translate(2928.658203 0)"/>
     <use xlink:href="#DejaVuSans-70" transform="translate(2960.445312 0)"/>
     <use xlink:href="#DejaVuSans-72" transform="translate(3023.921875 0)"/>
     <use xlink:href="#DejaVuSans-65" transform="translate(3062.785156 0)"/>
     <use xlink:href="#DejaVuSans-66" transform="translate(3124.308594 0)"/>
     <use xlink:href="#DejaVuSans-69" transform="translate(3159.513672 0)"/>
     <use xlink:href="#DejaVuSans-6c" transform="translate(3187.296875 0)"/>
     <use xlink:href="#DejaVuSans-6c" transform="translate(3215.080078 0)"/>
     <use xlink:href="#DejaVuSans-20" transform="translate(3242.863281 0)"/>
     <use xlink:href="#DejaVuSans-77" transform="translate(3274.650391 0)"/>
     <use xlink:href="#DejaVuSans-6f" transform="translate(3356.4375 0)"/>
     <use xlink:href="#DejaVuSans-72" transform="translate(3417.619141 0)"/>
     <use xlink:href="#DejaVuSans-6b" transform="translate(3458.732422 0)"/>
     <use xlink:href="#DejaVuSans-6c" transform="translate(3516.642578 0)"/>
     <use xlink:href="#DejaVuSans-6f" transform="translate(3544.425781 0)"/>
     <use xlink:href="#DejaVuSans-61" transform="translate(3605.607422 0)"/>
     <use xlink:href="#DejaVuSans-64" transform="translate(3666.886719 0)"/>
     <use xlink:href="#DejaVuSans-73" transform="translate(3730.363281 0)"/>
     <use xlink:href="#DejaVuSans-20" transform="translate(3782.462891 0)"/>
     <use xlink:href="#DejaVuSans-b7" transform="translate(3814.25 0)"/>
     <use xlink:href="#DejaVuSans-20" transform="translate(3846.037109 0)"/>
     <use xlink:href="#DejaVuSans-48" transform="translate(3877.824219 0)"/>
     <use xlink:href="#DejaVuSans-32" transform="translate(3953.019531 0)"/>
     <use xlink:href="#DejaVuSans-30" transform="translate(4016.642578 0)"/>
     <use xlink:href="#DejaVuSans-30" transform="translate(4080.265625 0)"/>
     <use xlink:href="#DejaVuSans-20" transform="translate(4143.888672 0)"/>
     <use xlink:href="#DejaVuSans-b7" transform="translate(4175.675781 0)"/>
     <use xlink:href="#DejaVuSans-20" transform="translate(4207.462891 0)"/>
     <use xlink:href="#DejaVuSans-46" transform="translate(4239.25 0)"/>
     <use xlink:href="#DejaVuSans-41" transform="translate(4287.644531 0)"/>
     <use xlink:href="#DejaVuSans-33" transform="translate(4356.052734 0)"/>
     <use xlink:href="#DejaVuSans-20" transform="translate(4419.675781 0)"/>
     <use xlink:href="#DroidSansFallback-5f52" transform="translate(4451.462891 0)"/>
     <use xlink:href="#DroidSansFallback-4e00" transform="translate(4551.462891 0)"/>
     <use xlink:href="#DroidSansFallback-5316" transform="translate(4651.462891 0)"/>
     <use xlink:href="#DroidSansFallback-4e3a" transform="translate(4751.462891 0)"/>
     <use xlink:href="#DejaVuSans-20" transform="translate(4851.462891 0)"/>
     <use xlink:href="#DejaVuSans-31" transform="translate(4883.25 0)"/>
     <use xlink:href="#DejaVuSans-30" transform="translate(4946.873047 0)"/>
     <use xlink:href="#DejaVuSans-30" transform="translate(5010.496094 0)"/>
     <use xlink:href="#DejaVuSans-25" transform="translate(5074.119141 0)"/>
    </g>
   </g>
   <g id="text_22">
    <!-- GQA Dense Prefill 性能对比：TileOps / FlashInfer / FA3 -->
    <g style="fill: #172026" transform="translate(86.325 26.7) scale(0.24 -0.24)">
     <defs>
      <path id="DejaVuSans-Bold-47" d="M 4781 347 
Q 4331 128 3847 18 
Q 3363 -91 2847 -91 
Q 1681 -91 1000 561 
Q 319 1213 319 2328 
Q 319 3456 1012 4103 
Q 1706 4750 2913 4750 
Q 3378 4750 3804 4662 
Q 4231 4575 4609 4403 
L 4609 3438 
Q 4219 3659 3833 3768 
Q 3447 3878 3059 3878 
Q 2341 3878 1952 3476 
Q 1563 3075 1563 2328 
Q 1563 1588 1938 1184 
Q 2313 781 3003 781 
Q 3191 781 3352 804 
Q 3513 828 3641 878 
L 3641 1784 
L 2906 1784 
L 2906 2591 
L 4781 2591 
L 4781 347 
z
" transform="scale(0.015625)"/>
      <path id="DejaVuSans-Bold-51" d="M 2847 -84 
L 2753 -84 
Q 1600 -84 959 553 
Q 319 1191 319 2328 
Q 319 3463 958 4106 
Q 1597 4750 2719 4750 
Q 3853 4750 4486 4112 
Q 5119 3475 5119 2328 
Q 5119 1541 4783 972 
Q 4447 403 3816 116 
L 4756 -934 
L 3609 -934 
L 2847 -84 
z
M 2719 3878 
Q 2169 3878 1866 3472 
Q 1563 3066 1563 2328 
Q 1563 1578 1859 1179 
Q 2156 781 2719 781 
Q 3272 781 3575 1187 
Q 3878 1594 3878 2328 
Q 3878 3066 3575 3472 
Q 3272 3878 2719 3878 
z
" transform="scale(0.015625)"/>
      <path id="DejaVuSans-Bold-41" d="M 3419 850 
L 1538 850 
L 1241 0 
L 31 0 
L 1759 4666 
L 3194 4666 
L 4922 0 
L 3713 0 
L 3419 850 
z
M 1838 1716 
L 3116 1716 
L 2478 3572 
L 1838 1716 
z
" transform="scale(0.015625)"/>
      <path id="DejaVuSans-Bold-20" transform="scale(0.015625)"/>
      <path id="DejaVuSans-Bold-44" d="M 1791 3756 
L 1791 909 
L 2222 909 
Q 2959 909 3348 1275 
Q 3738 1641 3738 2338 
Q 3738 3031 3350 3393 
Q 2963 3756 2222 3756 
L 1791 3756 
z
M 588 4666 
L 1856 4666 
Q 2919 4666 3439 4514 
Q 3959 4363 4331 4000 
Q 4659 3684 4818 3271 
Q 4978 2859 4978 2338 
Q 4978 1809 4818 1395 
Q 4659 981 4331 666 
Q 3956 303 3431 151 
Q 2906 0 1856 0 
L 588 0 
L 588 4666 
z
" transform="scale(0.015625)"/>
      <path id="DejaVuSans-Bold-65" d="M 4031 1759 
L 4031 1441 
L 1416 1441 
Q 1456 1047 1700 850 
Q 1944 653 2381 653 
Q 2734 653 3104 758 
Q 3475 863 3866 1075 
L 3866 213 
Q 3469 63 3072 -14 
Q 2675 -91 2278 -91 
Q 1328 -91 801 392 
Q 275 875 275 1747 
Q 275 2603 792 3093 
Q 1309 3584 2216 3584 
Q 3041 3584 3536 3087 
Q 4031 2591 4031 1759 
z
M 2881 2131 
Q 2881 2450 2695 2645 
Q 2509 2841 2209 2841 
Q 1884 2841 1681 2658 
Q 1478 2475 1428 2131 
L 2881 2131 
z
" transform="scale(0.015625)"/>
      <path id="DejaVuSans-Bold-6e" d="M 4056 2131 
L 4056 0 
L 2931 0 
L 2931 347 
L 2931 1631 
Q 2931 2084 2911 2256 
Q 2891 2428 2841 2509 
Q 2775 2619 2662 2680 
Q 2550 2741 2406 2741 
Q 2056 2741 1856 2470 
Q 1656 2200 1656 1722 
L 1656 0 
L 538 0 
L 538 3500 
L 1656 3500 
L 1656 2988 
Q 1909 3294 2193 3439 
Q 2478 3584 2822 3584 
Q 3428 3584 3742 3212 
Q 4056 2841 4056 2131 
z
" transform="scale(0.015625)"/>
      <path id="DejaVuSans-Bold-73" d="M 3272 3391 
L 3272 2541 
Q 2913 2691 2578 2766 
Q 2244 2841 1947 2841 
Q 1628 2841 1473 2761 
Q 1319 2681 1319 2516 
Q 1319 2381 1436 2309 
Q 1553 2238 1856 2203 
L 2053 2175 
Q 2913 2066 3209 1816 
Q 3506 1566 3506 1031 
Q 3506 472 3093 190 
Q 2681 -91 1863 -91 
Q 1516 -91 1145 -36 
Q 775 19 384 128 
L 384 978 
Q 719 816 1070 734 
Q 1422 653 1784 653 
Q 2113 653 2278 743 
Q 2444 834 2444 1013 
Q 2444 1163 2330 1236 
Q 2216 1309 1875 1350 
L 1678 1375 
Q 931 1469 631 1722 
Q 331 1975 331 2491 
Q 331 3047 712 3315 
Q 1094 3584 1881 3584 
Q 2191 3584 2531 3537 
Q 2872 3491 3272 3391 
z
" transform="scale(0.015625)"/>
      <path id="DejaVuSans-Bold-50" d="M 588 4666 
L 2584 4666 
Q 3475 4666 3951 4270 
Q 4428 3875 4428 3144 
Q 4428 2409 3951 2014 
Q 3475 1619 2584 1619 
L 1791 1619 
L 1791 0 
L 588 0 
L 588 4666 
z
M 1791 3794 
L 1791 2491 
L 2456 2491 
Q 2806 2491 2997 2661 
Q 3188 2831 3188 3144 
Q 3188 3456 2997 3625 
Q 2806 3794 2456 3794 
L 1791 3794 
z
" transform="scale(0.015625)"/>
      <path id="DejaVuSans-Bold-72" d="M 3138 2547 
Q 2991 2616 2845 2648 
Q 2700 2681 2553 2681 
Q 2122 2681 1889 2404 
Q 1656 2128 1656 1613 
L 1656 0 
L 538 0 
L 538 3500 
L 1656 3500 
L 1656 2925 
Q 1872 3269 2151 3426 
Q 2431 3584 2822 3584 
Q 2878 3584 2943 3579 
Q 3009 3575 3134 3559 
L 3138 2547 
z
" transform="scale(0.015625)"/>
      <path id="DejaVuSans-Bold-66" d="M 2841 4863 
L 2841 4128 
L 2222 4128 
Q 1984 4128 1890 4042 
Q 1797 3956 1797 3744 
L 1797 3500 
L 2753 3500 
L 2753 2700 
L 1797 2700 
L 1797 0 
L 678 0 
L 678 2700 
L 122 2700 
L 122 3500 
L 678 3500 
L 678 3744 
Q 678 4316 997 4589 
Q 1316 4863 1984 4863 
L 2841 4863 
z
" transform="scale(0.015625)"/>
      <path id="DejaVuSans-Bold-69" d="M 538 3500 
L 1656 3500 
L 1656 0 
L 538 0 
L 538 3500 
z
M 538 4863 
L 1656 4863 
L 1656 3950 
L 538 3950 
L 538 4863 
z
" transform="scale(0.015625)"/>
      <path id="DejaVuSans-Bold-6c" d="M 538 4863 
L 1656 4863 
L 1656 0 
L 538 0 
L 538 4863 
z
" transform="scale(0.015625)"/>
      <path id="DroidSansFallback-5bf9" d="M 400 4875 
L 2475 4875 
Q 2375 3200 2025 1975 
L 2675 725 
L 2275 350 
L 1800 1325 
Q 1350 225 625 -425 
L 325 0 
Q 1100 675 1475 1925 
L 425 3575 
L 800 3850 
L 1675 2575 
Q 1850 3225 1925 4375 
L 400 4375 
L 400 4875 
z
M 2750 3875 
L 4800 3875 
L 4800 5175 
L 5300 5175 
L 5300 3875 
L 6050 3875 
L 6050 3400 
L 5300 3400 
L 5300 25 
Q 5275 -550 4675 -550 
L 3900 -450 
L 3800 75 
Q 4200 -50 4600 -50 
Q 4800 -50 4800 200 
L 4800 3400 
L 2750 3400 
L 2750 3875 
z
M 3475 2975 
Q 3950 2200 4275 1300 
L 3775 1075 
Q 3475 2025 3025 2775 
L 3475 2975 
z
" transform="scale(0.015625)"/>
      <path id="DroidSansFallback-ff1a" d="M 3600 3075 
Q 3600 2650 3200 2650 
Q 2800 2650 2800 3075 
Q 2800 3525 3200 3525 
Q 3600 3525 3600 3075 
z
M 3600 350 
Q 3600 -100 3200 -100 
Q 2800 -100 2800 350 
Q 2800 775 3200 775 
Q 3600 775 3600 350 
z
" transform="scale(0.015625)"/>
      <path id="DejaVuSans-Bold-54" d="M 31 4666 
L 4331 4666 
L 4331 3756 
L 2784 3756 
L 2784 0 
L 1581 0 
L 1581 3756 
L 31 3756 
L 31 4666 
z
" transform="scale(0.015625)"/>
      <path id="DejaVuSans-Bold-4f" d="M 2719 3878 
Q 2169 3878 1866 3472 
Q 1563 3066 1563 2328 
Q 1563 1594 1866 1187 
Q 2169 781 2719 781 
Q 3272 781 3575 1187 
Q 3878 1594 3878 2328 
Q 3878 3066 3575 3472 
Q 3272 3878 2719 3878 
z
M 2719 4750 
Q 3844 4750 4481 4106 
Q 5119 3463 5119 2328 
Q 5119 1197 4481 553 
Q 3844 -91 2719 -91 
Q 1597 -91 958 553 
Q 319 1197 319 2328 
Q 319 3463 958 4106 
Q 1597 4750 2719 4750 
z
" transform="scale(0.015625)"/>
      <path id="DejaVuSans-Bold-70" d="M 1656 506 
L 1656 -1331 
L 538 -1331 
L 538 3500 
L 1656 3500 
L 1656 2988 
Q 1888 3294 2169 3439 
Q 2450 3584 2816 3584 
Q 3463 3584 3878 3070 
Q 4294 2556 4294 1747 
Q 4294 938 3878 423 
Q 3463 -91 2816 -91 
Q 2450 -91 2169 54 
Q 1888 200 1656 506 
z
M 2400 2772 
Q 2041 2772 1848 2508 
Q 1656 2244 1656 1747 
Q 1656 1250 1848 986 
Q 2041 722 2400 722 
Q 2759 722 2948 984 
Q 3138 1247 3138 1747 
Q 3138 2247 2948 2509 
Q 2759 2772 2400 2772 
z
" transform="scale(0.015625)"/>
      <path id="DejaVuSans-Bold-2f" d="M 1644 4666 
L 2338 4666 
L 691 -594 
L 0 -594 
L 1644 4666 
z
" transform="scale(0.015625)"/>
      <path id="DejaVuSans-Bold-46" d="M 588 4666 
L 3834 4666 
L 3834 3756 
L 1791 3756 
L 1791 2888 
L 3713 2888 
L 3713 1978 
L 1791 1978 
L 1791 0 
L 588 0 
L 588 4666 
z
" transform="scale(0.015625)"/>
      <path id="DejaVuSans-Bold-61" d="M 2106 1575 
Q 1756 1575 1579 1456 
Q 1403 1338 1403 1106 
Q 1403 894 1545 773 
Q 1688 653 1941 653 
Q 2256 653 2472 879 
Q 2688 1106 2688 1447 
L 2688 1575 
L 2106 1575 
z
M 3816 1997 
L 3816 0 
L 2688 0 
L 2688 519 
Q 2463 200 2181 54 
Q 1900 -91 1497 -91 
Q 953 -91 614 226 
Q 275 544 275 1050 
Q 275 1666 698 1953 
Q 1122 2241 2028 2241 
L 2688 2241 
L 2688 2328 
Q 2688 2594 2478 2717 
Q 2269 2841 1825 2841 
Q 1466 2841 1156 2769 
Q 847 2697 581 2553 
L 581 3406 
Q 941 3494 1303 3539 
Q 1666 3584 2028 3584 
Q 2975 3584 3395 3211 
Q 3816 2838 3816 1997 
z
" transform="scale(0.015625)"/>
      <path id="DejaVuSans-Bold-68" d="M 4056 2131 
L 4056 0 
L 2931 0 
L 2931 347 
L 2931 1625 
Q 2931 2084 2911 2256 
Q 2891 2428 2841 2509 
Q 2775 2619 2662 2680 
Q 2550 2741 2406 2741 
Q 2056 2741 1856 2470 
Q 1656 2200 1656 1722 
L 1656 0 
L 538 0 
L 538 4863 
L 1656 4863 
L 1656 2988 
Q 1909 3294 2193 3439 
Q 2478 3584 2822 3584 
Q 3428 3584 3742 3212 
Q 4056 2841 4056 2131 
z
" transform="scale(0.015625)"/>
      <path id="DejaVuSans-Bold-49" d="M 588 4666 
L 1791 4666 
L 1791 0 
L 588 0 
L 588 4666 
z
" transform="scale(0.015625)"/>
      <path id="DejaVuSans-Bold-33" d="M 2981 2516 
Q 3453 2394 3698 2092 
Q 3944 1791 3944 1325 
Q 3944 631 3412 270 
Q 2881 -91 1863 -91 
Q 1503 -91 1142 -33 
Q 781 25 428 141 
L 428 1069 
Q 766 900 1098 814 
Q 1431 728 1753 728 
Q 2231 728 2486 893 
Q 2741 1059 2741 1369 
Q 2741 1688 2480 1852 
Q 2219 2016 1709 2016 
L 1228 2016 
L 1228 2791 
L 1734 2791 
Q 2188 2791 2409 2933 
Q 2631 3075 2631 3366 
Q 2631 3634 2415 3781 
Q 2200 3928 1806 3928 
Q 1516 3928 1219 3862 
Q 922 3797 628 3669 
L 628 4550 
Q 984 4650 1334 4700 
Q 1684 4750 2022 4750 
Q 2931 4750 3382 4451 
Q 3834 4153 3834 3553 
Q 3834 3144 3618 2883 
Q 3403 2622 2981 2516 
z
" transform="scale(0.015625)"/>
     </defs>
     <use xlink:href="#DejaVuSans-Bold-47"/>
     <use xlink:href="#DejaVuSans-Bold-51" transform="translate(82.080078 0)"/>
     <use xlink:href="#DejaVuSans-Bold-41" transform="translate(167.089844 0)"/>
     <use xlink:href="#DejaVuSans-Bold-20" transform="translate(244.482422 0)"/>
     <use xlink:href="#DejaVuSans-Bold-44" transform="translate(279.296875 0)"/>
     <use xlink:href="#DejaVuSans-Bold-65" transform="translate(362.304688 0)"/>
     <use xlink:href="#DejaVuSans-Bold-6e" transform="translate(430.126953 0)"/>
     <use xlink:href="#DejaVuSans-Bold-73" transform="translate(501.318359 0)"/>
     <use xlink:href="#DejaVuSans-Bold-65" transform="translate(560.839844 0)"/>
     <use xlink:href="#DejaVuSans-Bold-20" transform="translate(628.662109 0)"/>
     <use xlink:href="#DejaVuSans-Bold-50" transform="translate(663.476562 0)"/>
     <use xlink:href="#DejaVuSans-Bold-72" transform="translate(736.767578 0)"/>
     <use xlink:href="#DejaVuSans-Bold-65" transform="translate(786.083984 0)"/>
     <use xlink:href="#DejaVuSans-Bold-66" transform="translate(853.90625 0)"/>
     <use xlink:href="#DejaVuSans-Bold-69" transform="translate(897.412109 0)"/>
     <use xlink:href="#DejaVuSans-Bold-6c" transform="translate(931.689453 0)"/>
     <use xlink:href="#DejaVuSans-Bold-6c" transform="translate(965.966797 0)"/>
     <use xlink:href="#DejaVuSans-Bold-20" transform="translate(1000.244141 0)"/>
     <use xlink:href="#DroidSansFallback-6027" transform="translate(1035.058594 0)"/>
     <use xlink:href="#DroidSansFallback-80fd" transform="translate(1135.058594 0)"/>
     <use xlink:href="#DroidSansFallback-5bf9" transform="translate(1235.058594 0)"/>
     <use xlink:href="#DroidSansFallback-6bd4" transform="translate(1335.058594 0)"/>
     <use xlink:href="#DroidSansFallback-ff1a" transform="translate(1435.058594 0)"/>
     <use xlink:href="#DejaVuSans-Bold-54" transform="translate(1535.058594 0)"/>
     <use xlink:href="#DejaVuSans-Bold-69" transform="translate(1603.271484 0)"/>
     <use xlink:href="#DejaVuSans-Bold-6c" transform="translate(1637.548828 0)"/>
     <use xlink:href="#DejaVuSans-Bold-65" transform="translate(1671.826172 0)"/>
     <use xlink:href="#DejaVuSans-Bold-4f" transform="translate(1739.648438 0)"/>
     <use xlink:href="#DejaVuSans-Bold-70" transform="translate(1824.658203 0)"/>
     <use xlink:href="#DejaVuSans-Bold-73" transform="translate(1896.240234 0)"/>
     <use xlink:href="#DejaVuSans-Bold-20" transform="translate(1955.761719 0)"/>
     <use xlink:href="#DejaVuSans-Bold-2f" transform="translate(1990.576172 0)"/>
     <use xlink:href="#DejaVuSans-Bold-20" transform="translate(2027.099609 0)"/>
     <use xlink:href="#DejaVuSans-Bold-46" transform="translate(2061.914062 0)"/>
     <use xlink:href="#DejaVuSans-Bold-6c" transform="translate(2130.224609 0)"/>
     <use xlink:href="#DejaVuSans-Bold-61" transform="translate(2164.501953 0)"/>
     <use xlink:href="#DejaVuSans-Bold-73" transform="translate(2231.982422 0)"/>
     <use xlink:href="#DejaVuSans-Bold-68" transform="translate(2291.503906 0)"/>
     <use xlink:href="#DejaVuSans-Bold-49" transform="translate(2362.695312 0)"/>
     <use xlink:href="#DejaVuSans-Bold-6e" transform="translate(2399.902344 0)"/>
     <use xlink:href="#DejaVuSans-Bold-66" transform="translate(2471.09375 0)"/>
     <use xlink:href="#DejaVuSans-Bold-65" transform="translate(2514.599609 0)"/>
     <use xlink:href="#DejaVuSans-Bold-72" transform="translate(2582.421875 0)"/>
     <use xlink:href="#DejaVuSans-Bold-20" transform="translate(2631.738281 0)"/>
     <use xlink:href="#DejaVuSans-Bold-2f" transform="translate(2666.552734 0)"/>
     <use xlink:href="#DejaVuSans-Bold-20" transform="translate(2703.076172 0)"/>
     <use xlink:href="#DejaVuSans-Bold-46" transform="translate(2737.890625 0)"/>
     <use xlink:href="#DejaVuSans-Bold-41" transform="translate(2794.701172 0)"/>
     <use xlink:href="#DejaVuSans-Bold-33" transform="translate(2872.09375 0)"/>
    </g>
   </g>
   <g id="legend_1">
    <g id="patch_16">
     <path d="M 607.438787 528.750625 
L 631.438787 528.750625 
L 631.438787 520.350625 
L 607.438787 520.350625 
z
" style="fill: #7c5cff; opacity: 0.72"/>
    </g>
    <g id="text_23">
     <!-- FlashInfer -->
     <g transform="translate(641.038787 528.750625) scale(0.12 -0.12)">
      <defs>
       <path id="DejaVuSans-49" d="M 628 4666 
L 1259 4666 
L 1259 0 
L 628 0 
L 628 4666 
z
" transform="scale(0.015625)"/>
      </defs>
      <use xlink:href="#DejaVuSans-46"/>
      <use xlink:href="#DejaVuSans-6c" transform="translate(57.519531 0)"/>
      <use xlink:href="#DejaVuSans-61" transform="translate(85.302734 0)"/>
      <use xlink:href="#DejaVuSans-73" transform="translate(146.582031 0)"/>
      <use xlink:href="#DejaVuSans-68" transform="translate(198.681641 0)"/>
      <use xlink:href="#DejaVuSans-49" transform="translate(262.060547 0)"/>
      <use xlink:href="#DejaVuSans-6e" transform="translate(291.552734 0)"/>
      <use xlink:href="#DejaVuSans-66" transform="translate(354.931641 0)"/>
      <use xlink:href="#DejaVuSans-65" transform="translate(390.136719 0)"/>
      <use xlink:href="#DejaVuSans-72" transform="translate(451.660156 0)"/>
     </g>
    </g>
    <g id="patch_17">
     <path d="M 607.438787 546.364375 
L 631.438787 546.364375 
L 631.438787 537.964375 
L 607.438787 537.964375 
z
" style="fill: #00a896"/>
    </g>
    <g id="text_24">
     <!-- TileOps -->
     <g transform="translate(641.038787 546.364375) scale(0.12 -0.12)">
      <defs>
       <path id="DejaVuSans-54" d="M -19 4666 
L 3928 4666 
L 3928 4134 
L 2272 4134 
L 2272 0 
L 1638 0 
L 1638 4134 
L -19 4134 
L -19 4666 
z
" transform="scale(0.015625)"/>
       <path id="DejaVuSans-4f" d="M 2522 4238 
Q 1834 4238 1429 3725 
Q 1025 3213 1025 2328 
Q 1025 1447 1429 934 
Q 1834 422 2522 422 
Q 3209 422 3611 934 
Q 4013 1447 4013 2328 
Q 4013 3213 3611 3725 
Q 3209 4238 2522 4238 
z
M 2522 4750 
Q 3503 4750 4090 4092 
Q 4678 3434 4678 2328 
Q 4678 1225 4090 567 
Q 3503 -91 2522 -91 
Q 1538 -91 948 565 
Q 359 1222 359 2328 
Q 359 3434 948 4092 
Q 1538 4750 2522 4750 
z
" transform="scale(0.015625)"/>
      </defs>
      <use xlink:href="#DejaVuSans-54"/>
      <use xlink:href="#DejaVuSans-69" transform="translate(57.958984 0)"/>
      <use xlink:href="#DejaVuSans-6c" transform="translate(85.742188 0)"/>
      <use xlink:href="#DejaVuSans-65" transform="translate(113.525391 0)"/>
      <use xlink:href="#DejaVuSans-4f" transform="translate(175.048828 0)"/>
      <use xlink:href="#DejaVuSans-70" transform="translate(253.759766 0)"/>
      <use xlink:href="#DejaVuSans-73" transform="translate(317.236328 0)"/>
     </g>
    </g>
   </g>
  </g>
  <g id="axes_2">
   <g id="text_25">
    <!-- TileOps 平均相对 FA3 -->
    <g style="fill: #63707a" transform="translate(760.781116 100.6168) scale(0.14 -0.14)">
     <defs>
      <path id="DroidSansFallback-5e73" d="M 700 4925 
L 5675 4925 
L 5675 4450 
L 3475 4450 
L 3475 1950 
L 6000 1950 
L 6000 1475 
L 3475 1475 
L 3475 -550 
L 2975 -550 
L 2975 1475 
L 400 1475 
L 400 1950 
L 2975 1950 
L 2975 4450 
L 700 4450 
L 700 4925 
z
M 4850 4150 
L 5375 3975 
Q 5050 2950 4625 2225 
L 4125 2500 
Q 4600 3350 4850 4150 
z
M 1425 4075 
Q 1900 3350 2225 2450 
L 1700 2225 
Q 1400 3125 950 3850 
L 1425 4075 
z
" transform="scale(0.015625)"/>
      <path id="DroidSansFallback-5747" d="M 350 3700 
L 1075 3700 
L 1075 5075 
L 1550 5075 
L 1550 3700 
L 2275 3700 
L 2275 3225 
L 1550 3225 
L 1550 1250 
L 2175 1500 
L 2250 1050 
Q 1400 650 375 375 
L 275 875 
L 1075 1100 
L 1075 3225 
L 350 3225 
L 350 3700 
z
M 3225 5200 
L 3725 5100 
L 3525 4350 
L 5900 4350 
Q 5900 1725 5762 587 
Q 5625 -550 4875 -550 
L 3800 -475 
L 3700 25 
L 4875 -50 
Q 5225 -50 5300 812 
Q 5375 1675 5375 3875 
L 3325 3875 
Q 3150 3275 2650 2625 
L 2275 2975 
Q 2925 3875 3225 5200 
z
M 3825 3350 
Q 4300 2900 4600 2400 
L 4150 2125 
Q 3875 2625 3425 3100 
L 3825 3350 
z
M 4825 1875 
L 4925 1425 
Q 4000 1000 2850 700 
L 2675 1200 
Q 3875 1500 4825 1875 
z
" transform="scale(0.015625)"/>
      <path id="DroidSansFallback-76f8" d="M 400 4025 
L 1325 4025 
L 1325 5175 
L 1825 5175 
L 1825 4025 
L 2700 4025 
L 2700 3550 
L 1825 3550 
L 1825 3300 
L 2775 2125 
L 2450 1650 
L 1825 2625 
L 1825 -575 
L 1325 -575 
L 1325 2250 
Q 1025 1400 500 775 
L 150 1125 
Q 975 2150 1275 3550 
L 400 3550 
L 400 4025 
z
M 5825 4875 
L 5825 -575 
L 5350 -575 
L 5350 -25 
L 3400 -25 
L 3400 -575 
L 2925 -575 
L 2925 4875 
L 5825 4875 
z
M 3400 3400 
L 5350 3400 
L 5350 4425 
L 3400 4425 
L 3400 3400 
z
M 3400 1925 
L 5350 1925 
L 5350 2950 
L 3400 2950 
L 3400 1925 
z
M 3400 425 
L 5350 425 
L 5350 1475 
L 3400 1475 
L 3400 425 
z
" transform="scale(0.015625)"/>
     </defs>
     <use xlink:href="#DejaVuSans-54"/>
     <use xlink:href="#DejaVuSans-69" transform="translate(57.958984 0)"/>
     <use xlink:href="#DejaVuSans-6c" transform="translate(85.742188 0)"/>
     <use xlink:href="#DejaVuSans-65" transform="translate(113.525391 0)"/>
     <use xlink:href="#DejaVuSans-4f" transform="translate(175.048828 0)"/>
     <use xlink:href="#DejaVuSans-70" transform="translate(253.759766 0)"/>
     <use xlink:href="#DejaVuSans-73" transform="translate(317.236328 0)"/>
     <use xlink:href="#DejaVuSans-20" transform="translate(369.335938 0)"/>
     <use xlink:href="#DroidSansFallback-5e73" transform="translate(401.123047 0)"/>
     <use xlink:href="#DroidSansFallback-5747" transform="translate(501.123047 0)"/>
     <use xlink:href="#DroidSansFallback-76f8" transform="translate(601.123047 0)"/>
     <use xlink:href="#DroidSansFallback-5bf9" transform="translate(701.123047 0)"/>
     <use xlink:href="#DejaVuSans-20" transform="translate(801.123047 0)"/>
     <use xlink:href="#DejaVuSans-46" transform="translate(832.910156 0)"/>
     <use xlink:href="#DejaVuSans-41" transform="translate(881.304688 0)"/>
     <use xlink:href="#DejaVuSans-33" transform="translate(949.712891 0)"/>
    </g>
   </g>
   <g id="text_26">
    <!-- 84.1% -->
    <g style="fill: #00a896" transform="translate(760.781116 165.4816) scale(0.52 -0.52)">
     <defs>
      <path id="DejaVuSans-Bold-38" d="M 2228 2088 
Q 1891 2088 1709 1903 
Q 1528 1719 1528 1375 
Q 1528 1031 1709 848 
Q 1891 666 2228 666 
Q 2563 666 2741 848 
Q 2919 1031 2919 1375 
Q 2919 1722 2741 1905 
Q 2563 2088 2228 2088 
z
M 1350 2484 
Q 925 2613 709 2878 
Q 494 3144 494 3541 
Q 494 4131 934 4440 
Q 1375 4750 2228 4750 
Q 3075 4750 3515 4442 
Q 3956 4134 3956 3541 
Q 3956 3144 3739 2878 
Q 3522 2613 3097 2484 
Q 3572 2353 3814 2058 
Q 4056 1763 4056 1313 
Q 4056 619 3595 264 
Q 3134 -91 2228 -91 
Q 1319 -91 855 264 
Q 391 619 391 1313 
Q 391 1763 633 2058 
Q 875 2353 1350 2484 
z
M 1631 3419 
Q 1631 3141 1786 2991 
Q 1941 2841 2228 2841 
Q 2509 2841 2662 2991 
Q 2816 3141 2816 3419 
Q 2816 3697 2662 3845 
Q 2509 3994 2228 3994 
Q 1941 3994 1786 3844 
Q 1631 3694 1631 3419 
z
" transform="scale(0.015625)"/>
      <path id="DejaVuSans-Bold-34" d="M 2356 3675 
L 1038 1722 
L 2356 1722 
L 2356 3675 
z
M 2156 4666 
L 3494 4666 
L 3494 1722 
L 4159 1722 
L 4159 850 
L 3494 850 
L 3494 0 
L 2356 0 
L 2356 850 
L 288 850 
L 288 1881 
L 2156 4666 
z
" transform="scale(0.015625)"/>
      <path id="DejaVuSans-Bold-2e" d="M 653 1209 
L 1778 1209 
L 1778 0 
L 653 0 
L 653 1209 
z
" transform="scale(0.015625)"/>
      <path id="DejaVuSans-Bold-31" d="M 750 831 
L 1813 831 
L 1813 3847 
L 722 3622 
L 722 4441 
L 1806 4666 
L 2950 4666 
L 2950 831 
L 4013 831 
L 4013 0 
L 750 0 
L 750 831 
z
" transform="scale(0.015625)"/>
      <path id="DejaVuSans-Bold-25" d="M 4959 1925 
Q 4738 1925 4616 1733 
Q 4494 1541 4494 1184 
Q 4494 825 4614 633 
Q 4734 441 4959 441 
Q 5184 441 5303 633 
Q 5422 825 5422 1184 
Q 5422 1541 5301 1733 
Q 5181 1925 4959 1925 
z
M 4959 2450 
Q 5541 2450 5875 2112 
Q 6209 1775 6209 1184 
Q 6209 594 5875 251 
Q 5541 -91 4959 -91 
Q 4378 -91 4042 251 
Q 3706 594 3706 1184 
Q 3706 1772 4042 2111 
Q 4378 2450 4959 2450 
z
M 2094 -91 
L 1403 -91 
L 4319 4750 
L 5013 4750 
L 2094 -91 
z
M 1453 4750 
Q 2034 4750 2367 4411 
Q 2700 4072 2700 3481 
Q 2700 2891 2367 2550 
Q 2034 2209 1453 2209 
Q 872 2209 539 2550 
Q 206 2891 206 3481 
Q 206 4072 539 4411 
Q 872 4750 1453 4750 
z
M 1453 4225 
Q 1228 4225 1106 4031 
Q 984 3838 984 3481 
Q 984 3122 1106 2926 
Q 1228 2731 1453 2731 
Q 1678 2731 1798 2926 
Q 1919 3122 1919 3481 
Q 1919 3838 1797 4031 
Q 1675 4225 1453 4225 
z
" transform="scale(0.015625)"/>
     </defs>
     <use xlink:href="#DejaVuSans-Bold-38"/>
     <use xlink:href="#DejaVuSans-Bold-34" transform="translate(69.580078 0)"/>
     <use xlink:href="#DejaVuSans-Bold-2e" transform="translate(139.160156 0)"/>
     <use xlink:href="#DejaVuSans-Bold-31" transform="translate(177.148438 0)"/>
     <use xlink:href="#DejaVuSans-Bold-25" transform="translate(246.728516 0)"/>
    </g>
   </g>
   <g id="text_27">
    <!-- of FA3 -->
    <g style="fill: #63707a" transform="translate(760.781116 225.3568) scale(0.18 -0.18)">
     <use xlink:href="#DejaVuSans-6f"/>
     <use xlink:href="#DejaVuSans-66" transform="translate(61.181641 0)"/>
     <use xlink:href="#DejaVuSans-20" transform="translate(96.386719 0)"/>
     <use xlink:href="#DejaVuSans-46" transform="translate(128.173828 0)"/>
     <use xlink:href="#DejaVuSans-41" transform="translate(176.568359 0)"/>
     <use xlink:href="#DejaVuSans-33" transform="translate(244.976562 0)"/>
    </g>
   </g>
   <g id="text_28">
    <!-- TileOps 平均相对 FlashInfer -->
    <g style="fill: #63707a" transform="translate(760.781116 300.2008) scale(0.14 -0.14)">
     <use xlink:href="#DejaVuSans-54"/>
     <use xlink:href="#DejaVuSans-69" transform="translate(57.958984 0)"/>
     <use xlink:href="#DejaVuSans-6c" transform="translate(85.742188 0)"/>
     <use xlink:href="#DejaVuSans-65" transform="translate(113.525391 0)"/>
     <use xlink:href="#DejaVuSans-4f" transform="translate(175.048828 0)"/>
     <use xlink:href="#DejaVuSans-70" transform="translate(253.759766 0)"/>
     <use xlink:href="#DejaVuSans-73" transform="translate(317.236328 0)"/>
     <use xlink:href="#DejaVuSans-20" transform="translate(369.335938 0)"/>
     <use xlink:href="#DroidSansFallback-5e73" transform="translate(401.123047 0)"/>
     <use xlink:href="#DroidSansFallback-5747" transform="translate(501.123047 0)"/>
     <use xlink:href="#DroidSansFallback-76f8" transform="translate(601.123047 0)"/>
     <use xlink:href="#DroidSansFallback-5bf9" transform="translate(701.123047 0)"/>
     <use xlink:href="#DejaVuSans-20" transform="translate(801.123047 0)"/>
     <use xlink:href="#DejaVuSans-46" transform="translate(832.910156 0)"/>
     <use xlink:href="#DejaVuSans-6c" transform="translate(890.429688 0)"/>
     <use xlink:href="#DejaVuSans-61" transform="translate(918.212891 0)"/>
     <use xlink:href="#DejaVuSans-73" transform="translate(979.492188 0)"/>
     <use xlink:href="#DejaVuSans-68" transform="translate(1031.591797 0)"/>
     <use xlink:href="#DejaVuSans-49" transform="translate(1094.970703 0)"/>
     <use xlink:href="#DejaVuSans-6e" transform="translate(1124.462891 0)"/>
     <use xlink:href="#DejaVuSans-66" transform="translate(1187.841797 0)"/>
     <use xlink:href="#DejaVuSans-65" transform="translate(1223.046875 0)"/>
     <use xlink:href="#DejaVuSans-72" transform="translate(1284.570312 0)"/>
    </g>
   </g>
   <g id="text_29">
    <!-- 95.7% -->
    <g style="fill: #7c5cff" transform="translate(760.781116 355.0864) scale(0.38 -0.38)">
     <defs>
      <path id="DejaVuSans-Bold-39" d="M 641 103 
L 641 966 
Q 928 831 1190 764 
Q 1453 697 1709 697 
Q 2247 697 2547 995 
Q 2847 1294 2900 1881 
Q 2688 1725 2447 1647 
Q 2206 1569 1925 1569 
Q 1209 1569 770 1986 
Q 331 2403 331 3084 
Q 331 3838 820 4291 
Q 1309 4744 2131 4744 
Q 3044 4744 3544 4128 
Q 4044 3513 4044 2388 
Q 4044 1231 3459 570 
Q 2875 -91 1856 -91 
Q 1528 -91 1228 -42 
Q 928 6 641 103 
z
M 2125 2350 
Q 2441 2350 2600 2554 
Q 2759 2759 2759 3169 
Q 2759 3575 2600 3781 
Q 2441 3988 2125 3988 
Q 1809 3988 1650 3781 
Q 1491 3575 1491 3169 
Q 1491 2759 1650 2554 
Q 1809 2350 2125 2350 
z
" transform="scale(0.015625)"/>
      <path id="DejaVuSans-Bold-35" d="M 678 4666 
L 3669 4666 
L 3669 3781 
L 1638 3781 
L 1638 3059 
Q 1775 3097 1914 3117 
Q 2053 3138 2203 3138 
Q 3056 3138 3531 2711 
Q 4006 2284 4006 1522 
Q 4006 766 3489 337 
Q 2972 -91 2053 -91 
Q 1656 -91 1267 -14 
Q 878 63 494 219 
L 494 1166 
Q 875 947 1217 837 
Q 1559 728 1863 728 
Q 2300 728 2551 942 
Q 2803 1156 2803 1522 
Q 2803 1891 2551 2103 
Q 2300 2316 1863 2316 
Q 1603 2316 1309 2248 
Q 1016 2181 678 2041 
L 678 4666 
z
" transform="scale(0.015625)"/>
      <path id="DejaVuSans-Bold-37" d="M 428 4666 
L 3944 4666 
L 3944 3988 
L 2125 0 
L 953 0 
L 2675 3781 
L 428 3781 
L 428 4666 
z
" transform="scale(0.015625)"/>
     </defs>
     <use xlink:href="#DejaVuSans-Bold-39"/>
     <use xlink:href="#DejaVuSans-Bold-35" transform="translate(69.580078 0)"/>
     <use xlink:href="#DejaVuSans-Bold-2e" transform="translate(139.160156 0)"/>
     <use xlink:href="#DejaVuSans-Bold-37" transform="translate(177.148438 0)"/>
     <use xlink:href="#DejaVuSans-Bold-25" transform="translate(246.728516 0)"/>
    </g>
   </g>
   <g id="text_30">
    <!-- 最佳 workload -->
    <g style="fill: #63707a" transform="translate(760.781116 434.92) scale(0.14 -0.14)">
     <defs>
      <path id="DroidSansFallback-6700" d="M 1075 5000 
L 5325 5000 
L 5325 3150 
L 1075 3150 
L 1075 5000 
z
M 1575 4275 
L 4850 4275 
L 4850 4600 
L 1575 4600 
L 1575 4275 
z
M 1575 3575 
L 4850 3575 
L 4850 3900 
L 1575 3900 
L 1575 3575 
z
M 325 2800 
L 6075 2800 
L 6075 2400 
L 3050 2400 
L 3050 550 
L 3375 600 
L 3450 150 
L 3050 100 
L 3050 -575 
L 2575 -575 
L 2575 25 
L 400 -225 
L 325 250 
L 825 300 
L 825 2400 
L 325 2400 
L 325 2800 
z
M 1325 1975 
L 2575 1975 
L 2575 2400 
L 1325 2400 
L 1325 1975 
z
M 1325 1175 
L 2575 1175 
L 2575 1625 
L 1325 1625 
L 1325 1175 
z
M 1325 325 
L 2575 475 
L 2575 825 
L 1325 825 
L 1325 325 
z
M 3750 1500 
Q 4075 975 4525 625 
Q 4925 1075 5125 1600 
L 3475 1600 
L 3475 2050 
L 5675 2050 
L 5675 1600 
Q 5375 850 4925 350 
Q 5450 75 6075 -100 
L 5850 -575 
Q 5150 -375 4575 0 
Q 4125 -350 3500 -575 
L 3325 -150 
Q 3800 25 4175 300 
Q 3800 650 3500 1125 
L 3750 1500 
z
" transform="scale(0.015625)"/>
      <path id="DroidSansFallback-4f73" d="M 1500 5175 
L 2000 5025 
L 1475 3650 
L 1475 -575 
L 975 -575 
L 975 2700 
L 500 2050 
L 250 2550 
Q 1100 3800 1500 5175 
z
M 2125 4325 
L 3650 4325 
L 3650 5175 
L 4150 5175 
L 4150 4325 
L 5675 4325 
L 5675 3850 
L 4150 3850 
L 4150 3000 
L 5975 3000 
L 5975 2525 
L 1850 2525 
L 1850 3000 
L 3650 3000 
L 3650 3850 
L 2125 3850 
L 2125 4325 
z
M 2175 1400 
L 3700 1400 
L 3700 2300 
L 4200 2300 
L 4200 1400 
L 5700 1400 
L 5700 925 
L 4200 925 
L 4200 50 
L 6125 50 
L 6125 -425 
L 1725 -425 
L 1725 50 
L 3700 50 
L 3700 925 
L 2175 925 
L 2175 1400 
z
" transform="scale(0.015625)"/>
     </defs>
     <use xlink:href="#DroidSansFallback-6700"/>
     <use xlink:href="#DroidSansFallback-4f73" transform="translate(100 0)"/>
     <use xlink:href="#DejaVuSans-20" transform="translate(200 0)"/>
     <use xlink:href="#DejaVuSans-77" transform="translate(231.787109 0)"/>
     <use xlink:href="#DejaVuSans-6f" transform="translate(313.574219 0)"/>
     <use xlink:href="#DejaVuSans-72" transform="translate(374.755859 0)"/>
     <use xlink:href="#DejaVuSans-6b" transform="translate(415.869141 0)"/>
     <use xlink:href="#DejaVuSans-6c" transform="translate(473.779297 0)"/>
     <use xlink:href="#DejaVuSans-6f" transform="translate(501.5625 0)"/>
     <use xlink:href="#DejaVuSans-61" transform="translate(562.744141 0)"/>
     <use xlink:href="#DejaVuSans-64" transform="translate(624.023438 0)"/>
    </g>
   </g>
   <g id="text_31">
    <!-- llama405b-4k -->
    <g style="fill: #172026" transform="translate(760.781116 479.8264) scale(0.21 -0.21)">
     <defs>
      <path id="DejaVuSans-Bold-6d" d="M 3781 2919 
Q 3994 3244 4286 3414 
Q 4578 3584 4928 3584 
Q 5531 3584 5847 3212 
Q 6163 2841 6163 2131 
L 6163 0 
L 5038 0 
L 5038 1825 
Q 5041 1866 5042 1909 
Q 5044 1953 5044 2034 
Q 5044 2406 4934 2573 
Q 4825 2741 4581 2741 
Q 4263 2741 4089 2478 
Q 3916 2216 3909 1719 
L 3909 0 
L 2784 0 
L 2784 1825 
Q 2784 2406 2684 2573 
Q 2584 2741 2328 2741 
Q 2006 2741 1831 2477 
Q 1656 2213 1656 1722 
L 1656 0 
L 531 0 
L 531 3500 
L 1656 3500 
L 1656 2988 
Q 1863 3284 2130 3434 
Q 2397 3584 2719 3584 
Q 3081 3584 3359 3409 
Q 3638 3234 3781 2919 
z
" transform="scale(0.015625)"/>
      <path id="DejaVuSans-Bold-30" d="M 2944 2338 
Q 2944 3213 2780 3570 
Q 2616 3928 2228 3928 
Q 1841 3928 1675 3570 
Q 1509 3213 1509 2338 
Q 1509 1453 1675 1090 
Q 1841 728 2228 728 
Q 2613 728 2778 1090 
Q 2944 1453 2944 2338 
z
M 4147 2328 
Q 4147 1169 3647 539 
Q 3147 -91 2228 -91 
Q 1306 -91 806 539 
Q 306 1169 306 2328 
Q 306 3491 806 4120 
Q 1306 4750 2228 4750 
Q 3147 4750 3647 4120 
Q 4147 3491 4147 2328 
z
" transform="scale(0.015625)"/>
      <path id="DejaVuSans-Bold-62" d="M 2400 722 
Q 2759 722 2948 984 
Q 3138 1247 3138 1747 
Q 3138 2247 2948 2509 
Q 2759 2772 2400 2772 
Q 2041 2772 1848 2508 
Q 1656 2244 1656 1747 
Q 1656 1250 1848 986 
Q 2041 722 2400 722 
z
M 1656 2988 
Q 1888 3294 2169 3439 
Q 2450 3584 2816 3584 
Q 3463 3584 3878 3070 
Q 4294 2556 4294 1747 
Q 4294 938 3878 423 
Q 3463 -91 2816 -91 
Q 2450 -91 2169 54 
Q 1888 200 1656 506 
L 1656 0 
L 538 0 
L 538 4863 
L 1656 4863 
L 1656 2988 
z
" transform="scale(0.015625)"/>
      <path id="DejaVuSans-Bold-2d" d="M 347 2297 
L 2309 2297 
L 2309 1388 
L 347 1388 
L 347 2297 
z
" transform="scale(0.015625)"/>
      <path id="DejaVuSans-Bold-6b" d="M 538 4863 
L 1656 4863 
L 1656 2216 
L 2944 3500 
L 4244 3500 
L 2534 1894 
L 4378 0 
L 3022 0 
L 1656 1459 
L 1656 0 
L 538 0 
L 538 4863 
z
" transform="scale(0.015625)"/>
     </defs>
     <use xlink:href="#DejaVuSans-Bold-6c"/>
     <use xlink:href="#DejaVuSans-Bold-6c" transform="translate(34.277344 0)"/>
     <use xlink:href="#DejaVuSans-Bold-61" transform="translate(68.554688 0)"/>
     <use xlink:href="#DejaVuSans-Bold-6d" transform="translate(136.035156 0)"/>
     <use xlink:href="#DejaVuSans-Bold-61" transform="translate(240.234375 0)"/>
     <use xlink:href="#DejaVuSans-Bold-34" transform="translate(307.714844 0)"/>
     <use xlink:href="#DejaVuSans-Bold-30" transform="translate(377.294922 0)"/>
     <use xlink:href="#DejaVuSans-Bold-35" transform="translate(446.875 0)"/>
     <use xlink:href="#DejaVuSans-Bold-62" transform="translate(516.455078 0)"/>
     <use xlink:href="#DejaVuSans-Bold-2d" transform="translate(588.037109 0)"/>
     <use xlink:href="#DejaVuSans-Bold-34" transform="translate(629.541016 0)"/>
     <use xlink:href="#DejaVuSans-Bold-6b" transform="translate(699.121094 0)"/>
    </g>
   </g>
   <g id="text_32">
    <!-- 87.5% of FA3 -->
    <g style="fill: #f5a524" transform="translate(760.781116 524.7328) scale(0.23 -0.23)">
     <defs>
      <path id="DejaVuSans-Bold-6f" d="M 2203 2784 
Q 1831 2784 1636 2517 
Q 1441 2250 1441 1747 
Q 1441 1244 1636 976 
Q 1831 709 2203 709 
Q 2569 709 2762 976 
Q 2956 1244 2956 1747 
Q 2956 2250 2762 2517 
Q 2569 2784 2203 2784 
z
M 2203 3584 
Q 3106 3584 3614 3096 
Q 4122 2609 4122 1747 
Q 4122 884 3614 396 
Q 3106 -91 2203 -91 
Q 1297 -91 786 396 
Q 275 884 275 1747 
Q 275 2609 786 3096 
Q 1297 3584 2203 3584 
z
" transform="scale(0.015625)"/>
     </defs>
     <use xlink:href="#DejaVuSans-Bold-38"/>
     <use xlink:href="#DejaVuSans-Bold-37" transform="translate(69.580078 0)"/>
     <use xlink:href="#DejaVuSans-Bold-2e" transform="translate(139.160156 0)"/>
     <use xlink:href="#DejaVuSans-Bold-35" transform="translate(177.148438 0)"/>
     <use xlink:href="#DejaVuSans-Bold-25" transform="translate(246.728516 0)"/>
     <use xlink:href="#DejaVuSans-Bold-20" transform="translate(346.923828 0)"/>
     <use xlink:href="#DejaVuSans-Bold-6f" transform="translate(381.738281 0)"/>
     <use xlink:href="#DejaVuSans-Bold-66" transform="translate(450.439453 0)"/>
     <use xlink:href="#DejaVuSans-Bold-20" transform="translate(493.945312 0)"/>
     <use xlink:href="#DejaVuSans-Bold-46" transform="translate(528.759766 0)"/>
     <use xlink:href="#DejaVuSans-Bold-41" transform="translate(585.570312 0)"/>
     <use xlink:href="#DejaVuSans-Bold-33" transform="translate(662.962891 0)"/>
    </g>
   </g>
   <g id="text_33">
    <!-- 102.0% of FlashInfer -->
    <g style="fill: #63707a" transform="translate(760.781116 569.6392) scale(0.125 -0.125)">
     <use xlink:href="#DejaVuSans-31"/>
     <use xlink:href="#DejaVuSans-30" transform="translate(63.623047 0)"/>
     <use xlink:href="#DejaVuSans-32" transform="translate(127.246094 0)"/>
     <use xlink:href="#DejaVuSans-2e" transform="translate(190.869141 0)"/>
     <use xlink:href="#DejaVuSans-30" transform="translate(222.65625 0)"/>
     <use xlink:href="#DejaVuSans-25" transform="translate(286.279297 0)"/>
     <use xlink:href="#DejaVuSans-20" transform="translate(381.298828 0)"/>
     <use xlink:href="#DejaVuSans-6f" transform="translate(413.085938 0)"/>
     <use xlink:href="#DejaVuSans-66" transform="translate(474.267578 0)"/>
     <use xlink:href="#DejaVuSans-20" transform="translate(509.472656 0)"/>
     <use xlink:href="#DejaVuSans-46" transform="translate(541.259766 0)"/>
     <use xlink:href="#DejaVuSans-6c" transform="translate(598.779297 0)"/>
     <use xlink:href="#DejaVuSans-61" transform="translate(626.5625 0)"/>
     <use xlink:href="#DejaVuSans-73" transform="translate(687.841797 0)"/>
     <use xlink:href="#DejaVuSans-68" transform="translate(739.941406 0)"/>
     <use xlink:href="#DejaVuSans-49" transform="translate(803.320312 0)"/>
     <use xlink:href="#DejaVuSans-6e" transform="translate(832.8125 0)"/>
     <use xlink:href="#DejaVuSans-66" transform="translate(896.191406 0)"/>
     <use xlink:href="#DejaVuSans-65" transform="translate(931.396484 0)"/>
     <use xlink:href="#DejaVuSans-72" transform="translate(992.919922 0)"/>
    </g>
   </g>
   <g id="text_34">
    <!-- Source: https://github.com/tile-ai/TileOPs/actions/runs/25259450950 -->
    <g style="fill: #63707a" transform="translate(760.781116 624.5248) scale(0.095 -0.095)">
     <defs>
      <path id="DejaVuSans-53" d="M 3425 4513 
L 3425 3897 
Q 3066 4069 2747 4153 
Q 2428 4238 2131 4238 
Q 1616 4238 1336 4038 
Q 1056 3838 1056 3469 
Q 1056 3159 1242 3001 
Q 1428 2844 1947 2747 
L 2328 2669 
Q 3034 2534 3370 2195 
Q 3706 1856 3706 1288 
Q 3706 609 3251 259 
Q 2797 -91 1919 -91 
Q 1588 -91 1214 -16 
Q 841 59 441 206 
L 441 856 
Q 825 641 1194 531 
Q 1563 422 1919 422 
Q 2459 422 2753 634 
Q 3047 847 3047 1241 
Q 3047 1584 2836 1778 
Q 2625 1972 2144 2069 
L 1759 2144 
Q 1053 2284 737 2584 
Q 422 2884 422 3419 
Q 422 4038 858 4394 
Q 1294 4750 2059 4750 
Q 2388 4750 2728 4690 
Q 3069 4631 3425 4513 
z
" transform="scale(0.015625)"/>
      <path id="DejaVuSans-3a" d="M 750 794 
L 1409 794 
L 1409 0 
L 750 0 
L 750 794 
z
M 750 3309 
L 1409 3309 
L 1409 2516 
L 750 2516 
L 750 3309 
z
" transform="scale(0.015625)"/>
      <path id="DejaVuSans-2f" d="M 1625 4666 
L 2156 4666 
L 531 -594 
L 0 -594 
L 1625 4666 
z
" transform="scale(0.015625)"/>
      <path id="DejaVuSans-50" d="M 1259 4147 
L 1259 2394 
L 2053 2394 
Q 2494 2394 2734 2622 
Q 2975 2850 2975 3272 
Q 2975 3691 2734 3919 
Q 2494 4147 2053 4147 
L 1259 4147 
z
M 628 4666 
L 2053 4666 
Q 2838 4666 3239 4311 
Q 3641 3956 3641 3272 
Q 3641 2581 3239 2228 
Q 2838 1875 2053 1875 
L 1259 1875 
L 1259 0 
L 628 0 
L 628 4666 
z
" transform="scale(0.015625)"/>
     </defs>
     <use xlink:href="#DejaVuSans-53"/>
     <use xlink:href="#DejaVuSans-6f" transform="translate(63.476562 0)"/>
     <use xlink:href="#DejaVuSans-75" transform="translate(124.658203 0)"/>
     <use xlink:href="#DejaVuSans-72" transform="translate(188.037109 0)"/>
     <use xlink:href="#DejaVuSans-63" transform="translate(226.900391 0)"/>
     <use xlink:href="#DejaVuSans-65" transform="translate(281.880859 0)"/>
     <use xlink:href="#DejaVuSans-3a" transform="translate(343.404297 0)"/>
     <use xlink:href="#DejaVuSans-20" transform="translate(377.095703 0)"/>
     <use xlink:href="#DejaVuSans-68" transform="translate(408.882812 0)"/>
     <use xlink:href="#DejaVuSans-74" transform="translate(472.261719 0)"/>
     <use xlink:href="#DejaVuSans-74" transform="translate(511.470703 0)"/>
     <use xlink:href="#DejaVuSans-70" transform="translate(550.679688 0)"/>
     <use xlink:href="#DejaVuSans-73" transform="translate(614.15625 0)"/>
     <use xlink:href="#DejaVuSans-3a" transform="translate(666.255859 0)"/>
     <use xlink:href="#DejaVuSans-2f" transform="translate(699.947266 0)"/>
     <use xlink:href="#DejaVuSans-2f" transform="translate(733.638672 0)"/>
     <use xlink:href="#DejaVuSans-67" transform="translate(767.330078 0)"/>
     <use xlink:href="#DejaVuSans-69" transform="translate(830.806641 0)"/>
     <use xlink:href="#DejaVuSans-74" transform="translate(858.589844 0)"/>
     <use xlink:href="#DejaVuSans-68" transform="translate(897.798828 0)"/>
     <use xlink:href="#DejaVuSans-75" transform="translate(961.177734 0)"/>
     <use xlink:href="#DejaVuSans-62" transform="translate(1024.556641 0)"/>
     <use xlink:href="#DejaVuSans-2e" transform="translate(1088.033203 0)"/>
     <use xlink:href="#DejaVuSans-63" transform="translate(1119.820312 0)"/>
     <use xlink:href="#DejaVuSans-6f" transform="translate(1174.800781 0)"/>
     <use xlink:href="#DejaVuSans-6d" transform="translate(1235.982422 0)"/>
     <use xlink:href="#DejaVuSans-2f" transform="translate(1333.394531 0)"/>
     <use xlink:href="#DejaVuSans-74" transform="translate(1367.085938 0)"/>
     <use xlink:href="#DejaVuSans-69" transform="translate(1406.294922 0)"/>
     <use xlink:href="#DejaVuSans-6c" transform="translate(1434.078125 0)"/>
     <use xlink:href="#DejaVuSans-65" transform="translate(1461.861328 0)"/>
     <use xlink:href="#DejaVuSans-2d" transform="translate(1523.384766 0)"/>
     <use xlink:href="#DejaVuSans-61" transform="translate(1559.46875 0)"/>
     <use xlink:href="#DejaVuSans-69" transform="translate(1620.748047 0)"/>
     <use xlink:href="#DejaVuSans-2f" transform="translate(1648.53125 0)"/>
     <use xlink:href="#DejaVuSans-54" transform="translate(1682.222656 0)"/>
     <use xlink:href="#DejaVuSans-69" transform="translate(1740.181641 0)"/>
     <use xlink:href="#DejaVuSans-6c" transform="translate(1767.964844 0)"/>
     <use xlink:href="#DejaVuSans-65" transform="translate(1795.748047 0)"/>
     <use xlink:href="#DejaVuSans-4f" transform="translate(1857.271484 0)"/>
     <use xlink:href="#DejaVuSans-50" transform="translate(1935.982422 0)"/>
     <use xlink:href="#DejaVuSans-73" transform="translate(1994.535156 0)"/>
     <use xlink:href="#DejaVuSans-2f" transform="translate(2046.634766 0)"/>
     <use xlink:href="#DejaVuSans-61" transform="translate(2080.326172 0)"/>
     <use xlink:href="#DejaVuSans-63" transform="translate(2141.605469 0)"/>
     <use xlink:href="#DejaVuSans-74" transform="translate(2196.585938 0)"/>
     <use xlink:href="#DejaVuSans-69" transform="translate(2235.794922 0)"/>
     <use xlink:href="#DejaVuSans-6f" transform="translate(2263.578125 0)"/>
     <use xlink:href="#DejaVuSans-6e" transform="translate(2324.759766 0)"/>
     <use xlink:href="#DejaVuSans-73" transform="translate(2388.138672 0)"/>
     <use xlink:href="#DejaVuSans-2f" transform="translate(2440.238281 0)"/>
     <use xlink:href="#DejaVuSans-72" transform="translate(2473.929688 0)"/>
     <use xlink:href="#DejaVuSans-75" transform="translate(2515.042969 0)"/>
     <use xlink:href="#DejaVuSans-6e" transform="translate(2578.421875 0)"/>
     <use xlink:href="#DejaVuSans-73" transform="translate(2641.800781 0)"/>
     <use xlink:href="#DejaVuSans-2f" transform="translate(2693.900391 0)"/>
     <use xlink:href="#DejaVuSans-32" transform="translate(2727.591797 0)"/>
     <use xlink:href="#DejaVuSans-35" transform="translate(2791.214844 0)"/>
     <use xlink:href="#DejaVuSans-32" transform="translate(2854.837891 0)"/>
     <use xlink:href="#DejaVuSans-35" transform="translate(2918.460938 0)"/>
     <use xlink:href="#DejaVuSans-39" transform="translate(2982.083984 0)"/>
     <use xlink:href="#DejaVuSans-34" transform="translate(3045.707031 0)"/>
     <use xlink:href="#DejaVuSans-35" transform="translate(3109.330078 0)"/>
     <use xlink:href="#DejaVuSans-30" transform="translate(3172.953125 0)"/>
     <use xlink:href="#DejaVuSans-39" transform="translate(3236.576172 0)"/>
     <use xlink:href="#DejaVuSans-35" transform="translate(3300.199219 0)"/>
     <use xlink:href="#DejaVuSans-30" transform="translate(3363.822266 0)"/>
    </g>
   </g>
  </g>
 </g>
 <defs>
  <clipPath id="p7fc0f37d63">
   <rect x="86.325" y="60.7" width="624.645662" height="498.96"/>
  </clipPath>
 </defs>
</svg>
