<svg xmlns="http://www.w3.org/2000/svg" class="ltx_picture ltx_centering" height="42.75" id="S3.F4.pic1" overflow="visible" version="1.1" width="572.17"><g fill="#000000" stroke="#000000" stroke-width="0.4pt" transform="translate(0,42.75) matrix(1 0 0 -1 0 0) translate(2.62,0) translate(0,21.37)"><g fill="#CCFFFF"><path d="M 0 0 M 0 0 L 0 19.69 L 70.87 19.69 L 70.87 0 Z M 70.87 19.69"></path></g><g fill="#80FFFF"><path d="M 70.87 0 M 70.87 0 L 70.87 19.69 L 141.73 19.69 L 141.73 0 Z M 141.73 19.69"></path></g><g fill="#CCFFFF"><path d="M 141.73 0 M 141.73 0 L 141.73 19.69 L 212.6 19.69 L 212.6 0 Z M 212.6 19.69"></path></g><g fill="#80FFFF"><path d="M 212.6 0 M 212.6 0 L 212.6 19.69 L 283.46 19.69 L 283.46 0 Z M 283.46 19.69"></path></g><g fill="#CCFFFF"><path d="M 283.46 0 M 283.46 0 L 283.46 19.69 L 354.33 19.69 L 354.33 0 Z M 354.33 19.69"></path></g><g fill="#80FFFF"><path d="M 354.33 0 M 354.33 0 L 354.33 19.69 L 425.2 19.69 L 425.2 0 Z M 425.2 19.69"></path></g><g fill="#CCFFFF"><path d="M 425.2 0 M 425.2 0 L 425.2 19.69 L 496.06 19.69 L 496.06 0 Z M 496.06 19.69"></path></g><g fill="#80FFFF"><path d="M 496.06 0 M 496.06 0 L 496.06 19.69 L 566.93 19.69 L 566.93 0 Z M 566.93 19.69"></path></g><g fill="#FFF7CC"><path d="M 0 -19.69 M 0 -19.69 L 0 0 L 70.87 0 L 70.87 -19.69 Z M 70.87 0"></path></g><g fill="#FFD280"><path d="M 70.87 -19.69 M 70.87 -19.69 L 70.87 0 L 141.73 0 L 141.73 -19.69 Z M 141.73 0"></path></g><g fill="#FFF7CC"><path d="M 141.73 -19.69 M 141.73 -19.69 L 141.73 0 L 212.6 0 L 212.6 -19.69 Z M 212.6 0"></path></g><g fill="#FFD280"><path d="M 212.6 -19.69 M 212.6 -19.69 L 212.6 0 L 283.46 0 L 283.46 -19.69 Z M 283.46 0"></path></g><g fill="#FFF7CC"><path d="M 283.46 -19.69 M 283.46 -19.69 L 283.46 0 L 354.33 0 L 354.33 -19.69 Z M 354.33 0"></path></g><g fill="#FFD280"><path d="M 354.33 -19.69 M 354.33 -19.69 L 354.33 0 L 425.2 0 L 425.2 -19.69 Z M 425.2 0"></path></g><g fill="#FFF7CC"><path d="M 425.2 -19.69 M 425.2 -19.69 L 425.2 0 L 496.06 0 L 496.06 -19.69 Z M 496.06 0"></path></g><g fill="#FFD280"><path d="M 496.06 -19.69 M 496.06 -19.69 L 496.06 0 L 566.93 0 L 566.93 -19.69 Z M 566.93 0"></path></g><g fill="#000000" stroke="#000000" transform="matrix(1.0 0.0 0.0 1.0 1.99 6.38)"><foreignobject height="13.84" overflow="visible" transform="matrix(1 0 0 -1 0 16.6)" width="66.88"><span class="ltx_text" id="S3.F4.pic1.1.1.1.1.1">T0 {a0, a1}</span></foreignobject></g><g fill="#000000" stroke="#000000" transform="matrix(1.0 0.0 0.0 1.0 72.86 6.38)"><foreignobject height="13.84" overflow="visible" transform="matrix(1 0 0 -1 0 16.6)" width="66.88"><span class="ltx_text" id="S3.F4.pic1.2.2.2.1.1">T0 {a2, a3}</span></foreignobject></g><g fill="#000000" stroke="#000000" transform="matrix(1.0 0.0 0.0 1.0 143.73 6.38)"><foreignobject height="13.84" overflow="visible" transform="matrix(1 0 0 -1 0 16.6)" width="66.88"><span class="ltx_text" id="S3.F4.pic1.3.3.3.1.1">T1 {a0, a1}</span></foreignobject></g><g fill="#000000" stroke="#000000" transform="matrix(1.0 0.0 0.0 1.0 214.59 6.38)"><foreignobject height="13.84" overflow="visible" transform="matrix(1 0 0 -1 0 16.6)" width="66.88"><span class="ltx_text" id="S3.F4.pic1.4.4.4.1.1">T1 {a2, a3}</span></foreignobject></g><g fill="#000000" stroke="#000000" transform="matrix(1.0 0.0 0.0 1.0 285.46 6.38)"><foreignobject height="13.84" overflow="visible" transform="matrix(1 0 0 -1 0 16.6)" width="66.88"><span class="ltx_text" id="S3.F4.pic1.5.5.5.1.1">T2 {a0, a1}</span></foreignobject></g><g fill="#000000" stroke="#000000" transform="matrix(1.0 0.0 0.0 1.0 356.32 6.38)"><foreignobject height="13.84" overflow="visible" transform="matrix(1 0 0 -1 0 16.6)" width="66.88"><span class="ltx_text" id="S3.F4.pic1.6.6.6.1.1">T2 {a2, a3}</span></foreignobject></g><g fill="#000000" stroke="#000000" transform="matrix(1.0 0.0 0.0 1.0 427.19 6.38)"><foreignobject height="13.84" overflow="visible" transform="matrix(1 0 0 -1 0 16.6)" width="66.88"><span class="ltx_text" id="S3.F4.pic1.7.7.7.1.1">T3 {a0, a1}</span></foreignobject></g><g fill="#000000" stroke="#000000" transform="matrix(1.0 0.0 0.0 1.0 498.06 6.38)"><foreignobject height="13.84" overflow="visible" transform="matrix(1 0 0 -1 0 16.6)" width="66.88"><span class="ltx_text" id="S3.F4.pic1.8.8.8.1.1">T3 {a2, a3}</span></foreignobject></g><g fill="#000000" stroke="#000000" transform="matrix(1.0 0.0 0.0 1.0 1.99 -13.3)"><foreignobject height="13.84" overflow="visible" transform="matrix(1 0 0 -1 0 16.6)" width="66.88"><span class="ltx_text" id="S3.F4.pic1.9.9.9.1.1">T0 {a4, a5}</span></foreignobject></g><g fill="#000000" stroke="#000000" transform="matrix(1.0 0.0 0.0 1.0 72.86 -13.3)"><foreignobject height="13.84" overflow="visible" transform="matrix(1 0 0 -1 0 16.6)" width="66.88"><span class="ltx_text" id="S3.F4.pic1.10.10.10.1.1">T0 {a6, a7}</span></foreignobject></g><g fill="#000000" stroke="#000000" transform="matrix(1.0 0.0 0.0 1.0 143.73 -13.3)"><foreignobject height="13.84" overflow="visible" transform="matrix(1 0 0 -1 0 16.6)" width="66.88"><span class="ltx_text" id="S3.F4.pic1.11.11.11.1.1">T1 {a4, a5}</span></foreignobject></g><g fill="#000000" stroke="#000000" transform="matrix(1.0 0.0 0.0 1.0 214.59 -13.3)"><foreignobject height="13.84" overflow="visible" transform="matrix(1 0 0 -1 0 16.6)" width="66.88"><span class="ltx_text" id="S3.F4.pic1.12.12.12.1.1">T1 {a6, a7}</span></foreignobject></g><g fill="#000000" stroke="#000000" transform="matrix(1.0 0.0 0.0 1.0 285.46 -13.3)"><foreignobject height="13.84" overflow="visible" transform="matrix(1 0 0 -1 0 16.6)" width="66.88"><span class="ltx_text" id="S3.F4.pic1.13.13.13.1.1">T2 {a4, a5}</span></foreignobject></g><g fill="#000000" stroke="#000000" transform="matrix(1.0 0.0 0.0 1.0 356.32 -13.3)"><foreignobject height="13.84" overflow="visible" transform="matrix(1 0 0 -1 0 16.6)" width="66.88"><span class="ltx_text" id="S3.F4.pic1.14.14.14.1.1">T2 {a6, a7}</span></foreignobject></g><g fill="#000000" stroke="#000000" transform="matrix(1.0 0.0 0.0 1.0 427.19 -13.3)"><foreignobject height="13.84" overflow="visible" transform="matrix(1 0 0 -1 0 16.6)" width="66.88"><span class="ltx_text" id="S3.F4.pic1.15.15.15.1.1">T3 {a4, a5}</span></foreignobject></g><g fill="#000000" stroke="#000000" transform="matrix(1.0 0.0 0.0 1.0 498.06 -13.3)"><foreignobject height="13.84" overflow="visible" transform="matrix(1 0 0 -1 0 16.6)" width="66.88"><span class="ltx_text" id="S3.F4.pic1.16.16.16.1.1">T3 {a6, a7}</span></foreignobject></g></g></svg>