<svg xmlns="http://www.w3.org/2000/svg" class="ltx_picture ltx_centering" height="42.75" id="S3.F3.pic1" overflow="visible" version="1.1" width="573.7"><g fill="#000000" stroke="#000000" stroke-width="0.4pt" transform="translate(0,42.75) matrix(1 0 0 -1 0 0) translate(3.39,0) translate(0,21.37)"><g fill="#CCFFFF"><path d="M 0 0 M 0 0 L 0 19.69 L 70.87 19.69 L 70.87 0 Z M 70.87 19.69"></path></g><g fill="#CCFFFF"><path d="M 141.73 0 M 141.73 0 L 141.73 19.69 L 212.6 19.69 L 212.6 0 Z M 212.6 19.69"></path></g><g fill="#CCFFFF"><path d="M 70.87 0 M 70.87 0 L 70.87 19.69 L 141.73 19.69 L 141.73 0 Z M 141.73 19.69"></path></g><g fill="#CCFFFF"><path d="M 212.6 0 M 212.6 0 L 212.6 19.69 L 283.46 19.69 L 283.46 0 Z M 283.46 19.69"></path></g><g fill="#FFF7CC"><path d="M 283.46 0 M 283.46 0 L 283.46 19.69 L 354.33 19.69 L 354.33 0 Z M 354.33 19.69"></path></g><g fill="#FFF7CC"><path d="M 425.2 0 M 425.2 0 L 425.2 19.69 L 496.06 19.69 L 496.06 0 Z M 496.06 19.69"></path></g><g fill="#FFF7CC"><path d="M 354.33 0 M 354.33 0 L 354.33 19.69 L 425.2 19.69 L 425.2 0 Z M 425.2 19.69"></path></g><g fill="#FFF7CC"><path d="M 496.06 0 M 496.06 0 L 496.06 19.69 L 566.93 19.69 L 566.93 0 Z M 566.93 19.69"></path></g><g fill="#80FFFF"><path d="M 0 -19.69 M 0 -19.69 L 0 0 L 70.87 0 L 70.87 -19.69 Z M 70.87 0"></path></g><g fill="#80FFFF"><path d="M 141.73 -19.69 M 141.73 -19.69 L 141.73 0 L 212.6 0 L 212.6 -19.69 Z M 212.6 0"></path></g><g fill="#80FFFF"><path d="M 70.87 -19.69 M 70.87 -19.69 L 70.87 0 L 141.73 0 L 141.73 -19.69 Z M 141.73 0"></path></g><g fill="#80FFFF"><path d="M 212.6 -19.69 M 212.6 -19.69 L 212.6 0 L 283.46 0 L 283.46 -19.69 Z M 283.46 0"></path></g><g fill="#FFD280"><path d="M 283.46 -19.69 M 283.46 -19.69 L 283.46 0 L 354.33 0 L 354.33 -19.69 Z M 354.33 0"></path></g><g fill="#FFD280"><path d="M 425.2 -19.69 M 425.2 -19.69 L 425.2 0 L 496.06 0 L 496.06 -19.69 Z M 496.06 0"></path></g><g fill="#FFD280"><path d="M 354.33 -19.69 M 354.33 -19.69 L 354.33 0 L 425.2 0 L 425.2 -19.69 Z M 425.2 0"></path></g><g fill="#FFD280"><path d="M 496.06 -19.69 M 496.06 -19.69 L 496.06 0 L 566.93 0 L 566.93 -19.69 Z M 566.93 0"></path></g><g fill="#000000" stroke="#000000" transform="matrix(1.0 0.0 0.0 1.0 1.22 6.38)"><foreignobject height="13.84" overflow="visible" transform="matrix(1 0 0 -1 0 16.6)" width="68.42"><span class="ltx_text" id="S3.F3.pic1.1.1.1.1.1">T0 {d0, d1}</span></foreignobject></g><g fill="#000000" stroke="#000000" transform="matrix(1.0 0.0 0.0 1.0 72.09 6.38)"><foreignobject height="13.84" overflow="visible" transform="matrix(1 0 0 -1 0 16.6)" width="68.42"><span class="ltx_text" id="S3.F3.pic1.2.2.2.1.1">T1 {d0, d1}</span></foreignobject></g><g fill="#000000" stroke="#000000" transform="matrix(1.0 0.0 0.0 1.0 284.69 6.38)"><foreignobject height="13.84" overflow="visible" transform="matrix(1 0 0 -1 0 16.6)" width="68.42"><span class="ltx_text" id="S3.F3.pic1.3.3.3.1.1">T0 {d4, d5}</span></foreignobject></g><g fill="#000000" stroke="#000000" transform="matrix(1.0 0.0 0.0 1.0 355.56 6.38)"><foreignobject height="13.84" overflow="visible" transform="matrix(1 0 0 -1 0 16.6)" width="68.42"><span class="ltx_text" id="S3.F3.pic1.4.4.4.1.1">T1 {d4, d5}</span></foreignobject></g><g fill="#000000" stroke="#000000" transform="matrix(1.0 0.0 0.0 1.0 142.96 6.38)"><foreignobject height="13.84" overflow="visible" transform="matrix(1 0 0 -1 0 16.6)" width="68.42"><span class="ltx_text" id="S3.F3.pic1.5.5.5.1.1">T2 {d0, d1}</span></foreignobject></g><g fill="#000000" stroke="#000000" transform="matrix(1.0 0.0 0.0 1.0 213.82 6.38)"><foreignobject height="13.84" overflow="visible" transform="matrix(1 0 0 -1 0 16.6)" width="68.42"><span class="ltx_text" id="S3.F3.pic1.6.6.6.1.1">T3 {d0, d1}</span></foreignobject></g><g fill="#000000" stroke="#000000" transform="matrix(1.0 0.0 0.0 1.0 426.42 6.38)"><foreignobject height="13.84" overflow="visible" transform="matrix(1 0 0 -1 0 16.6)" width="68.42"><span class="ltx_text" id="S3.F3.pic1.7.7.7.1.1">T2 {d4, d5}</span></foreignobject></g><g fill="#000000" stroke="#000000" transform="matrix(1.0 0.0 0.0 1.0 497.29 6.38)"><foreignobject height="13.84" overflow="visible" transform="matrix(1 0 0 -1 0 16.6)" width="68.42"><span class="ltx_text" id="S3.F3.pic1.8.8.8.1.1">T3 {d4, d5}</span></foreignobject></g><g fill="#000000" stroke="#000000" transform="matrix(1.0 0.0 0.0 1.0 1.22 -13.3)"><foreignobject height="13.84" overflow="visible" transform="matrix(1 0 0 -1 0 16.6)" width="68.42"><span class="ltx_text" id="S3.F3.pic1.9.9.9.1.1">T0 {d2, d3}</span></foreignobject></g><g fill="#000000" stroke="#000000" transform="matrix(1.0 0.0 0.0 1.0 72.09 -13.3)"><foreignobject height="13.84" overflow="visible" transform="matrix(1 0 0 -1 0 16.6)" width="68.42"><span class="ltx_text" id="S3.F3.pic1.10.10.10.1.1">T1 {d2, d3}</span></foreignobject></g><g fill="#000000" stroke="#000000" transform="matrix(1.0 0.0 0.0 1.0 284.69 -13.3)"><foreignobject height="13.84" overflow="visible" transform="matrix(1 0 0 -1 0 16.6)" width="68.42"><span class="ltx_text" id="S3.F3.pic1.11.11.11.1.1">T0 {d6, d7}</span></foreignobject></g><g fill="#000000" stroke="#000000" transform="matrix(1.0 0.0 0.0 1.0 355.56 -13.3)"><foreignobject height="13.84" overflow="visible" transform="matrix(1 0 0 -1 0 16.6)" width="68.42"><span class="ltx_text" id="S3.F3.pic1.12.12.12.1.1">T1 {d6, d7}</span></foreignobject></g><g fill="#000000" stroke="#000000" transform="matrix(1.0 0.0 0.0 1.0 142.96 -13.3)"><foreignobject height="13.84" overflow="visible" transform="matrix(1 0 0 -1 0 16.6)" width="68.42"><span class="ltx_text" id="S3.F3.pic1.13.13.13.1.1">T2 {d2, d3}</span></foreignobject></g><g fill="#000000" stroke="#000000" transform="matrix(1.0 0.0 0.0 1.0 213.82 -13.3)"><foreignobject height="13.84" overflow="visible" transform="matrix(1 0 0 -1 0 16.6)" width="68.42"><span class="ltx_text" id="S3.F3.pic1.14.14.14.1.1">T3 {d2, d3}</span></foreignobject></g><g fill="#000000" stroke="#000000" transform="matrix(1.0 0.0 0.0 1.0 426.42 -13.3)"><foreignobject height="13.84" overflow="visible" transform="matrix(1 0 0 -1 0 16.6)" width="68.42"><span class="ltx_text" id="S3.F3.pic1.15.15.15.1.1">T2 {d6, d7}</span></foreignobject></g><g fill="#000000" stroke="#000000" transform="matrix(1.0 0.0 0.0 1.0 497.29 -13.3)"><foreignobject height="13.84" overflow="visible" transform="matrix(1 0 0 -1 0 16.6)" width="68.42"><span class="ltx_text" id="S3.F3.pic1.16.16.16.1.1">T3 {d6, d7}</span></foreignobject></g></g></svg>